<?xml version="1.0"?>
<svg viewBox="0 0 211 310" xmlns="http://www.w3.org/2000/svg" xmlns:svg="http://www.w3.org/2000/svg">
 <!-- Created with SVG-edit - https://github.com/SVG-Edit/svgedit-->
 <g class="layer">
  <title>Layer 1</title>
  <g id="svg_1" stroke="#000" stroke-width="3" transform="translate(145.57 -1.72) translate(-1 0) matrix(1 0 0 1 -239.735 -2.82)">
   <path d="m191.26,191.63c-3.89,6.63 -3.41,10.93 -1.5,15.63l20.47,0c2.34,-7.57 0.86,-9.93 -2.23,-15.63c-7.19,-0.12 -10.55,-0.88 -16.74,0z" fill="#520" id="svg_2"/>
   <path d="m192.37,311.81c8.2,2.57 15.9,2.28 23.07,-1.11c2.42,-7.38 4.12,-15.49 2.6,-26.8c-2.25,-10.85 -9.27,-27.46 -4.83,-40.92c3.73,-10.22 6.09,-29.66 -2.98,-35.72c-8.06,0.5 -12.4,-0.5 -20.46,0c-6.59,5.3 -8,15.82 -4.47,28.27c4.8,10.79 7.34,22.22 5.21,34.98c-2.88,13.13 -5.85,26.24 1.86,41.3z" fill="#520" id="svg_3"/>
   <path d="m299.78,60.12c-17.75,-17.14 -60.95,-52.95 -102.74,-54.02c-42.6,-1.22 -92.72,14.94 -100.3,85.95c-1.47,47.22 19.45,70.4 48.67,82.47c18.02,7.5 26,7.63 37.7,9.8c5.2,0.77 6.6,1.56 8.15,7.3c4.09,-3.42 5.6,-8.12 5.37,-17.13c-159.34,-25.94 -73.01,-231.53 103.15,-114.37z" fill="#4d4d4d" id="svg_4" stroke-linecap="round" stroke-linejoin="round"/>
   <path d="m191.26,191.63c2.1,-5.09 1.6,-7.57 -1.5,-11.9c-21.98,-4.01 -39.4,-8.66 -61.02,-24.94c-15.15,-14.01 -22.69,-26.62 -23.25,-56.6c-0.62,-36.1 17.63,-63.98 50.79,-79.21c52.82,-20.08 105.15,5.92 148.84,46.14c-24.04,-15.18 -49.68,-27.95 -79.63,-34.24c-17.61,-3.71 -35.23,-2.34 -52.84,1.86c-50.13,14.19 -58.39,81.33 -29.4,111.26c12.52,12.46 36.25,23.75 64,26.8c2.44,6.94 3.23,13.88 0.75,20.83l-16.74,0z" fill="#666" id="svg_5" stroke-linejoin="round"/>
  </g>
 </g>
</svg>