<?xml version="1.0" encoding="UTF-8" standalone="no"?>
<!-- Created with Inkscape (http://www.inkscape.org/) -->

<svg
   width="46.764mm"
   height="124.83mm"
   viewBox="0 0 46.764 124.83"
   version="1.1"
   id="svg1"
   xmlns="http://www.w3.org/2000/svg"
   xmlns:svg="http://www.w3.org/2000/svg">
  <defs
     id="defs1" />
  <path
     fill="#a05a2c"
     stroke-width="0.519176"
     d="M 34.316,0.26172 34.607,116.84 C 34.704,117.14 34.704,117.34 34.704,117.63 34.704,121.5 31.983,124.57 28.581,124.57 25.277,124.57 22.555,121.5 22.555,117.73 V 117.04 L 22.264,0.36077 Z"
     id="path1"
     style="stroke:black" />
  <path
     stroke-width="0.597053"
     d="M 14.586,1.5493 H 46.367 L 46.464,21.161 14.391,21.26 C 14.262,21.169 14.012,20.989 13.808,20.864 11.688,18.096 8.8644,15.972 5.6441,14.723 1.6467,12.931 4.1649,13.973 0.29853,12.346 V 9.6712 C 4.7968,8.5459 1.9677,9.2522 5.3544,8.3917 8.3226,7.1675 12.121,4.4301 14.197,1.9455 Z"
     id="path2"
     style="stroke:black" />
</svg>
