<svg xmlns="http://www.w3.org/2000/svg" id="svg1" width="450" height="561" fill="none" version="1.1" viewBox="0 0 450 561">
  <g id="tete">
    <path id="path8" fill="#dd8f74" fill-opacity="1" fill-rule="evenodd" stroke="#000" stroke-dasharray="none" stroke-opacity="1" stroke-width=".4" d="m201.82 131.7-.12 14.84c.05 3.19 1.44 6.45 7.13 8.3 0 0 30.22.02 30.53 0 7.18-.39 7.93-6.83 8.06-7.92.32-2.86.32-14.36 0-15.22" clip-rule="evenodd"/>
    <g id="criniere">
      <path id="path1" fill="#46301A" stroke="#000" stroke-width=".98" d="M193.39 12.46c-4.73.56-8.57 4.48-11.47 6.85-6.5 5.55-8.71 11.17-10.27 14.01-2.01 3.7-3.06 8.33-2.2 14.68.45 3.47 1.06 8.25 2.14 12.25.83 3.07 1.74 6.17 3.29 8.96 1.93 3.45 3.2 3.64 4.22 6.01 1.75 4.08 1.9 8.99 4.52 13.41 1.03 1.72.72-4.49.5-7.07-.2-2.6-.32-5.21-.35-7.82a87 87 0 0 0-1.13-12.25c-.83-4.76-1.32-8.37-3.57-12.65-.99-1.87-.7-9.37 2.26-14 3.52-5.8 7.37-10.64 12.4-14.95-1.45-2.79-.1-7.46-.33-7.43h-.01Z"/>
      <path id="path2" fill="#46301A" d="M224.47 1.47c-3.96-.01-7.92.44-11.79 1.2-4.46.87-9.08 1.96-13.04 4.34-2.65 1.6-5.45 3.61-6.81 6.5-.5 1.04-.36 2.53-.12 3.77.13.7.33 1.4.58 2.06l.08.14.06.17c.1.12.19.17.3.24a6 6 0 0 0 .94.4c.8.27 1.92.53 3.16.7 2.48.35 5.43.34 7.09-1.15a.4.4 0 0 1 .13-.1l.11.13c.17.22.39.73.67 1.35a8.01 8.01 0 0 0 3.46 3.96c4.36 2.3 7.72 5.9 12.1 7.06 4.79 1.26 9.2 2.8 14.86 2.16 3.58-.4 7.19 0 11.81-2.65 3.6-2.05 6.01-5.77 7.37-7.55 1.42-.1 2.69.72 4.08 1.99 1.44 1.3 2.95 3.05 4.83 4.5 3.1 2.43 4.1 6.94 5.45 10.85 1.07 3.11.32 6.47-1.03 10.9-1.27 4.2-3.35 8.52-2.96 13.05.7 8.23-.63 16.47-1.13 22.61-.24.14-.02.28 0 0-.42 1.69.82 2.35 1.65.97.67-1.1 3.23-6.01 3.16-9.2-.03-1.68 2-6.29 3.3-7.74.7-.79 1.57-1.5 1.96-2.58a94.35 94.35 0 0 0 4.78-19.01c.55-4.54.53-9.37-.92-13.75-1.6-4.86-4.94-9-8.23-12.82a64.1 64.1 0 0 0-12.3-10.72 77.97 77.97 0 0 0-15.73-8.3 49.55 49.55 0 0 0-13.93-3.33 48.5 48.5 0 0 0-3.94-.16Z"/>
      <path id="path3" stroke="#000" stroke-width=".98" d="M264.68 88.1c.5-6.14 1.84-14.38 1.12-22.6-.39-4.54 1.69-8.87 2.96-13.06 1.35-4.42 2.1-7.79 1.03-10.9-1.36-3.9-2.34-8.42-5.44-10.84-1.89-1.46-3.4-3.2-4.84-4.51-1.4-1.27-2.67-2.09-4.07-2-1.37 1.8-3.8 5.51-7.38 7.56-4.62 2.64-8.23 2.25-11.8 2.65-5.65.64-10.08-.9-14.87-2.16-4.38-1.16-7.74-4.77-12.1-7.06a8.01 8.01 0 0 1-3.46-3.96c-.28-.62-.5-1.13-.67-1.35-.06-.1-.11-.11-.11-.11-.01 0-.06 0-.13.09-1.66 1.47-4.6 1.5-7.1 1.14a18.3 18.3 0 0 1-3.15-.7 5.2 5.2 0 0 1-.94-.4.92.92 0 0 1-.3-.24.57.57 0 0 1-.06-.17l-.1-.14-.18-.48c-.12-.4-.27-.96-.38-1.58-.24-1.24-.38-2.73.12-3.78 1.36-2.88 4.16-4.9 6.81-6.49 3.96-2.38 8.57-3.47 13.04-4.35 3.86-.75 7.83-1.2 11.78-1.2a47.29 47.29 0 0 1 17.88 3.49 77.98 77.98 0 0 1 15.72 8.3 64.1 64.1 0 0 1 12.3 10.72c3.3 3.82 6.64 7.96 8.24 12.82 1.45 4.38 1.47 9.2.92 13.75a94.36 94.36 0 0 1-4.79 19c-.38 1.08-1.24 1.8-1.95 2.59-1.3 1.45-3.32 6.06-3.3 7.73.07 3.2-2.5 8.1-3.16 9.21-.83 1.38-2.07.72-1.65-.97Zm0 0c-.25.14-.03.28 0 0Z"/>
    </g>
    <g id="oreille_droite">
      <path id="path4" fill="#DD9974" fill-rule="evenodd" stroke="#000" stroke-linecap="round" stroke-linejoin="round" stroke-miterlimit="3.2" stroke-width=".98" d="m176.76 71.97-2.78-1.36a4.51 4.51 0 0 0-3.74 1.2c-1.5 1.87-2.06 3.13-2.02 5-.4 3.59-.06 7.22 1 10.67.6 3.63 2.17 7.31 4.73 11.05a8.15 8.15 0 0 0 5.2 3.15c2.22-.13 3.7-.74 4.41-1.8l-1.64-15c-2.4-8.95-1.87-7.62-1.86-6.92.71.5-1.03-3.34-3.3-6Z" clip-rule="evenodd"/>
      <path id="path5" stroke="#4C3B2A" stroke-linecap="round" stroke-linejoin="round" stroke-miterlimit="3.2" stroke-width="1.63" d="M171.21 76.74c.19-1.1.6-1.6 1.2-1.46 1.8-.2 3.56 2.25 5.27 7.4a5.32 5.32 0 0 0-2.43 3.56c-.09 3.85.94 5.41 3.32 6.28"/>
    </g>
    <g id="oreille_gauche">
      <path id="path6" fill="#DD9974" fill-rule="evenodd" stroke="#000" stroke-linecap="round" stroke-linejoin="round" stroke-miterlimit="3.2" stroke-width=".98" d="M273.94 70.93c2.43-1.25 4.51-.92 5.62.96.87 1.48 2.5 3.27 1.8 9.11a29.81 29.81 0 0 1-5.7 17.16 7.8 7.8 0 0 1-5.95 3.53 4.82 4.82 0 0 1-3.91-1.38l.51-11.24 2.84-6.74.63-4.08 2.22-5.04 1.94-2.28Z" clip-rule="evenodd"/>
      <path id="path7" stroke="#4C3B2A" stroke-linecap="round" stroke-linejoin="round" stroke-miterlimit="3.2" stroke-width="1.63" d="M270.33 92.77c1.26.1 2.44-1.03 3.54-3.4a6.71 6.71 0 0 0-.5-5.34l-1.55-1.29c.74-3.74 2.4-6.32 4.96-7.75 1.2.58 1.66 1.16 1.36 1.74"/>
    </g>
    <g id="face">
      <path id="path10" fill="#DD9974" fill-rule="evenodd" stroke="#000" stroke-linecap="round" stroke-linejoin="round" stroke-miterlimit="3.2" stroke-width=".98" d="M182.7 87.57c.47 4.84.64 8.01 1.11 16.36a29.44 29.44 0 0 0 4.04 15.15c3.56 4.54 8.21 8.75 13.97 12.62a39.93 39.93 0 0 1 7.97 7.27 29.02 29.02 0 0 0 14.64 3.84c5.6.19 9.79-.4 12.53-1.75.29-.3 3.83-1.84 7.1-5.6.86-1 1.38-1.43 3.7-3.2 4.95-3.67 8.82-6.9 11.57-9.67a20.45 20.45 0 0 0 5.48-11.12c.87-8.75 1.3-13.86 1.51-22.39l.03-4.72c-.16-8.27-1.12-18.26.8-27.08.71-3.3 2.66-6.37 2.9-9.84a21.6 21.6 0 0 0-.26-5.9 25.6 25.6 0 0 0-3.6-8.83c-1.73-2.58-6.68-6.52-6.68-6.52-1.48-1.4-2.84-2.07-4.07-1.99 0 0-2.91 4.5-5.09 5.93-4.11 2.68-9.2 3.87-14.1 4.28a34.2 34.2 0 0 1-13.06-1.68 39.84 39.84 0 0 1-11.38-6.03c-2.6-1.92-3.89-5.64-6.89-6.85-2.74-1.1-7.83-1.55-11.19.04-5.86 2.77-9.5 9.17-12.39 14.97-1.85 3.6-2.8 7.6-2.76 11.66.13 3.8 2.53 7.18 3.33 10.9.94 4.34 1.74 13.23 1.74 13.23-.09 0 .2 7.28.47 10.92.13 2.05-1.41 6.01-1.41 6.01v-.01Z" clip-rule="evenodd"/>
      <path id="path11" stroke="#000" stroke-linecap="round" stroke-linejoin="round" stroke-miterlimit="3.2" stroke-width=".98" d="M219.56 69.26c1.47 1.77 1.03 2.73.79 4.09-.92 5.08.22 11.77-1.32 15.72-.74 1.9-3.9 1.8-4.32 3.84-.28 1.45-.68 3.29.45 4 1.51.96 3.47.78 4.5 1.71 1.5 1.36 3.27 2.91 5.28 2.95a7.61 7.61 0 0 0 5.65-2.8c1-1.52 3.7-1.25 4.72-2.75.9-1.32-.3-2.81-.8-4.24-.47-1.3-2.24-2.32-2.51-2.7"/>
    </g>
    <g id="bouche">
      <path id="path14" fill="#52110F" fill-rule="evenodd" d="M225.78 111.65c8.52.08 18.05.62 18.05 3.24 0 2.87-9.46 9.8-18.45 9.8-9 0-18.88-6.62-18.88-9.49 0-3.97 16-3.58 19.28-3.55Z" clip-rule="evenodd"/>
      <path id="path15" fill="#fff" fill-rule="evenodd" d="M235.5 122.2a24.26 24.26 0 0 1-10.12 2.48c-3.74 0-7.63-1.14-10.9-2.67 2.49-.8 6.14-1.3 10.23-1.3 4.4 0 8.31.58 10.79 1.48Z" clip-rule="evenodd"/>
      <path id="path16" fill="#fff" fill-rule="evenodd" d="M225.78 111.65c4.42.04 9.12.2 12.62.72-.95 1.83-6.51 3.24-13.23 3.24-6.81 0-12.42-1.45-13.26-3.32 4.97-.81 11.84-.65 13.87-.64Z" clip-rule="evenodd"/>
      <path id="path17" fill="#E8645F" fill-rule="evenodd" d="M219.42 119.04h11.51a1.94 1.94 0 0 1 1.88 2.41 41.6 41.6 0 0 0-8.1-.73c-2.65 0-5.12.2-7.2.57l-.04-.3c0-1.07.88-1.95 1.94-1.95Z" clip-rule="evenodd"/>
      <path id="path18" fill="#DBAC93" fill-rule="evenodd" d="M234.56 126.8c-6.59 3.05-13.03 3.32-19.29.1 6.4 1 12.9.98 19.29-.1Z" clip-rule="evenodd"/>
    </g>
    <g id="oeil_gauche">
      <path id="path12" fill="#4C3B2A" stroke="#503C2C" stroke-linecap="round" stroke-linejoin="round" stroke-miterlimit="3.2" stroke-width=".11" d="M258.14 69.56c.76-1.5-.84-3.57-1.7-4.98a12.63 12.63 0 0 0-6.44-5.05c-2.47-.9-5.25-.56-7.85-.27-1.7.17-3.41.57-4.98 1.25-1.28.55-2.63 1.18-3.53 2.25-.72.85-1.7 2.72-1.2 3.72.4.8 1.7.37 2.51 0 1.17-.53 6.4-2.76 7.9-2.32 2.29-.32 4.61-.23 6.87.27 0 0 3.43 1.42 4.9 2.53.87.66 1.27 1.89 2.25 2.38.47.25 1 .7 1.26.22h0Z"/>
      <path id="path19" fill="#F4E3D7" fill-opacity=".91" stroke="#000" stroke-linecap="round" stroke-linejoin="round" stroke-miterlimit="3.2" stroke-width=".98" d="M251.9 75.14c-.04 1.21-1.15 2.2-2.07 2.99a9.42 9.42 0 0 1-4.58 2.15c-2.16.32-4.6.14-6.51-.92-1.66-.94-3.43-2.54-3.65-4.44-.18-1.6.95-3.27 2.15-4.36a8.88 8.88 0 0 1 6.08-2.28c2.3.09 4.52 1.38 6.22 2.92 1.14 1.03 2.4 2.4 2.36 3.94Z"/>
      <path id="path20" fill="#6C6753" fill-opacity=".91" stroke="#000" stroke-linecap="round" stroke-linejoin="round" stroke-miterlimit="3.2" stroke-width=".99" d="M243.14 78.46a4.08 4.08 0 1 1-.38-8.16 4.08 4.08 0 0 1 .38 8.16Z"/>
      <path id="path21" fill="#241C1C" fill-opacity=".91" stroke="#000" stroke-linecap="round" stroke-linejoin="round" stroke-miterlimit="3.2" stroke-width=".98" d="M243.2 76.02a1.63 1.63 0 1 0 0-3.26 1.63 1.63 0 0 0 0 3.26Z"/>
      <path id="path22" stroke="#503C2C" stroke-linecap="round" stroke-linejoin="round" stroke-miterlimit="3.2" stroke-width="1.63" d="M252.8 75.2c-.03-.63-.7-1.56-1.12-2.3-.29-.49-.6-.95-.95-1.4-.34-.46-.67-.92-1.08-1.32-.52-.5-1.1-.93-1.73-1.29a13.46 13.46 0 0 0-4.29-1.54 8.16 8.16 0 0 0-3.78.46c-.54.18-1.1.35-1.58.66-.66.4-1.23.97-1.79 1.54a9.09 9.09 0 0 0-1.38 1.65 6.9 6.9 0 0 0-1 2.58"/>
    </g>
    <g id="oeil_droite">
      <path id="path26" stroke="#503C2C" stroke-linecap="round" stroke-linejoin="round" stroke-miterlimit="3.2" stroke-width="1.63" d="M196.96 74.64c.04-.58.7-1.46 1.13-2.14.27-.46.6-.88.94-1.3.35-.42.68-.86 1.08-1.22a9.35 9.35 0 0 1 1.73-1.2c1.35-.7 2.8-1.2 4.3-1.43 1.27-.14 2.56 0 3.77.42.55.16 1.1.33 1.59.62.66.37 1.23.9 1.78 1.42.53.46.99.97 1.38 1.54.47.74.98 1.75 1 2.4"/>
      <path id="path13" fill="#4C3B2A" stroke="#503C2C" stroke-linecap="round" stroke-linejoin="round" stroke-miterlimit="3.2" stroke-width=".11" d="M191.99 69.56c-.77-1.5.83-3.57 1.69-4.98a12.66 12.66 0 0 1 6.44-5.05c2.47-.9 5.25-.56 7.86-.27 1.7.17 3.4.57 4.97 1.25 1.3.55 2.64 1.18 3.53 2.25.73.85 1.71 2.72 1.2 3.72-.4.8-1.69.37-2.5 0-1.18-.53-6.41-2.76-7.9-2.32a19.2 19.2 0 0 0-6.87.27s-3.44 1.42-4.91 2.53c-.87.66-1.27 1.89-2.24 2.38-.49.25-1.01.7-1.27.22Z"/>
      <path id="path23" fill="#F4E3D7" fill-opacity=".91" fill-rule="evenodd" stroke="#000" stroke-linecap="round" stroke-linejoin="round" stroke-miterlimit="3.2" stroke-width=".98" d="M197.86 75.13c.03 1.21 1.15 2.22 2.07 3a9.42 9.42 0 0 0 4.58 2.15c2.16.32 4.6.14 6.5-.92 1.67-.94 3.43-2.55 3.66-4.44.18-1.62-.95-3.27-2.15-4.37a8.88 8.88 0 0 0-6.08-2.28c-2.3.09-4.52 1.39-6.23 2.92-1.13 1.04-2.4 2.4-2.35 3.94Z" clip-rule="evenodd"/>
      <path id="path24" fill="#6C6753" stroke="#000" stroke-linecap="round" stroke-linejoin="round" stroke-miterlimit="3.2" stroke-width=".99" d="M206.62 78.47a4.08 4.08 0 1 0 0-8.16 4.08 4.08 0 0 0 0 8.16Z"/>
      <path id="path25" fill="#241C1C" fill-opacity=".91" stroke="#000" stroke-linecap="round" stroke-linejoin="round" stroke-miterlimit="3.2" stroke-width=".98" d="M206.62 76.02a1.63 1.63 0 1 0 0-3.26 1.63 1.63 0 0 0 0 3.26Z"/>
    </g>
  </g>
  <g id="cou">
    <path id="Ellipse 2" fill="#DD9974" d="M225 138.5a.5.5 0 1 0 0-1 .5.5 0 0 0 0 1Z"/>
  </g>
  <g id="avant_bras_gauche">
    <path id="path99" fill="#fff" d="m392.14 137.88 2.86-4.95 23.53 13.63-2.86 4.95-23.53-13.63Z"/>
    <path id="path100" fill="#262626" stroke="#000" stroke-dasharray="none" stroke-opacity="1" stroke-width=".4" d="M359.2 221.58a14.5 14.5 0 0 1-5.24-19.8l.02-.03 37.23-64.3 25.1 14.52-37.25 64.34-.03.04a14.5 14.5 0 0 1-19.83 5.23Z"/>
  </g>
  <g id="main_gauche">
    <path id="path96" fill="#DD9974" stroke="#000" stroke-dasharray="none" stroke-opacity="1" stroke-width=".41" d="M427.07 82.08c-.84.02-1.36.2-1.82.5-.49.32-.9.77-1.56 1.42a61.41 61.41 0 0 0-2.74 4.39l-.77 1.3-2.42 4.12-3.93 6.64c-1.07 1.8-2.14 3.58-3.26 5.34-.48.78-.7 1.16-.84 1.52-.14.33-.21.67-.36 1.38l-.06.3-.27-.11c-.58-.23-.89-.35-1.19-.55a7.93 7.93 0 0 1-1.07-.93l-.06-.06-.02-.1a9.8 9.8 0 0 1-.08-2.98l.05-.62c.12-2.99-.04-4.97-1.63-7.47-1.65-1.53-3.47-1.99-5.73-2.1-.54.26-.77.4-.96.56-.2.17-.34.39-.67.9-.58 2.15-.5 3.87-.19 6.12.49 4.33.7 8.68.64 13.03.05 3.55.23 7.18 2.32 10.1.82 1.33.43 2.41.13 3.72v.01c-.3.98-.65 1.91-1.02 2.84l-.38.95-.54 1.35-.33.83a3669.7 3669.7 0 0 1 17.21 10l.41-1.05c.49-1.29.74-1.99 1.15-2.55a9.7 9.7 0 0 1 1.96-1.84l.06-.06h.07l.53-.06c.35-.04.7-.06 1.05-.08l.53-.04c2.64-.2 4.38-1.86 6.21-3.73 2.23-2.6 3.9-5.46 5.66-8.43a79.16 79.16 0 0 1 10.56-14.2l.4-.43.8-.85 1.12-1.17.4-.39a8.5 8.5 0 0 0 1.7-2.41c.36-.82.56-1.72.68-2.86-.09-.3-.2-.6-.37-.87-.2-.25-.42-.47-.67-.67-.38-.2-.77-.36-1.19-.47-.32-.07-.68-.06-1.45-.05-3.13 1.84-5.54 4.62-7.96 7.37l-1.99 2.24-.87.98c-.38.43-.57.67-.83.88-.26.22-.55.4-1.12.75l-.33-.38 4.25-5.04 1.45-1.7 1.4-1.65 1.37-1.63c.98-1.15 1.94-2.28 2.94-3.42l.88-1 .73-.83a5.98 5.98 0 0 0 1.19-3.9 3.92 3.92 0 0 0-.55-.93 4.5 4.5 0 0 0-.92-.7c-.49-.16-1-.28-1.52-.34-.39-.02-.8.04-1.69.15-3.4 2.7-6.1 6.47-8.93 9.82a66.17 66.17 0 0 1-6.13 6.38l-.36-.34.88-1.1c1.5-1.9 2.97-3.82 4.44-5.73l1.04-1.37c1.13-1.48 2.23-2.96 3.33-4.44l1.12-1.44c1.89-2.55 3.18-4.46 3.41-7.58-.28-.67-.4-.97-.57-1.23a5.92 5.92 0 0 0-.82-.87 3.91 3.91 0 0 0-1.8-.05c-.52.12-1.03.38-1.76.78a19.68 19.68 0 0 0-4.18 4.62l-.78 1.05c-3.45 4.76-6.81 9.6-10.18 14.42l-.43-.24a96.05 96.05 0 0 1 3.57-7.54l.49-.93c.65-1.3 1.33-2.58 2-3.86l1.48-2.85.88-1.69c.66-1.47 1.06-2.7 1.25-4.28a5.6 5.6 0 0 0-.93-1.58c-.36-.37-.8-.68-1.51-1Z"/>
    <path id="path97" fill="#B67255" d="m406.93 108.4-.2.99c.58.67.58.67 1.43 1.45l.92.9 1.93 1.79c2.07 2.01 2.9 3.5 3.05 6.41a33.17 33.17 0 0 1-.39 4.67l-.23 1.68-.2 1.26 1.08-.3a371 371 0 0 0 1.11-5.03l.34-1.44.3-1.4.29-1.27c.06-1.39-.23-1.86-1.12-2.91a48.52 48.52 0 0 0-1.95-1.67c-.64-.64-2.35-2.26-2.25-2.75-2.46-2.03-2.46-2.03-4.11-2.37Z"/>
    <path id="path98" fill="#BB7859" d="M415.25 105.23c1.77 1.4 4.87 3.81 6.73 5.1 2.32 1.62 4.43 3.46 6.56 5.3 1.25.96 3 2.35 4.48 2.65-3.33-3.73-7.1-6.55-10.75-9.84-.43-.43-2.08-1.1-2.5-1.54-1.6-.81-2.75-1.8-4.5-1.67h-.02Z"/>
  </g>
  <g id="coude_gauche">
    <path id="circle100" fill="#262626" d="M367.5 209.26a1 1 0 1 1-1.95-.44 1 1 0 0 1 1.95.44Z"/>
  </g>
  <g id="haut_bras_gauche">
    <path id="path101" fill="#262626" stroke="#000" stroke-dasharray="none" stroke-opacity="1" stroke-width=".4" d="M280.81 166.75c3.57-7.15 12.65-9.9 20.3-6.11l.05.02 71.24 35.1-12.83 26-71.29-35.12h-.04c-7.67-3.82-11-12.72-7.43-19.9Z"/>
  </g>
  <g id="epaule_gauche">
    <path id="circle101" fill="#262626" d="M293.99 174.21a1 1 0 1 1-.34-1.97 1 1 0 0 1 .34 1.97Z"/>
  </g>
  <g id="avant_bras_droite">
    <path id="path34" fill="#fff" d="m57.65 137.89-2.86-4.95-23.53 13.63 2.86 4.95 23.53-13.63Z"/>
    <path id="os_avant_bras_droite" fill="#262626" stroke="#000" stroke-dasharray="none" stroke-opacity="1" stroke-width=".4" d="M90.59 221.59a14.5 14.5 0 0 0 5.24-19.8l-.02-.04-37.23-64.3-25.1 14.53 37.25 64.34.03.04a14.5 14.5 0 0 0 19.83 5.22Z"/>
  </g>
  <g id="main_droite">
    <path id="Vector" fill="#DD9974" stroke="#000" stroke-dasharray="none" stroke-opacity="1" stroke-width=".41" d="M22.72 82.08c.84.02 1.36.2 1.82.5.49.32.9.78 1.56 1.43a61.74 61.74 0 0 1 2.74 4.38l.77 1.3 2.42 4.12c1.31 2.22 2.63 4.43 3.93 6.65a195.9 195.9 0 0 0 3.26 5.34c.48.78.7 1.16.84 1.51.14.34.21.67.36 1.39l.06.3.27-.12c.58-.23.89-.35 1.19-.54a8 8 0 0 0 1.07-.94l.07-.06.01-.1c.18-.98.22-1.99.08-2.98l-.05-.62c-.12-2.98.04-4.97 1.63-7.47 1.65-1.53 3.47-1.98 5.73-2.1.54.27.77.4.97.57.19.17.33.38.66.9.58 2.14.5 3.86.19 6.12-.48 4.32-.7 8.67-.64 13.02-.05 3.55-.23 7.18-2.32 10.1-.82 1.33-.43 2.41-.13 3.72v.02c.3.97.65 1.9 1.02 2.84l.38.94.54 1.36.33.82c-5.75 3.33-11.48 6.65-17.21 10l-.4-1.04c-.5-1.3-.74-2-1.16-2.56a10.3 10.3 0 0 0-1.96-1.84l-.06-.05h-.07l-.53-.06-1.05-.09-.53-.04c-2.64-.19-4.38-1.85-6.21-3.73-2.23-2.6-3.9-5.45-5.66-8.43a79.17 79.17 0 0 0-10.56-14.2l-.4-.43-.8-.84-1.12-1.18-.4-.38a8.54 8.54 0 0 1-1.7-2.42 9.26 9.26 0 0 1-.67-2.86c.08-.3.2-.6.36-.87.2-.25.42-.47.67-.66.38-.2.77-.36 1.19-.47.32-.07.68-.06 1.45-.06 3.13 1.85 5.54 4.62 7.96 7.38l1.99 2.24.87.98c.38.43.58.67.83.88.26.21.55.4 1.12.74l.33-.38-4.25-5.03-1.45-1.7-1.4-1.65-1.37-1.63c-.98-1.15-1.94-2.29-2.94-3.43l-.88-1-.73-.82a5.98 5.98 0 0 1-1.19-3.9c.26-.53.39-.75.55-.94.27-.27.59-.5.92-.7.49-.16 1-.27 1.52-.33.39-.02.8.03 1.69.15 3.4 2.7 6.1 6.46 8.93 9.81a66.1 66.1 0 0 0 6.13 6.39l.36-.35-.88-1.1c-1.5-1.9-2.97-3.81-4.44-5.73l-1.04-1.37a285.22 285.22 0 0 1-3.33-4.44l-1.11-1.43c-1.9-2.56-3.19-4.46-3.42-7.58.28-.67.4-.98.57-1.23.17-.24.37-.45.82-.87a3.9 3.9 0 0 1 1.8-.06c.52.12 1.03.39 1.76.78a19.68 19.68 0 0 1 4.18 4.62l.78 1.06c3.46 4.75 6.81 9.59 10.18 14.42l.43-.25a100.73 100.73 0 0 0-3.57-7.54l-.49-.93a197.7 197.7 0 0 0-2-3.86l-1.48-2.84-.88-1.7a13.59 13.59 0 0 1-1.25-4.27c.23-.58.53-1.11.93-1.58.36-.38.8-.68 1.51-1Z"/>
    <path id="path48" fill="#B67255" d="m42.86 108.41.2.98c-.58.68-.58.68-1.43 1.46l-.92.89-1.93 1.8c-2.07 2-2.9 3.5-3.05 6.4.02 1.56.15 3.13.39 4.67l.23 1.69.2 1.25-1.08-.29c-.38-1.67-.75-3.35-1.11-5.03l-.34-1.44-.3-1.4-.29-1.27c-.06-1.4.23-1.86 1.12-2.92.85-.77 1.83-1.57 1.95-1.66.64-.65 2.35-2.26 2.25-2.76 2.46-2.03 2.46-2.03 4.11-2.37Z"/>
    <path id="path49" fill="#BB7859" d="M34.54 105.23c-1.77 1.4-4.87 3.82-6.73 5.1-2.32 1.62-4.43 3.46-6.56 5.31-1.25.96-3 2.34-4.48 2.64 3.33-3.73 7.1-6.54 10.75-9.84.43-.42 2.08-1.1 2.5-1.53 1.6-.82 2.75-1.81 4.5-1.67h.02Z"/>
  </g>
  <g id="haut_bras_droite">
    <path id="path94" fill="#262626" stroke="#000" stroke-dasharray="none" stroke-opacity="1" stroke-width=".4" d="M168.98 166.75c-3.57-7.14-12.65-9.9-20.3-6.1l-.05.01-71.24 35.1 12.83 26 71.29-35.11.04-.01c7.67-3.81 11-12.71 7.43-19.89Z"/>
  </g>
  <g id="coude_droite">
    <path id="rot_coude_droite" fill="#262626" d="M82.29 209.26a1 1 0 1 0 1.95-.44 1 1 0 0 0-1.95.44Z"/>
  </g>
  <g id="epaule_droite">
    <path id="circle94" fill="#262626" d="M155.8 174.22a1 1 0 1 0 .34-1.97 1 1 0 0 0-.33 1.97Z"/>
  </g>
  <g id="cuisse_droite">
    <path id="path36" fill="#262626" stroke="#000" stroke-dasharray="none" stroke-opacity="1" stroke-width=".4" d="M177.84 314.08v112.85h36V314.08Z"/>
  </g>
  <g id="tibia_droite">
    <path id="os_tibia_droite" fill="#262626" stroke="#000" stroke-dasharray="none" stroke-opacity="1" stroke-width=".4" d="M196 409a18 18 0 0 1 17.84 20.4v95.78h-36v-98.45h.16A18 18 0 0 1 196 409Z"/>
    <path id="chaussette_droite" fill="#fff" d="M211.09 525.38h-29.7v11h29.7v-11Z"/>
  </g>
  <g id="genou_droite">
    <path id="Ellipse 1" fill="#262626" d="M196 427.5a.5.5 0 1 0 0-1 .5.5 0 0 0 0 1Z"/>
  </g>
  <g id="hanche_droite">
    <circle id="Ellipse 4" cx="195.88" cy="329.23" r=".5" fill="#D9D9D9"/>
  </g>
  <g id="cuisse_gauche">
    <path id="path39" fill="#262626" stroke="#000" stroke-dasharray="none" stroke-opacity="1" stroke-width=".4" d="M235.5 426.93V314.08h36v112.85Z"/>
  </g>
  <g id="tibia_gauche">
    <path id="os_tibia_gauche" fill="#262626" stroke="#000" stroke-dasharray="none" stroke-opacity="1" stroke-width=".4" d="M253.58 409a18 18 0 0 1 17.84 20.4v95.78h-36v-98.45h.16a18 18 0 0 1 18-17.73Z"/>
    <path id="chaussette_gauche" fill="#fff" d="M268.67 525.38h-29.7v11h29.7v-11Z"/>
  </g>
  <g id="genou_gauche">
    <path id="Ellipse 1_2" fill="#262626" d="M254 427.5a.5.5 0 1 0 0-1 .5.5 0 0 0 0 1Z"/>
  </g>
  <g id="pied_droite">
    <path id="path1-5" fill="#000" d="m215.93 552.09-.07 8.24-25.7-.05v-4.57c-7.9 1.02-16.03 3.72-23.93 4.62-5.17.62-11.1.94-23.13-1.18a81.62 81.62 0 0 1-10.43-2.36c-6.35-1.94-12.55-3.89-14.85-5.83.26-1.1.34-2.59.87-3.18a57.38 57.38 0 0 0 10.66 4.4 86.24 86.24 0 0 0 20.1 4.5 61.07 61.07 0 0 0 19.32 0c14.77-3.22 19.72-4.07 21.88-4.18 8.5-.6 16.9-.32 25.28-.41Z"/>
    <path id="path2-3" fill="#1F1A1A" stroke="#000" stroke-width=".4" d="M215.56 552.1a58 58 0 0 0 .53-7.07c0-2.16-.5-4.52-1.06-7.27a55.7 55.7 0 0 0-2.5-9.12l-3.89 1.32c-3.78 1.4-7.56 2.85-11.3 3.2a16.2 16.2 0 0 1-7.3-.97 19.67 19.67 0 0 1-4.9-2.63 12.3 12.3 0 0 0-4.28-7.04l-3.55 2.17c-.46-.15-1.4-.07-2.8.25l-14.1 9.68-1.32 1.39a46.33 46.33 0 0 1-6.84 3.69 30.9 30.9 0 0 1-11.19 2.63c-3.74.02-7.18-1.13-11.1-1.14-2.92.13-5.23.69-6.89 1.67a7.52 7.52 0 0 0-2.72 2.55 6.3 6.3 0 0 0-1.02 2.72c1.74.98 3.48 1.68 5.18 2.37 2.27.88 4.76 1.7 7.18 2.47a74.1 74.1 0 0 0 8.73 2.32c.95.3 7.45 1.33 11 1.68 2.8.36 5.63.51 8.39.48 3.97.13 7.82-.6 10.77-1.06 4.76-1.05 9.49-2 14.32-3.06a83.52 83.52 0 0 1 16.52-1.1c4.73-.03 9.41-.13 14.14-.14Z"/>
    <path id="path7-5" stroke="#FDFBFE" stroke-opacity=".96" stroke-width=".1" d="M190.08 552.54a14.4 14.4 0 0 0-4.42-5.17 13.2 13.2 0 0 0-4.42-2.01c-2.08-.5-4.16-.58-6.05-.55-.6-.06-2.3.12-5.1.54m0 0-7.52.82a6.75 6.75 0 0 0-.83-2.7l-1.55-3.35c-.53-1.02-.91-2.19-.5-3.34.23-.65 2.73-2.86 3.44-3.35l10.06-6.85a6.81 6.81 0 0 1 2.15-.88 5.13 5.13 0 0 1 3.1.4c1.93.78 3.21 2.23 4.73 3.47a27.21 27.21 0 0 0 6.65 3.78c2.53 1.19 6 1.38 10.43.6a69.77 69.77 0 0 0 11.11-3.8m-41.27 15.2-.8-2.07a12.78 12.78 0 0 1-1.05-4.45c.22-1.44.8-2.62 1.74-3.54a29.34 29.34 0 0 1 4.76-3.45l4.27-2.38m32.35.69 1.51-.67m-1.5.67c.3.38.56 1.02.86 1.93m-33.22-2.62 2.72-1.15m-2.72 1.15 4.95 3.38a26.3 26.3 0 0 0 6.24 2.8c1.92.61 4.04.9 6.35.87a27.9 27.9 0 0 0 5.4-.76l6.01-1.87 4.27-1.8m0 0 1.36-.63m-1.36.63c.6 2.57.42 4.27-.5 5.09-1.7 1.53-1.73 1.04-6.38 3.53-2.42 1.3-3.66 3.97-4.16 6.04a14.2 14.2 0 0 0 .23 5.5"/>
  </g>
  <g id="pied_gauche">
    <path id="path75" fill="#000" d="m234.18 552.09.07 8.24 25.7-.05v-4.57c7.9 1.02 16.03 3.72 23.93 4.62 5.17.62 11.1.94 23.13-1.18a81.6 81.6 0 0 0 10.43-2.36c6.35-1.94 12.55-3.89 14.85-5.83-.26-1.1-.34-2.59-.87-3.18a57.38 57.38 0 0 1-10.66 4.4 86.24 86.24 0 0 1-20.1 4.5 61.07 61.07 0 0 1-19.32 0c-14.77-3.22-19.72-4.07-21.88-4.18-8.5-.6-16.9-.32-25.28-.41Z"/>
    <path id="path76" fill="#1F1A1A" stroke="#000" stroke-width=".4" d="M234.55 552.1a58 58 0 0 1-.53-7.07c0-2.16.5-4.52 1.06-7.27a55.8 55.8 0 0 1 2.5-9.12l3.89 1.32c3.78 1.4 7.56 2.85 11.3 3.2a16.2 16.2 0 0 0 7.3-.97c1.66-.6 3.32-1.48 4.9-2.63a12.3 12.3 0 0 1 4.28-7.04l3.55 2.17c.46-.15 1.4-.07 2.8.25l14.1 9.68 1.32 1.39a46.33 46.33 0 0 0 6.84 3.69 30.9 30.9 0 0 0 11.19 2.63c3.74.02 7.18-1.13 11.1-1.14 2.92.13 5.23.69 6.89 1.67a7.52 7.52 0 0 1 2.72 2.55c.49.83.94 1.7 1.02 2.72-1.74.98-3.48 1.68-5.18 2.37-2.27.88-4.76 1.7-7.18 2.47a74.1 74.1 0 0 1-8.73 2.32c-.94.3-7.45 1.33-11 1.68-2.8.36-5.63.51-8.39.48-3.97.13-7.82-.6-10.77-1.06-4.76-1.05-9.49-2-14.32-3.06a83.52 83.52 0 0 0-16.52-1.1c-4.73-.03-9.41-.13-14.14-.14Z"/>
    <path id="path77" stroke="#FDFBFE" stroke-opacity=".96" stroke-width=".1" d="M260.03 552.54a14.4 14.4 0 0 1 4.42-5.17c1.25-.9 2.72-1.57 4.42-2.01 2.08-.5 4.16-.58 6.05-.55.6-.06 2.3.12 5.1.54m0 0 7.52.82c.08-.97.38-1.87.83-2.7l1.55-3.35c.53-1.02.91-2.19.5-3.34-.23-.65-2.73-2.86-3.44-3.35l-10.06-6.85a6.81 6.81 0 0 0-2.15-.88 5.06 5.06 0 0 0-3.1.4c-1.93.78-3.21 2.23-4.73 3.47a27.21 27.21 0 0 1-6.65 3.78c-2.53 1.19-6 1.38-10.43.6a69.77 69.77 0 0 1-11.11-3.8m41.27 15.2.8-2.07c.64-1.49.98-2.97 1.05-4.45a6.14 6.14 0 0 0-1.74-3.54 29.34 29.34 0 0 0-4.76-3.45l-4.27-2.38m-32.35.69-1.51-.67m1.5.67c-.3.38-.56 1.02-.86 1.93m33.22-2.62-2.72-1.15m2.72 1.15-4.95 3.38a26.3 26.3 0 0 1-6.24 2.8c-1.92.61-4.04.9-6.35.87a27.29 27.29 0 0 1-5.4-.76l-6.01-1.87-4.27-1.8m0 0-1.36-.63m1.36.63c-.6 2.57-.42 4.27.5 5.09 1.7 1.53 1.73 1.04 6.38 3.53 2.42 1.3 3.66 3.97 4.16 6.04.3 1.63.18 3.83-.23 5.5"/>
  </g>
  <g id="torse">
    <path id="path55" fill="#332E2E" stroke="#00000F" stroke-width=".41" d="m248.4 320.21 5.43-63.49h-57.99l4.3 63.24s18.12 9.15 24.7 9.13c6.3-.02 23.57-8.88 23.57-8.88h-.01Z"/>
    <path id="path56" fill="#262626" stroke="#00000F" stroke-width=".41" d="m297.63 158.82-11.77-4.18-17.99-7.67-19.97-9.3-25.57 125.45 2.54 33.58s1.85 15.65 5.51 31.25c2.62 11.14 7.7 19.53 14.84 21.5 6.29 1.72 15.72-.15 22.89-1.67 8.4-1.78 15.96-4.88 15.96-4.88l-2.96-53.72 2.96-60.71 13.56-69.65Z"/>
    <path id="path57" fill="#262626" stroke="#00000F" stroke-width=".41" d="m151.93 158.82 11.77-4.18 17.99-7.67 19.97-9.3 25.57 125.47-2.39 13.44c1.27 9 .24 13.6-.14 20.14 0 0-1.85 15.66-5.52 31.26-2.62 11.14-7.7 19.53-14.84 21.5-6.29 1.72-15.72-.15-22.89-1.67a104.62 104.62 0 0 1-15.96-4.88l2.96-53.73-2.96-60.72-13.56-69.66Z"/>
    <path id="path58" fill="#fff" stroke="#00000F" stroke-width=".41" d="M249.28 206.63H200.4v-51.67h48.88v51.67Z"/>
    <path id="path59" fill="#A7A9AC" stroke="#00000F" stroke-width=".41" d="M248.83 135.53s-4.37 6.33-10.92 11.68a74.93 74.93 0 0 1-13.07 8.35c-1.23-.6-7.51-3.8-13.08-8.35-6.54-5.35-10.91-11.68-10.91-11.68s-1.6 11.42 0 23.36c1.27 9.46 5.43 23.37 5.43 23.37l18.56-26.27 18.55 26.27s4.17-13.9 5.44-23.37c1.6-11.94 0-23.36 0-23.36Z"/>
    <path id="path60" fill="#090A47" stroke="#00000F" stroke-width=".41" d="M231.14 154.96h-12.6l-4.28 7.95 6.6 12.81h7.95l6.6-12.8-4.27-7.96Z"/>
    <path id="path61" fill="#03466B" stroke="#00000F" stroke-width=".41" d="m233.15 167.3 2.26-4.39-4.27-7.95h-5.99l-.31.16-.32-.16h-5.99l-4.26 7.95 2.25 4.4 8.32-11.78 8.31 11.77Z"/>
    <path id="path62" fill="#090A47" stroke="#00000F" stroke-width=".41" d="M228.81 175.72h-7.95l-6.6 48.13h21.15l-6.6-48.13Z"/>
    <path id="path63" fill="#332E2E" stroke="#00000F" stroke-width=".41" d="m248.4 219.97 5.43-63.49-29 59.13-28.99-59.13 4.3 63.24 24.7 56.86 23.56-56.61Z"/>
    <path id="path64" fill="#414042" stroke="#00000F" stroke-width=".41" d="m224.98 276.58 24.58-128.63 20.57 20.18-7.76 3.88 10.48 11.26-47.87 93.31Z"/>
    <path id="path65" fill="#414042" stroke="#00000F" stroke-width=".41" d="M224.84 276.58 200.1 147.95l-20.57 20.18 7.77 3.88-10.48 11.26 48.02 93.31Z"/>
    <path id="path66" fill="#231F20" stroke="#00000F" stroke-width=".41" d="M227.75 229.47a2.93 2.93 0 1 1-5.84.34 2.93 2.93 0 0 1 5.84-.34Z"/>
    <path id="path67" fill="#231F20" stroke="#00000F" stroke-width=".41" d="M227.75 250.41a2.93 2.93 0 0 1-2.92 2.92 2.93 2.93 0 0 1-2.92-2.92 2.92 2.92 0 0 1 5.84 0Z"/>
    <path id="path68" fill="#fff" stroke="#00000F" stroke-width=".41" d="M248.83 135.53s-4.37 6.1-10.92 11.26a75.76 75.76 0 0 1-13.07 8.05c-4.62-2.23-9-4.93-13.08-8.05-6.54-5.16-10.91-11.26-10.91-11.26s-1.6 11 0 22.51c1.27 9.12 5.43 22.51 5.43 22.51l18.56-25.31 18.55 25.31s4.17-13.39 5.44-22.5c1.6-11.52 0-22.52 0-22.52Z"/>
    <path id="path69" fill="#414042" stroke="#00000F" stroke-width=".41" d="M256.32 219.88h22.86v6.15h-22.86v-6.15Z"/>
    <path id="path70" fill="#231F20" stroke="#00000F" stroke-width=".41" d="M227.9 288.1a2.93 2.93 0 0 1-2.92 2.92 2.93 2.93 0 0 1-2.92-2.92 2.92 2.92 0 0 1 5.83 0h.01Z"/>
  </g>
  <defs id="defs1">
    <clipPath id="clip0_12_2">
      <path id="rect1" fill="#fff" d="M0 0h450v561H0z"/>
    </clipPath>
  </defs>
  <g id="hanche_gauche">
    <circle id="hanche_g" cx="253.98" cy="329.23" r=".48" fill="#dd8f74" fill-opacity="0" stroke="none" stroke-dasharray="none" stroke-opacity="1" stroke-width=".03"/>
  </g>
  <g id="cheville_gauche" fill="#000" fill-opacity="0">
    <circle id="dz" cx="253.82" cy="525.38" r=".6" fill="#000" fill-opacity="0" stroke="none"/>
  </g>
  <g id="cheville_droite">
    <circle id="cheville_d" cx="196.24" cy="525.38" r=".6" fill="#000" fill-opacity="0" stroke="none"/>
  </g>
  <g id="poignet_gauche" fill="#000" fill-opacity="0" stroke="none" stroke-opacity="0">
    <circle id="path28" cx="406.77" cy="139.75" r=".6" fill="#000" fill-opacity="0" stroke="none" stroke-opacity="0"/>
  </g>
  <g id="poignet_droite" fill="#000" fill-opacity="0" stroke="none">
    <circle id="poignet_droite_dd" cx="43.02" cy="139.75" r=".6" fill="#000" fill-opacity="0" stroke="none"/>
  </g>
</svg>
