<svg width="213" height="556" viewBox="0 0 213 556" fill="none" xmlns="http://www.w3.org/2000/svg">
<g id="Group 1">
<g id="torse">
<path id="path55" d="M130.669 318.833L136.11 254.897H78.0004L82.3093 318.581C82.3093 318.581 100.467 327.795 107.06 327.775C113.373 327.755 130.679 318.833 130.679 318.833H130.669Z" fill="#332E2E" stroke="#00000F" stroke-width="0.405"/>
<path id="path8" fill-rule="evenodd" clip-rule="evenodd" d="M83.9927 129L83.8725 143.944C83.9226 147.157 85.3155 150.439 91.0072 152.302C91.0072 152.302 121.299 152.322 121.61 152.302C128.805 151.91 129.556 145.424 129.687 144.327C130.007 141.447 130.007 129.866 129.687 129" fill="#DD9974"/>
<path id="path56" d="M180 156.31L168.206 152.101L150.179 144.377L130.168 135.012L104.545 261.342L107.09 295.158C107.09 295.158 108.944 310.918 112.612 326.627C115.237 337.845 120.327 346.294 127.482 348.278C133.785 350.01 143.234 348.127 150.419 346.596C158.836 344.804 166.412 341.682 166.412 341.682L163.446 287.585L166.412 226.449L180 156.31Z" fill="#262626" stroke="#00000F" stroke-width="0.405"/>
<path id="path57" d="M34 156.31L45.7943 152.101L63.8213 144.377L83.8324 135.012L109.455 261.362L107.06 274.897C108.333 283.96 107.301 288.592 106.92 295.178C106.92 295.178 105.066 310.948 101.388 326.657C98.7631 337.875 93.6726 346.324 86.5179 348.308C80.215 350.04 70.7656 348.157 63.5808 346.626C58.1296 345.418 52.7786 343.777 47.5879 341.712L50.554 287.605L47.5879 226.459L34 156.31Z" fill="#262626" stroke="#00000F" stroke-width="0.405"/>
<path id="path58" d="M131.55 204.456H82.5698V152.423H131.55V204.456Z" fill="white" stroke="#00000F" stroke-width="0.405"/>
<path id="path59" d="M131.099 132.857C131.099 132.857 126.721 139.231 120.157 144.619C116.089 147.872 111.7 150.691 107.06 153.027C105.828 152.423 99.5347 149.201 93.9532 144.619C87.3997 139.231 83.0207 132.857 83.0207 132.857C83.0207 132.857 81.4174 144.357 83.0207 156.381C84.2933 165.907 88.4619 179.915 88.4619 179.915L107.06 153.46L125.648 179.915C125.648 179.915 129.827 165.917 131.099 156.381C132.703 144.357 131.099 132.857 131.099 132.857Z" fill="#A7A9AC" stroke="#00000F" stroke-width="0.405"/>
<path id="path60" d="M113.373 152.423H100.747L96.4583 160.429L103.072 173.329H111.038L117.652 160.439L113.373 152.423Z" fill="#090A47" stroke="#00000F" stroke-width="0.405"/>
<path id="path61" d="M115.387 164.85L117.652 160.429L113.373 152.423H107.371L107.06 152.584L106.739 152.423H100.737L96.4684 160.429L98.723 164.86L107.06 152.997L115.387 164.85Z" fill="#03466B" stroke="#00000F" stroke-width="0.405"/>
<path id="path62" d="M111.038 173.329H103.072L96.4583 221.797H117.652L111.038 173.329Z" fill="#090A47" stroke="#00000F" stroke-width="0.405"/>
<path id="path63" d="M130.669 217.889L136.11 153.954L107.05 213.499L78.0004 153.954L82.3093 217.638L107.06 274.897L130.669 217.889Z" fill="#332E2E" stroke="#00000F" stroke-width="0.405"/>
<path id="path64" d="M107.2 274.897L131.831 145.364L152.443 165.686L144.667 169.593L155.169 180.932L107.2 274.897Z" fill="#414042" stroke="#00000F" stroke-width="0.405"/>
<path id="path65" d="M107.06 274.897L82.2692 145.364L61.6568 165.686L69.4428 169.593L58.9413 180.932L107.06 274.897Z" fill="#414042" stroke="#00000F" stroke-width="0.405"/>
<path id="path66" d="M109.976 227.456C109.996 227.859 109.936 228.252 109.806 228.634C109.665 229.007 109.455 229.359 109.184 229.641C108.914 229.933 108.583 230.165 108.212 230.326C107.852 230.487 107.451 230.568 107.05 230.568C106.659 230.568 106.258 230.487 105.898 230.326C105.527 230.165 105.196 229.933 104.926 229.641C104.655 229.359 104.445 229.007 104.304 228.634C104.164 228.252 104.114 227.859 104.134 227.456C104.174 226.711 104.505 226.006 105.046 225.492C105.587 224.969 106.309 224.687 107.05 224.687C107.802 224.687 108.523 224.969 109.064 225.492C109.605 226.006 109.936 226.711 109.976 227.456Z" fill="#231F20" stroke="#00000F" stroke-width="0.405"/>
<path id="path67" d="M109.976 248.543C109.976 248.926 109.896 249.308 109.756 249.671C109.605 250.023 109.395 250.346 109.114 250.628C108.844 250.899 108.523 251.111 108.172 251.262C107.812 251.403 107.431 251.484 107.05 251.484C106.669 251.484 106.289 251.403 105.928 251.262C105.577 251.111 105.256 250.899 104.976 250.628C104.705 250.346 104.495 250.023 104.345 249.671C104.204 249.308 104.124 248.926 104.124 248.543C104.124 247.768 104.435 247.012 104.976 246.469C105.527 245.915 106.278 245.603 107.05 245.603C107.822 245.603 108.573 245.915 109.114 246.469C109.665 247.012 109.976 247.768 109.976 248.543Z" fill="#231F20" stroke="#00000F" stroke-width="0.405"/>
<path id="path68" d="M131.099 132.857C131.099 132.857 126.721 139 120.157 144.196C116.079 147.338 111.69 150.057 107.06 152.302C102.431 150.057 98.0316 147.338 93.9532 144.196C87.3997 139 83.0207 132.857 83.0207 132.857C83.0207 132.857 81.4174 143.934 83.0207 155.525C84.2933 164.709 88.4619 178.193 88.4619 178.193L107.06 152.705L125.648 178.193C125.648 178.193 129.827 164.709 131.099 155.535C132.703 143.934 131.099 132.857 131.099 132.857Z" fill="white" stroke="#00000F" stroke-width="0.405"/>
<path id="path69" d="M138.605 217.799H161.512V223.992H138.605V217.799Z" fill="#414042" stroke="#00000F" stroke-width="0.405"/>
<path id="path70" d="M110.126 286.497C110.126 286.88 110.046 287.263 109.906 287.625C109.756 287.978 109.545 288.3 109.275 288.582C108.994 288.854 108.673 289.065 108.323 289.216C107.962 289.357 107.581 289.438 107.2 289.438C106.82 289.438 106.439 289.357 106.078 289.216C105.727 289.065 105.407 288.854 105.136 288.582C104.856 288.3 104.645 287.978 104.495 287.625C104.355 287.263 104.274 286.88 104.274 286.497C104.314 285.752 104.645 285.047 105.186 284.534C105.727 284.01 106.449 283.728 107.2 283.728C107.942 283.728 108.663 284.01 109.205 284.534C109.746 285.047 110.076 285.752 110.116 286.497H110.126Z" fill="#231F20" stroke="#00000F" stroke-width="0.405"/>
</g>
<g id="poignet_gauche">
<path id="path28" d="M173.5 333C174.052 333 174.5 332.552 174.5 332C174.5 331.448 174.052 331 173.5 331C172.948 331 172.5 331.448 172.5 332C172.5 332.552 172.948 333 173.5 333Z" fill="white"/>
</g>
<g id="coude_gauche">
<path id="path29" d="M173.5 253C174.052 253 174.5 252.552 174.5 252C174.5 251.448 174.052 251 173.5 251C172.948 251 172.5 251.448 172.5 252C172.5 252.552 172.948 253 173.5 253Z" fill="#262626"/>
</g>
<g id="avant_bras_gauche">
<path id="path100" d="M173.5 237C165.5 237 158.5 244 158.5 252V326H188.5L188.5 252C188.5 244 181.5 237 173.5 237Z" fill="#262626"/>
<path id="path99" d="M160 331.959L160.002 326L187 326.041L186.998 332L160 331.959Z" fill="white"/>
</g>
<g id="haut_bras_gauche">
<path id="path100_2" d="M173.5 157C165.5 157 158.5 164 158.5 172V252H188.5L188.5 172C188.5 164 181.5 157 173.5 157Z" fill="#262626"/>
</g>
<g id="main_gauche">
<g id="Vector">
<path d="M184.82 391.815C185.538 391.378 185.898 390.962 186.152 390.481C186.411 389.95 186.541 389.355 186.788 388.462C186.918 386.747 186.979 385.014 186.965 383.29L186.982 381.78L187.018 377.002C187.043 374.424 187.081 371.85 187.102 369.286C187.128 367.192 187.165 365.116 187.25 363.023C187.28 362.116 187.281 361.677 187.222 361.295C187.179 360.939 187.069 360.61 186.844 359.92L186.737 359.635L187.04 359.599C187.657 359.508 187.981 359.449 188.34 359.472C188.818 359.519 189.276 359.613 189.732 359.742L189.814 359.764L189.881 359.841C190.532 360.608 191.058 361.459 191.441 362.382L191.707 362.943C193.098 365.593 194.227 367.228 196.854 368.598C199.048 369.098 200.854 368.586 202.871 367.56C203.204 367.056 203.338 366.829 203.418 366.586C203.506 366.339 203.517 366.079 203.548 365.472C202.975 363.32 202.046 361.87 200.652 360.077C198.063 356.572 195.715 352.905 193.583 349.113C191.765 346.063 189.794 343.01 186.529 341.534L186.515 341.531C185.149 340.784 184.947 339.654 184.551 338.369L184.546 338.36C184.316 337.362 184.154 336.381 184.01 335.391L183.656 332.939L183.527 332.055C176.888 332.055 170.265 332.045 163.623 332L163.793 333.114C164.014 334.477 164.156 335.203 164.072 335.898C164.011 336.591 163.768 337.251 163.295 338.471L163.273 338.553L163.212 338.588L162.783 338.905C162.5 339.115 162.215 339.302 161.914 339.499L161.475 339.799C159.283 341.284 158.611 343.6 157.962 346.134C157.33 349.501 157.305 352.818 157.28 356.274C157.254 362.189 156.568 368.081 155.235 373.851L155.09 374.42L154.83 375.551L154.446 377.124L154.303 377.657C154.038 378.618 153.941 379.61 154.036 380.594C154.125 381.489 154.402 382.369 154.877 383.411C155.101 383.639 155.341 383.836 155.623 383.984C155.913 384.106 156.222 384.181 156.539 384.23C156.968 384.213 157.385 384.156 157.804 384.042C158.116 383.942 158.423 383.754 159.085 383.36C160.876 380.201 161.573 376.589 162.294 372.997L162.897 370.062L163.155 368.77C163.274 368.216 163.319 367.913 163.439 367.602C163.559 367.29 163.715 366.98 164.034 366.392L164.51 366.556L163.349 373.046L162.944 375.243L162.556 377.372L162.18 379.46C161.911 380.955 161.645 382.413 161.349 383.901L161.078 385.212L160.864 386.282C160.702 387.68 161.023 389.077 161.784 390.254C162.279 390.592 162.488 390.714 162.73 390.793C163.099 390.892 163.496 390.94 163.877 390.94C164.381 390.833 164.883 390.682 165.363 390.474C165.711 390.296 166.045 390.034 166.752 389.499C168.346 385.461 168.799 380.846 169.575 376.53C170.091 373.622 170.796 370.744 171.694 367.939L172.176 368.054L171.969 369.455C171.62 371.851 171.302 374.24 170.988 376.638L170.768 378.335C170.529 380.182 170.317 382.014 170.104 383.845L169.854 385.653C169.492 388.806 169.33 391.105 170.691 393.922C171.268 394.362 171.522 394.562 171.8 394.702C172.067 394.825 172.34 394.898 172.945 395.046C173.536 394.889 174.069 394.593 174.529 394.189C174.919 393.825 175.231 393.345 175.663 392.633C176.424 390.693 176.865 388.637 176.973 386.542L177.123 385.243C177.731 379.396 178.226 373.533 178.729 367.665L179.222 367.658C179.58 370.419 179.782 373.189 179.9 375.973L179.941 377.023C180.023 378.465 180.079 379.922 180.13 381.371L180.282 384.574L180.365 386.478C180.528 388.081 180.788 389.351 181.422 390.809C181.906 391.188 182.436 391.506 183.018 391.713C183.514 391.853 184.05 391.902 184.82 391.815Z" fill="#DD9974"/>
<path d="M189.097 358.943L188.78 357.994C187.943 357.704 187.943 357.704 186.817 357.453L185.575 357.142L183.004 356.548C180.206 355.843 178.742 354.967 177.157 352.522C176.395 351.161 175.722 349.737 175.16 348.283L174.519 346.713L174.063 345.522L173.272 346.313C173.778 347.949 174.303 349.598 174.831 351.233L175.256 352.65L175.692 354.004L176.076 355.248C176.724 356.491 177.21 356.753 178.505 357.217C179.627 357.459 180.875 357.662 181.029 357.688C181.903 357.923 184.194 358.471 184.353 358.945C187.498 359.473 187.498 359.473 189.097 358.943Z" fill="#B67255"/>
<path d="M183.482 365.856C181.249 365.529 177.359 364.992 175.103 364.805C172.284 364.562 169.537 364.023 166.767 363.486C165.21 363.288 162.999 362.96 161.567 363.44C166.316 365.005 170.991 365.562 175.797 366.587C176.385 366.744 178.149 366.499 178.741 366.665C180.514 366.577 182.019 366.863 183.473 365.861L183.482 365.856Z" fill="#BB7859"/>
</g>
</g>
<g id="epaule_gauche">
<circle id="Ellipse 2" cx="173.5" cy="172" r="1" fill="#262626"/>
</g>
<g id="poignet_droite">
<path id="path28_2" d="M40.0479 333C39.4956 333 39.0479 332.552 39.0479 332C39.0479 331.448 39.4956 331 40.0479 331C40.6001 331 41.0479 331.448 41.0479 332C41.0479 332.552 40.6001 333 40.0479 333Z" fill="white"/>
</g>
<g id="coude_droite">
<path id="path29_2" d="M40.0479 253C39.4956 253 39.0479 252.552 39.0479 252C39.0479 251.448 39.4956 251 40.0479 251C40.6001 251 41.0479 251.448 41.0479 252C41.0479 252.552 40.6001 253 40.0479 253Z" fill="#262626"/>
</g>
<g id="avant_bras_droite">
<path id="path100_3" d="M40.0479 237C48.0479 237 55.0479 244 55.0479 252V326H25.0479L25.0478 252C25.0479 244 32.0479 237 40.0479 237Z" fill="#262626"/>
<path id="path99_2" d="M53.5479 331.959L53.5461 326L26.5479 326.041L26.5497 332L53.5479 331.959Z" fill="white"/>
</g>
<g id="haut_bras_droite">
<path id="path100_4" d="M40.0479 157C48.0479 157 55.0479 164 55.0479 172V252H25.0479L25.0478 172C25.0479 164 32.0479 157 40.0479 157Z" fill="#262626"/>
</g>
<g id="main_droite">
<g id="Vector_2">
<path d="M28.7275 391.815C28.01 391.378 27.6497 390.962 27.3963 390.481C27.137 389.95 27.0069 389.355 26.7603 388.462C26.6303 386.747 26.5685 385.014 26.5824 383.29L26.5656 381.78L26.5298 377.002C26.5053 374.424 26.4672 371.85 26.4463 369.286C26.4197 367.192 26.383 365.116 26.2981 363.023C26.2674 362.116 26.2668 361.677 26.3256 361.295C26.3693 360.939 26.4787 360.61 26.7038 359.92L26.8105 359.635L26.508 359.599C25.8907 359.508 25.5673 359.449 25.2074 359.472C24.7297 359.519 24.2716 359.613 23.8158 359.742L23.7338 359.764L23.6666 359.841C23.0157 360.608 22.4897 361.459 22.1073 362.382L21.8406 362.943C20.4495 365.593 19.3209 367.228 16.6939 368.598C14.5 369.098 12.6938 368.586 10.6766 367.56C10.344 367.056 10.2098 366.829 10.1302 366.586C10.042 366.339 10.0308 366.079 9.99999 365.472C10.5727 363.32 11.502 361.87 12.8954 360.077C15.4848 356.572 17.833 352.905 19.9647 349.113C21.783 346.063 23.7539 343.01 27.0189 341.534L27.0326 341.531C28.399 340.784 28.6013 339.654 28.9965 338.369L29.0015 338.36C29.2317 337.362 29.3936 336.381 29.5381 335.391L29.8914 332.939L30.0206 332.055C36.6602 332.055 43.2826 332.045 49.9249 332L49.7549 333.114C49.5343 334.477 49.3922 335.203 49.4759 335.898C49.5373 336.591 49.7799 337.251 50.2533 338.471L50.2752 338.553L50.3359 338.588L50.7649 338.905C51.048 339.115 51.3324 339.302 51.6342 339.499L52.0732 339.799C54.2645 341.284 54.9364 343.6 55.5862 346.134C56.2174 349.501 56.2424 352.818 56.2679 356.274C56.2937 362.189 56.9794 368.081 58.3132 373.851L58.4582 374.42L58.7174 375.551L59.1023 377.124L59.2451 377.657C59.5099 378.618 59.6072 379.61 59.5123 380.594C59.4227 381.489 59.1459 382.369 58.6712 383.411C58.4469 383.639 58.2067 383.836 57.9244 383.984C57.6349 384.106 57.3257 384.181 57.0092 384.23C56.5801 384.213 56.1624 384.156 55.7437 384.042C55.4315 383.942 55.1247 383.754 54.4629 383.36C52.6722 380.201 51.9751 376.589 51.2543 372.997L50.6509 370.062L50.3925 368.77C50.2734 368.216 50.2288 367.913 50.1087 367.602C49.9885 367.29 49.8324 366.98 49.5137 366.392L49.038 366.556L50.1986 373.046L50.6043 375.243L50.9918 377.372L51.3682 379.46C51.6369 380.955 51.9033 382.413 52.1993 383.901L52.4701 385.212L52.6836 386.282C52.8461 387.68 52.5248 389.077 51.7642 390.254C51.269 390.592 51.0601 390.714 50.8179 390.793C50.4491 390.892 50.0519 390.94 49.6711 390.94C49.1668 390.833 48.6651 390.682 48.1848 390.474C47.837 390.296 47.5033 390.034 46.7962 389.499C45.2017 385.461 44.7484 380.846 43.9726 376.53C43.4571 373.622 42.7518 370.744 41.8539 367.939L41.3721 368.054L41.5792 369.455C41.9282 371.851 42.2463 374.24 42.5594 376.638L42.78 378.335C43.0186 380.182 43.2313 382.014 43.4439 383.845L43.6938 385.653C44.0556 388.806 44.2178 391.105 42.857 393.922C42.2795 394.362 42.0255 394.562 41.7483 394.702C41.4811 394.825 41.2079 394.898 40.6032 395.046C40.0122 394.889 39.4789 394.593 39.0193 394.189C38.629 393.825 38.3173 393.345 37.8851 392.633C37.1235 390.693 36.6824 388.637 36.5751 386.542L36.4247 385.243C35.8169 379.396 35.322 373.533 34.8185 367.665L34.3261 367.658C33.9678 370.419 33.7656 373.189 33.6478 375.973L33.6072 377.023C33.5251 378.465 33.469 379.922 33.4179 381.371L33.266 384.574L33.1831 386.478C33.0196 388.081 32.7597 389.351 32.1256 390.809C31.6414 391.188 31.1116 391.506 30.5302 391.713C30.0334 391.853 29.4974 391.902 28.7275 391.815Z" fill="#DD9974"/>
<path d="M24.4507 358.943L24.7675 357.994C25.6048 357.704 25.6048 357.704 26.7309 357.453L27.9727 357.142L30.5441 356.548C33.3418 355.843 34.8056 354.967 36.3905 352.522C37.1532 351.161 37.8256 349.737 38.3877 348.283L39.0286 346.713L39.4853 345.522L40.2757 346.313C39.7698 347.949 39.2452 349.598 38.717 351.233L38.2914 352.65L37.8562 354.004L37.4723 355.248C36.8243 356.491 36.3382 356.753 35.0424 357.217C33.9213 357.459 32.6726 357.662 32.5186 357.688C31.6444 357.923 29.3535 358.471 29.1951 358.945C26.0497 359.473 26.0497 359.473 24.4507 358.943Z" fill="#B67255"/>
<path d="M30.0661 365.856C32.299 365.529 36.1886 364.992 38.4444 364.805C41.2636 364.562 44.0109 364.023 46.7805 363.486C48.3381 363.288 50.5486 362.96 51.9804 363.44C47.2315 365.005 42.5566 365.562 37.7506 366.587C37.1632 366.744 35.3993 366.499 34.8069 366.665C33.0335 366.577 31.529 366.863 30.0748 365.861L30.0661 365.856Z" fill="#BB7859"/>
</g>
</g>
<g id="epaule_droite">
<circle id="Ellipse 2_2" cx="1" cy="1" r="1" transform="matrix(-1 0 0 1 41.0479 171)" fill="#262626"/>
</g>
<g id="pied_gauche">
<path id="chaussette_gauche" d="M120 518H150V534H120V518Z" fill="white"/>
<path id="path1-5" d="M115.162 547.361L115.231 555.539L140.86 555.49V550.954C148.738 551.966 156.846 554.646 164.724 555.539C169.88 556.155 175.803 556.473 187.79 554.368C191.4 553.793 194.87 553.008 198.191 552.026C204.524 550.1 210.706 548.165 213 546.239C212.741 545.147 212.661 543.668 212.132 543.083C209.23 544.671 205.77 546.14 201.502 547.46C195.209 549.653 188.578 551.222 181.458 551.917C174.447 553.028 168.115 552.84 162.191 551.917C147.462 548.72 142.516 547.877 140.372 547.768C131.895 547.162 123.528 547.45 115.162 547.361Z" fill="black"/>
<path id="path2-3" d="M115.531 547.361C115.271 545.197 114.972 542.348 115.002 540.353C115.002 538.209 115.501 535.857 116.059 533.137C116.628 530.417 117.266 527.41 118.552 524.085L122.431 525.395C126.201 526.784 129.971 528.224 133.7 528.571C136.074 528.819 138.527 528.502 140.97 527.608C142.635 527.013 144.291 526.139 145.876 524.998C146.445 522.248 147.871 519.916 150.135 518L153.675 520.164C154.133 520.015 155.071 520.094 156.467 520.412L170.528 530.02L171.844 531.4C174.068 532.839 176.362 534.07 178.665 535.062C182.355 536.661 186.095 537.524 189.824 537.673C193.554 537.693 196.984 536.551 200.904 536.541C203.806 536.67 206.099 537.226 207.765 538.199C209.041 538.963 209.948 539.817 210.477 540.73C210.966 541.554 211.414 542.427 211.494 543.42C209.759 544.403 208.024 545.097 206.329 545.782C204.065 546.646 201.582 547.47 199.168 548.234C198.042 548.621 195.02 549.594 190.463 550.537C189.515 550.845 183.033 551.857 179.493 552.204C176.711 552.562 173.879 552.711 171.126 552.681C167.167 552.82 163.328 552.085 160.386 551.629C155.639 550.586 150.922 549.644 146.106 548.591C140.751 547.718 135.246 547.301 129.631 547.509C124.915 547.47 120.248 547.38 115.531 547.361Z" fill="#1F1A1A" stroke="black" stroke-width="0.399984"/>
<path id="path7-5" d="M140.94 547.807C141.618 546.328 143.234 544.194 145.348 542.676C146.594 541.782 148.06 541.117 149.756 540.681C151.83 540.184 153.904 540.105 155.789 540.135C156.387 540.075 158.082 540.254 160.875 540.671M160.875 540.671L168.374 541.485C168.454 540.522 168.753 539.628 169.202 538.805L170.747 535.479C171.276 534.467 171.655 533.306 171.236 532.164C171.017 531.519 168.523 529.325 167.815 528.839L157.783 522.04C157.554 521.891 156.507 521.305 155.639 521.176C154.542 520.978 153.525 521.117 152.548 521.573C150.623 522.338 149.347 523.777 147.831 525.008C146.066 526.417 143.882 527.668 141.199 528.76C138.676 529.941 135.206 530.129 130.798 529.355C127.557 528.591 123.867 527.33 119.719 525.583M160.875 540.671L161.663 538.616C162.311 537.137 162.65 535.668 162.72 534.199C162.5 532.77 161.932 531.598 160.984 530.685C159.518 529.375 157.933 528.243 156.238 527.261L151.979 524.898M119.719 525.583L118.213 524.918M119.719 525.583C119.42 525.961 119.151 526.596 118.851 527.499M151.979 524.898L149.267 523.757M151.979 524.898L147.043 528.253C145.348 529.325 143.274 530.258 140.82 531.033C138.906 531.638 136.792 531.926 134.488 531.896C132.613 531.817 130.838 531.559 129.103 531.142L123.11 529.286L118.851 527.499M118.851 527.499L117.495 526.874M118.851 527.499C118.253 530.05 118.433 531.737 119.34 532.551C121.035 534.07 121.075 533.584 125.712 536.055C128.126 537.336 129.362 539.996 129.861 542.06C130.16 543.668 130.05 545.852 129.631 547.509" stroke="#FDFBFE" stroke-opacity="0.95724" stroke-width="0.099998"/>
<path id="path22-2" d="M168.563 532.174L170.528 530.02M163.926 529.683L165.741 526.745M160.426 526.804L162.271 524.382M157.903 524.968L159.668 522.606M154.622 523.499L156.806 520.64" stroke="#FDFBFE" stroke-opacity="0.95724" stroke-width="0.49999"/>
</g>
<g id="genou_gauche">
<path id="Ellipse 1" d="M135 421C135.56 421 136 420.56 136 420C136 419.44 135.56 419 135 419C134.44 419 134 419.44 134 420C134 420.56 134.44 421 135 421Z" fill="#262626"/>
</g>
<g id="cuisse_gauche">
<path id="path39" d="M117 420V308H135H153V420H117Z" fill="#262626"/>
</g>
<g id="tibia_gauche">
<path id="os_tibia_gauche" d="M135.08 402C144.976 402 153 409.775 153 419.7V518H117V419.703C117.149 409.898 125.273 402 135.08 402Z" fill="#262626"/>
</g>
<g id="cheville_gauche">
<path id="path9" d="M135 519C135.552 519 136 518.552 136 518C136 517.448 135.552 517 135 517C134.448 517 134 517.448 134 518C134 518.552 134.448 519 135 519Z" fill="white"/>
</g>
<g id="hanche_gauche">
<path id="path27" d="M135 309C135.552 309 136 308.552 136 308C136 307.448 135.552 307 135 307C134.448 307 134 307.448 134 308C134 308.552 134.448 309 135 309Z" fill="#262626"/>
</g>
<g id="genou_droite">
<path id="Ellipse 1_2" d="M78 421C78.56 421 79 420.56 79 420C79 419.44 78.56 419 78 419C77.44 419 77 419.44 77 420C77 420.56 77.44 421 78 421Z" fill="#262626"/>
</g>
<g id="cuisse_droite">
<path id="path39_2" d="M60 420V308H78H96V420H60Z" fill="#262626"/>
</g>
<g id="tibia_droite">
<path id="os_tibia_gauche_2" d="M78.0796 402C87.9756 402 96 409.775 96 419.7V518H60V419.703C60.1493 409.898 68.2732 402 78.0796 402Z" fill="#262626"/>
</g>
<g id="cheville_droite">
<path id="path9_2" d="M78 519C78.5523 519 79 518.552 79 518C79 517.448 78.5523 517 78 517C77.4477 517 77 517.448 77 518C77 518.552 77.4477 519 78 519Z" fill="white"/>
</g>
<g id="hanche_droite">
<path id="path27_2" d="M78 309C78.5523 309 79 308.552 79 308C79 307.448 78.5523 307 78 307C77.4477 307 77 307.448 77 308C77 308.552 77.4477 309 78 309Z" fill="#262626"/>
</g>
<g id="pied_droite">
<path id="chaussette_droite" d="M93 518H63V534H93V518Z" fill="white"/>
<path id="path1-5_2" d="M97.8384 547.361L97.7686 555.539L72.1397 555.49V550.954C64.2616 551.966 56.1541 554.646 48.276 555.539C43.1203 556.155 37.1967 556.473 25.21 554.368C21.6 553.793 18.1297 553.008 14.8089 552.026C8.47647 550.1 2.29363 548.165 0 546.239C0.25928 545.147 0.339054 543.668 0.867586 543.083C3.76953 544.671 7.22993 546.14 11.4981 547.46C17.7906 549.653 24.4222 551.222 31.5424 551.917C38.553 553.028 44.8854 552.84 50.8089 551.917C65.538 548.72 70.4843 547.877 72.6284 547.768C81.1048 547.162 89.4716 547.45 97.8384 547.361Z" fill="black"/>
<path id="path2-3_2" d="M97.4694 547.361C97.7287 545.197 98.0278 542.348 97.9979 540.353C97.9979 538.209 97.4993 535.857 96.9409 533.137C96.3724 530.417 95.7342 527.41 94.4478 524.085L90.5686 525.395C86.799 526.784 83.0295 528.224 79.2998 528.571C76.9264 528.819 74.4732 528.502 72.03 527.608C70.3646 527.013 68.7092 526.139 67.1236 524.998C66.5552 522.248 65.1292 519.916 62.8654 518L59.3253 520.164C58.8666 520.015 57.9292 520.094 56.5331 520.412L42.4721 530.02L41.1557 531.4C38.9319 532.839 36.6383 534.07 34.3347 535.062C30.6449 536.661 26.9053 537.524 23.1756 537.673C19.446 537.693 16.0155 536.551 12.0964 536.541C9.19448 536.67 6.90084 537.226 5.23547 538.199C3.95901 538.963 3.05153 539.817 2.52299 540.73C2.03435 541.554 1.58558 542.427 1.5058 543.42C3.24098 544.403 4.97619 545.097 6.67148 545.782C8.9352 546.646 11.4183 547.47 13.8316 548.234C14.9585 548.621 17.9801 549.594 22.5374 550.537C23.4848 550.845 29.9668 551.857 33.507 552.204C36.2893 552.562 39.1214 552.711 41.8737 552.681C45.8327 552.82 49.6721 552.085 52.6139 551.629C57.3607 550.586 62.0776 549.644 66.8943 548.591C72.2494 547.718 77.7541 547.301 83.3686 547.509C88.0855 547.47 92.7525 547.38 97.4694 547.361Z" fill="#1F1A1A" stroke="black" stroke-width="0.399984"/>
<path id="path7-5_2" d="M72.0599 547.807C71.3818 546.328 69.7663 544.194 67.6522 542.676C66.4056 541.782 64.9397 541.117 63.2444 540.681C61.1702 540.184 59.0959 540.105 57.2112 540.135C56.6128 540.075 54.9175 540.254 52.1253 540.671M52.1253 540.671L44.6261 541.485C44.5463 540.522 44.2471 539.628 43.7984 538.805L42.2527 535.479C41.7242 534.467 41.3452 533.306 41.764 532.164C41.9834 531.519 44.4765 529.325 45.1845 528.839L55.2167 522.04C55.4461 521.891 56.4931 521.305 57.3607 521.176C58.4577 520.978 59.4749 521.117 60.4522 521.573C62.3768 522.338 63.6533 523.777 65.1691 525.008C66.9342 526.417 69.1181 527.668 71.8007 528.76C74.3236 529.941 77.794 530.129 82.2018 529.355C85.4428 528.591 89.1325 527.33 93.281 525.583M52.1253 540.671L51.3374 538.616C50.6892 537.137 50.3502 535.668 50.2804 534.199C50.4998 532.77 51.0682 531.598 52.0156 530.685C53.4815 529.375 55.0671 528.243 56.7624 527.261L61.0206 524.898M93.281 525.583L94.7868 524.918M93.281 525.583C93.5802 525.961 93.8494 526.596 94.1486 527.499M61.0206 524.898L63.7331 523.757M61.0206 524.898L65.9569 528.253C67.6522 529.325 69.7264 530.258 72.1796 531.033C74.0943 531.638 76.2084 531.926 78.512 531.896C80.3868 531.817 82.1619 531.559 83.8971 531.142L89.8904 529.286L94.1486 527.499M94.1486 527.499L95.5048 526.874M94.1486 527.499C94.747 530.05 94.5674 531.737 93.6599 532.551C91.9647 534.07 91.9248 533.584 87.2877 536.055C84.8744 537.336 83.6378 539.996 83.1392 542.06C82.84 543.668 82.9497 545.852 83.3685 547.509" stroke="#FDFBFE" stroke-opacity="0.95724" stroke-width="0.099998"/>
<path id="path22-2_2" d="M44.4366 532.174L42.4721 530.02M49.0737 529.683L47.2588 526.745M52.574 526.804L50.7292 524.382M55.097 524.968L53.3319 522.606M58.3779 523.499L56.194 520.64" stroke="#FDFBFE" stroke-opacity="0.95724" stroke-width="0.49999"/>
</g>
<g id="cou">
<circle id="Ellipse 3" cx="107" cy="138" r="1" fill="#DD9974"/>
</g>
<g id="tete">
<g id="criniere">
<path id="path1" d="M75.4514 12.0479C70.6993 12.6103 66.8413 16.5473 63.9277 18.9276C57.3872 24.5018 55.1769 30.1462 53.6096 32.9986C51.5902 36.7147 50.5353 41.3648 51.3892 47.7424C51.8514 51.2275 52.4643 56.0283 53.5493 60.0457C54.3832 63.129 55.2975 66.2425 56.8547 69.0346C58.7938 72.5097 60.0697 72.7005 61.0945 75.0808C62.8527 79.1785 62.9933 84.1099 65.6356 88.5491C66.6705 90.2766 66.359 84.0396 66.138 81.4483C65.937 78.827 65.8165 76.2157 65.7863 73.5943C65.706 69.4665 65.3242 65.3587 64.6511 61.2911C63.8172 56.5104 63.3249 52.8847 61.0643 48.5861C60.0697 46.7079 60.361 39.1753 63.3349 34.5252C66.8714 28.6899 70.7394 23.8389 75.793 19.5001C74.3362 16.708 75.7026 12.0177 75.4614 12.0479H75.4514Z" fill="#46301A" stroke="black" stroke-width="0.976271"/>
<path id="path2" d="M106.677 1C102.698 1 98.7198 1.45195 94.8317 2.20522C90.3508 3.08904 85.7092 4.18377 81.7306 6.57412C79.0682 8.17104 76.2551 10.1998 74.8887 13.0924C74.3864 14.1469 74.527 15.6434 74.7682 16.8888C74.8988 17.5918 75.0997 18.2848 75.3509 18.9577L75.4313 19.0984C75.4514 19.1586 75.4714 19.2289 75.4915 19.2691C75.592 19.3896 75.6824 19.4398 75.793 19.5001C76.024 19.6407 76.3355 19.7713 76.7374 19.9018C77.5411 20.1831 78.6663 20.4442 79.9121 20.6149C82.4037 20.9665 85.3676 20.9564 87.0354 19.4599C87.1057 19.3896 87.1559 19.3695 87.1659 19.3695L87.2765 19.49C87.4473 19.711 87.6683 20.2232 87.9496 20.8459C88.6328 22.5232 89.8585 23.9293 91.4358 24.8231C95.8062 27.1331 99.182 30.7589 103.582 31.9139C108.395 33.1793 112.836 34.726 118.512 34.0832C122.109 33.6815 125.736 34.0732 130.377 31.4217C133.984 29.3628 136.415 25.6266 137.782 23.8389C139.208 23.7384 140.484 24.562 141.881 25.8275C143.328 27.1432 144.855 28.9008 146.734 30.3671C149.858 32.7977 150.843 37.3273 152.209 41.2543C153.294 44.3778 152.531 47.7524 151.174 52.2017C149.898 56.4099 147.809 60.7587 148.2 65.3084C148.914 73.5742 147.567 81.8501 147.065 88.0268C146.824 88.1574 147.045 88.298 147.065 88.0268C146.643 89.7141 147.889 90.377 148.723 88.991C149.396 87.8862 151.968 82.9548 151.898 79.7409C151.878 78.0637 153.897 73.4336 155.213 71.9673C155.916 71.1839 156.79 70.4607 157.182 69.3861C159.443 63.1993 161.05 56.8016 161.985 50.2934C162.537 45.7337 162.517 40.8827 161.06 36.4836C159.453 31.6025 156.097 27.4445 152.792 23.6079C149.145 19.5101 144.985 15.8945 140.424 12.8413C135.501 9.46665 130.196 6.67456 124.631 4.50517C120.15 2.71743 115.438 1.59255 110.645 1.16068C109.319 1.05021 108.003 1 106.677 1Z" fill="#46301A"/>
<path id="path3" d="M147.065 88.0268C147.567 81.8501 148.924 73.5742 148.2 65.3084C147.809 60.7587 149.898 56.4099 151.174 52.2017C152.531 47.7625 153.294 44.3778 152.209 41.2543C150.843 37.3273 149.858 32.7977 146.744 30.3671C144.855 28.9008 143.328 27.1432 141.881 25.8275C140.484 24.562 139.198 23.7384 137.792 23.8389C136.415 25.6266 133.974 29.3628 130.377 31.4217C125.736 34.0732 122.109 33.6815 118.512 34.0832C112.846 34.726 108.395 33.1793 103.582 31.9139C99.182 30.7589 95.8062 27.1231 91.4358 24.8231C89.8585 23.9293 88.6328 22.5232 87.9496 20.8459C87.6683 20.2232 87.4473 19.711 87.2765 19.49C87.2162 19.3997 87.1659 19.3796 87.1659 19.3796C87.1559 19.3796 87.1057 19.3896 87.0354 19.47C85.3676 20.9464 82.4037 20.9665 79.9121 20.6149C78.8371 20.4743 77.7722 20.2333 76.7374 19.9018C76.4058 19.8014 76.0944 19.6708 75.793 19.5001C75.6824 19.4499 75.582 19.3695 75.4915 19.2691C75.4714 19.2289 75.4514 19.1586 75.4313 19.0984L75.3408 18.9577L75.16 18.4757C75.0294 18.0739 74.8787 17.5115 74.7682 16.8888C74.527 15.6434 74.3864 14.1469 74.8887 13.0924C76.2551 10.1998 79.0682 8.17104 81.7306 6.57412C85.7092 4.18377 90.3407 3.08904 94.8317 2.20522C98.7097 1.45195 102.698 1 106.667 1C108.003 1 109.329 1.06026 110.645 1.17074C115.448 1.60261 120.16 2.71743 124.631 4.50517C130.196 6.67456 135.501 9.46665 140.424 12.8413C144.985 15.8945 149.145 19.5101 152.792 23.6079C156.097 27.4445 159.453 31.6025 161.06 36.4836C162.517 40.8827 162.537 45.7337 161.985 50.2934C161.05 56.8016 159.443 63.1993 157.172 69.3861C156.79 70.4607 155.926 71.1839 155.213 71.9673C153.897 73.4336 151.878 78.0637 151.898 79.7409C151.968 82.9548 149.396 87.8862 148.723 88.991C147.889 90.377 146.643 89.7141 147.065 88.0268ZM147.065 88.0268C146.824 88.1574 147.045 88.298 147.065 88.0268Z" stroke="black" stroke-width="0.976271"/>
</g>
<g id="oreille_droite">
<path id="path4" fill-rule="evenodd" clip-rule="evenodd" d="M58.7435 71.8166L55.9505 70.4607C55.2774 70.3603 54.5841 70.4206 53.9411 70.6315C53.2881 70.8324 52.6953 71.1839 52.193 71.6559C50.6759 73.534 50.1233 74.7995 50.1635 76.6777C49.7617 80.2833 50.1032 83.9291 51.1581 87.3941C51.761 91.0399 53.3484 94.7359 55.9204 98.4921C57.1863 100.179 59.055 101.314 61.1347 101.656C63.3751 101.525 64.852 100.913 65.5753 99.8379L63.9277 84.7727C61.5164 75.7938 62.0489 77.1196 62.059 77.8327C62.7723 78.3248 61.0241 74.4781 58.7435 71.8166Z" fill="#DD9974" stroke="black" stroke-width="0.976271" stroke-miterlimit="3.2" stroke-linecap="round" stroke-linejoin="round"/>
<path id="path5" d="M53.1675 76.6074C53.3584 75.4925 53.7603 75.0104 54.3731 75.131C56.1816 74.9301 57.9498 77.4008 59.6678 82.5632C58.0905 83.4872 57.347 85.2247 57.2264 86.1487C57.136 90.0154 58.1608 91.5822 60.562 92.456" stroke="#4C3B2A" stroke-width="1.63019" stroke-miterlimit="3.2" stroke-linecap="round" stroke-linejoin="round"/>
</g>
<g id="oreille_gauche">
<path id="path6" fill-rule="evenodd" clip-rule="evenodd" d="M156.378 70.7721C158.82 69.5167 160.91 69.8481 162.025 71.7363C162.889 73.2227 164.526 75.0105 163.833 80.8859C163.753 87.0928 161.754 93.1088 158.097 98.1205C157.443 99.1349 156.559 99.9786 155.535 100.591C154.5 101.204 153.334 101.575 152.129 101.666C151.415 101.746 150.692 101.656 150.009 101.415C149.326 101.174 148.713 100.792 148.2 100.28L148.723 88.991L151.566 82.2217L152.199 78.1239L154.429 73.062L156.378 70.7721Z" fill="#DD9974" stroke="black" stroke-width="0.976271" stroke-miterlimit="3.2" stroke-linecap="round" stroke-linejoin="round"/>
<path id="path7" d="M152.752 92.7071C154.018 92.8075 155.203 91.6726 156.308 89.2923C156.589 88.4085 156.7 87.4845 156.61 86.5605C156.529 85.6365 156.248 84.7426 155.806 83.9291L154.249 82.6335C154.992 78.8772 156.66 76.286 159.232 74.8498C160.437 75.4323 160.89 76.0148 160.598 76.5974" stroke="#4C3B2A" stroke-width="1.63019" stroke-miterlimit="3.2" stroke-linecap="round" stroke-linejoin="round"/>
</g>
<g id="face">
<path id="path10" fill-rule="evenodd" clip-rule="evenodd" d="M64.7213 87.4845C65.1835 92.3455 65.3543 95.5293 65.8265 103.916C65.7361 109.088 67.0924 114.17 69.8854 119.131C73.4621 123.691 78.1339 127.92 83.9208 131.806C86.9047 133.865 89.6073 136.326 91.9281 139.108C96.409 141.669 101.483 143.005 106.637 142.965C112.273 143.156 116.473 142.573 119.225 141.207C119.517 140.906 123.073 139.359 126.349 135.583C127.223 134.578 127.745 134.147 130.076 132.369C135.049 128.683 138.937 125.449 141.7 122.657C144.654 119.594 146.573 115.687 147.206 111.488C148.08 102.7 148.502 97.5681 148.723 89.001L148.753 84.2605C148.602 75.9646 147.628 65.9211 149.547 57.0628C150.27 53.7384 152.219 50.655 152.46 47.18C152.601 45.2114 152.621 43.1927 152.209 41.2644C151.566 38.1007 150.35 35.0876 148.602 32.3859C146.854 29.7947 141.881 25.8376 141.881 25.8376C140.394 24.4214 139.028 23.7586 137.792 23.8489C137.792 23.8489 134.868 28.3585 132.678 29.7947C128.549 32.4863 123.425 33.6815 118.512 34.0933C114.122 34.4649 109.59 33.7418 105.391 32.406C101.282 31.02 97.4137 28.9812 93.9576 26.3498C91.3354 24.4214 90.0494 20.6852 87.0353 19.47C84.2825 18.3552 79.1687 17.9132 75.7929 19.5202C69.9055 22.2922 66.2485 28.72 63.3449 34.5453C61.4863 38.1609 60.5318 42.1884 60.572 46.256C60.7026 50.0725 63.1139 53.4672 63.9176 57.2034C64.862 61.5622 65.6657 70.4909 65.6657 70.4909C65.5753 70.4909 65.8767 77.8026 66.1379 81.4483C66.2685 83.5173 64.7213 87.4945 64.7213 87.4945V87.4845Z" fill="#DD9974" stroke="black" stroke-width="0.976271" stroke-miterlimit="3.2" stroke-linecap="round" stroke-linejoin="round"/>
<path id="path11" d="M101.744 69.0949C103.221 70.8726 102.779 71.8368 102.538 73.2027C101.613 78.3048 102.759 85.0239 101.211 88.9911C100.468 90.9094 97.2831 90.8089 96.8712 92.8478C96.5898 94.3041 96.188 96.1521 97.3233 96.8752C98.8404 97.8293 100.81 97.6485 101.854 98.5826C103.351 99.9485 105.13 101.505 107.149 101.545C108.244 101.515 109.309 101.244 110.294 100.762C111.268 100.28 112.132 99.5869 112.826 98.7433C113.82 97.2066 116.543 97.4778 117.568 95.9713C118.472 94.6455 117.266 93.1491 116.754 91.7128C116.292 90.3971 114.513 89.3828 114.242 88.9911" stroke="black" stroke-width="0.976271" stroke-miterlimit="3.2" stroke-linecap="round" stroke-linejoin="round"/>
</g>
<g id="bouche">
<path id="path14" fill-rule="evenodd" clip-rule="evenodd" d="M107.993 111.669C116.553 111.75 126.128 112.292 126.128 114.923C126.128 117.806 116.623 124.766 107.591 124.766C98.549 124.766 88.6227 118.117 88.6227 115.235C88.6227 111.247 104.698 111.639 107.993 111.669Z" fill="#52110F"/>
<path id="path15" fill-rule="evenodd" clip-rule="evenodd" d="M117.759 122.255C114.584 123.812 111.118 124.665 107.591 124.756C103.834 124.756 99.9254 123.621 96.6401 122.074C99.1418 121.271 102.809 120.779 106.918 120.779C111.349 120.779 115.267 121.351 117.759 122.255Z" fill="white"/>
<path id="path16" fill-rule="evenodd" clip-rule="evenodd" d="M107.993 111.669C112.434 111.709 117.156 111.88 120.672 112.392C119.718 114.23 114.132 115.646 107.38 115.646C100.538 115.646 94.902 114.19 94.0581 112.312C99.0514 111.498 105.954 111.659 107.993 111.669Z" fill="white"/>
<path id="path17" fill-rule="evenodd" clip-rule="evenodd" d="M101.603 119.091H113.167C113.458 119.091 113.75 119.162 114.021 119.292C114.282 119.423 114.513 119.614 114.704 119.845C114.885 120.076 115.006 120.347 115.066 120.638C115.126 120.929 115.126 121.231 115.056 121.512C112.785 121.05 109.962 120.779 106.918 120.779C104.256 120.779 101.774 120.98 99.6742 121.351L99.6441 121.05C99.6441 119.975 100.528 119.091 101.593 119.091H101.603Z" fill="#E8645F"/>
<path id="path18" fill-rule="evenodd" clip-rule="evenodd" d="M116.814 126.895C110.193 129.948 103.723 130.22 97.4338 126.986C103.854 128 110.404 127.97 116.814 126.895Z" fill="#DBAC93"/>
</g>
<g id="oeil_gauche">
<path id="path12" d="M140.505 69.3962C141.268 67.8896 139.661 65.8106 138.797 64.3945C137.38 62.0443 134.898 60.2566 132.326 59.3326C129.855 58.4186 127.052 58.7601 124.44 59.0514C122.722 59.2221 121.014 59.6239 119.436 60.3068C118.14 60.8592 116.794 61.492 115.89 62.5666C115.166 63.4203 114.172 65.3085 114.684 66.3028C115.086 67.1063 116.382 66.6744 117.206 66.3028C118.381 65.7705 123.636 63.5308 125.143 63.9727C127.444 63.6513 129.775 63.7417 132.045 64.2439C132.045 64.2439 135.491 65.67 136.968 66.7849C137.842 67.4477 138.244 68.6831 139.229 69.1752C139.701 69.4263 140.243 69.8682 140.494 69.3962H140.505Z" fill="#4C3B2A" stroke="#503C2C" stroke-width="0.110521" stroke-miterlimit="3.2" stroke-linecap="round" stroke-linejoin="round"/>
<path id="path19" d="M134.235 75.0005C134.195 76.2157 133.08 77.2201 132.156 78.0034C130.85 79.1283 129.252 79.8715 127.554 80.1628C125.384 80.4842 122.933 80.3034 121.014 79.2388C119.346 78.2947 117.568 76.6878 117.347 74.7795C117.166 73.1625 118.301 71.4953 119.507 70.4005C121.174 68.894 123.355 68.0704 125.615 68.1006C127.916 68.201 130.156 69.4966 131.864 71.0433C133.01 72.0778 134.286 73.4538 134.235 75.0005Z" fill="#F4E3D7" fill-opacity="0.91" stroke="black" stroke-width="0.976271" stroke-miterlimit="3.2" stroke-linecap="round" stroke-linejoin="round"/>
<path id="path20" d="M125.434 78.3349C124.882 78.365 124.329 78.2746 123.807 78.0838C123.284 77.893 122.812 77.5917 122.41 77.21C122.008 76.8284 121.697 76.3664 121.476 75.8541C121.255 75.352 121.144 74.7996 121.144 74.2472C121.144 73.6848 121.255 73.1424 121.476 72.6302C121.697 72.118 122.008 71.656 122.41 71.2743C122.812 70.8927 123.284 70.6014 123.807 70.4005C124.329 70.2097 124.882 70.1193 125.434 70.1495C126.489 70.1997 127.484 70.6516 128.207 71.4149C128.931 72.1782 129.343 73.1926 129.343 74.2472C129.343 75.2917 128.931 76.3061 128.207 77.0694C127.484 77.8327 126.489 78.2847 125.434 78.3349Z" fill="#6C6753" fill-opacity="0.91" stroke="black" stroke-width="0.994691" stroke-miterlimit="3.2" stroke-linecap="round" stroke-linejoin="round"/>
<path id="path21" d="M125.495 75.8843C125.927 75.8843 126.339 75.7136 126.65 75.4022C126.961 75.1009 127.132 74.6791 127.132 74.2472C127.132 73.8154 126.961 73.3935 126.65 73.0922C126.339 72.7808 125.927 72.6101 125.495 72.6101C125.053 72.6101 124.641 72.7808 124.339 73.0922C124.028 73.3935 123.857 73.8154 123.857 74.2472C123.857 74.6791 124.028 75.1009 124.339 75.4022C124.641 75.7136 125.053 75.8843 125.495 75.8843Z" fill="#241C1C" fill-opacity="0.91" stroke="black" stroke-width="0.976271" stroke-miterlimit="3.2" stroke-linecap="round" stroke-linejoin="round"/>
<path id="path22" d="M135.14 75.0607C135.109 74.428 134.436 73.4939 134.014 72.7507C133.723 72.2586 133.401 71.7966 133.06 71.3446C132.718 70.8826 132.387 70.4206 131.975 70.0189C131.452 69.5268 130.87 69.0849 130.237 68.7233C128.9 67.97 127.444 67.4377 125.927 67.1766C124.641 67.026 123.345 67.1866 122.129 67.6386C121.586 67.8194 121.034 68.0002 120.541 68.3015C119.878 68.7032 119.306 69.2757 118.743 69.8482C118.221 70.3403 117.748 70.9027 117.357 71.5154C116.854 72.2988 116.503 73.1726 116.352 74.0966" stroke="#503C2C" stroke-width="1.63019" stroke-miterlimit="3.2" stroke-linecap="round" stroke-linejoin="round"/>
</g>
<g id="oeil_droite">
<path id="path26" d="M79.0381 74.4983C79.0782 73.9158 79.7413 73.0319 80.1734 72.349C80.4446 71.887 80.7762 71.4652 81.1278 71.0433C81.4694 70.6215 81.8009 70.1796 82.2028 69.818C82.7353 69.356 83.3281 68.9442 83.9409 68.6128C85.2972 67.8997 86.754 67.4176 88.2611 67.1766C89.537 67.036 90.833 67.1766 92.0487 67.5984C92.6013 67.7591 93.1538 67.9298 93.6461 68.2211C94.3092 68.5927 94.8819 69.125 95.4345 69.6473C95.967 70.1093 96.4291 70.6215 96.831 71.194C97.2831 71.9372 97.8055 72.9516 97.8357 73.6044" stroke="#503C2C" stroke-width="1.63019" stroke-miterlimit="3.2" stroke-linecap="round" stroke-linejoin="round"/>
<path id="path13" d="M74.0448 69.3962C73.2812 67.8896 74.8787 65.8106 75.7427 64.3945C77.2799 62.0343 79.5505 60.2566 82.2129 59.3326C84.6944 58.4186 87.4875 58.7601 90.1097 59.0514C91.8176 59.2221 93.5357 59.6239 95.103 60.3068C96.399 60.8592 97.7553 61.492 98.6495 62.5666C99.3829 63.4203 100.367 65.3085 99.8551 66.3028C99.4633 67.1063 98.1572 66.6744 97.3334 66.3028C96.1579 65.7705 90.9034 63.5308 89.4064 63.9727C87.1057 63.6513 84.7648 63.7417 82.5042 64.2439C82.5042 64.2439 79.0481 65.67 77.5712 66.7849C76.6972 67.4477 76.2953 68.6831 75.3208 69.1752C74.8285 69.4263 74.306 69.8682 74.0448 69.3962Z" fill="#4C3B2A" stroke="#503C2C" stroke-width="0.110521" stroke-miterlimit="3.2" stroke-linecap="round" stroke-linejoin="round"/>
<path id="path23" fill-rule="evenodd" clip-rule="evenodd" d="M79.9423 74.9904C79.9724 76.2057 81.0977 77.2201 82.022 78.0034C83.328 79.1283 84.9155 79.8715 86.6234 80.1628C88.7935 80.4842 91.2449 80.3034 93.1639 79.2388C94.8317 78.2947 96.5999 76.6777 96.831 74.7795C97.0118 73.1524 95.8765 71.4952 94.6709 70.3905C92.9931 68.8839 90.8129 68.0604 88.5625 68.1005C86.2617 68.1909 84.0213 69.4966 82.3033 71.0333C81.168 72.0778 79.892 73.4537 79.9423 74.9904Z" fill="#F4E3D7" fill-opacity="0.91" stroke="black" stroke-width="0.976271" stroke-miterlimit="3.2" stroke-linecap="round" stroke-linejoin="round"/>
<path id="path24" d="M88.7433 78.3449C89.8284 78.3449 90.8732 77.913 91.6368 77.1497C92.4004 76.3764 92.8324 75.3319 92.8324 74.2472C92.8324 73.1625 92.4004 72.1179 91.6368 71.3546C90.8732 70.5813 89.8284 70.1494 88.7433 70.1494C87.6482 70.1494 86.6134 70.5813 85.8398 71.3546C85.0662 72.1179 84.6442 73.1625 84.6442 74.2472C84.6442 75.3319 85.0662 76.3764 85.8398 77.1497C86.6134 77.913 87.6482 78.3449 88.7433 78.3449Z" fill="#6C6753" stroke="black" stroke-width="0.994691" stroke-miterlimit="3.2" stroke-linecap="round" stroke-linejoin="round"/>
<path id="path25" d="M88.7433 75.8843C89.1753 75.8843 89.5872 75.7136 89.8987 75.4022C90.2001 75.1009 90.3809 74.6791 90.3809 74.2472C90.3809 73.8154 90.2001 73.3935 89.8987 73.0922C89.5872 72.7808 89.1753 72.6101 88.7433 72.6101C88.3012 72.6101 87.8893 72.7808 87.5779 73.0922C87.2764 73.3935 87.1057 73.8154 87.1057 74.2472C87.1057 74.6791 87.2764 75.1009 87.5779 75.4022C87.8893 75.7136 88.3012 75.8843 88.7433 75.8843Z" fill="#241C1C" fill-opacity="0.91" stroke="black" stroke-width="0.976271" stroke-miterlimit="3.2" stroke-linecap="round" stroke-linejoin="round"/>
</g>
</g>
</g>
</svg>
