<?xml version="1.0" encoding="UTF-8" standalone="no"?>
<svg
   width="448.33"
   height="559.82"
   viewBox="0 0 448.33 559.82"
   fill="none"
   version="1.1"
   id="manu"
   sodipodi:docname="wesh.svg"
   inkscape:version="1.4.2 (ebf0e940d0, 2025-05-08)"
   xmlns:inkscape="http://www.inkscape.org/namespaces/inkscape"
   xmlns:sodipodi="http://sodipodi.sourceforge.net/DTD/sodipodi-0.dtd"
   xmlns="http://www.w3.org/2000/svg"
   xmlns:svg="http://www.w3.org/2000/svg">
  <sodipodi:namedview
     id="namedview1"
     pagecolor="#505050"
     bordercolor="#eeeeee"
     borderopacity="1"
     inkscape:showpageshadow="0"
     inkscape:pageopacity="0"
     inkscape:pagecheckerboard="0"
     inkscape:deskcolor="#505050"
     showgrid="false"
     inkscape:zoom="4.15"
     inkscape:cx="255"
     inkscape:cy="535"
     inkscape:window-width="1546"
     inkscape:window-height="503"
     inkscape:window-x="-11"
     inkscape:window-y="42"
     inkscape:window-maximized="0"
     inkscape:current-layer="manu" />
  <defs
     id="defs1" />
  <g
     id="tete"
     transform="translate(-254.73,-209.98)">
    <path
       id="path8"
       fill-rule="evenodd"
       clip-rule="evenodd"
       d="M 455.82,340.7 455.7,355.54 C 455.75,358.73 457.14,361.99 462.82,363.84 462.82,363.84 493.05,363.86 493.36,363.84 500.54,363.45 501.29,357.01 501.42,355.92 501.74,353.06 501.74,341.56 501.42,340.7"
       fill="#dd9974" />
    <g
       id="criniere">
      <path
         id="path1"
         d="M 447.39,221.46 C 442.66,222.02 438.82,225.94 435.92,228.31 429.41,233.86 427.21,239.48 425.65,242.32 423.64,246.02 422.59,250.65 423.44,257 423.9,260.47 424.51,265.25 425.59,269.25 426.42,272.32 427.33,275.42 428.88,278.2 430.81,281.66 432.08,281.85 433.1,284.22 434.85,288.3 434.99,293.21 437.62,297.63 438.65,299.35 438.34,293.14 438.12,290.56 437.92,287.95 437.8,285.35 437.77,282.74 437.69,278.63 437.31,274.54 436.64,270.49 435.81,265.73 435.32,262.12 433.07,257.84 432.08,255.97 432.37,248.47 435.33,243.84 438.85,238.03 442.7,233.2 447.73,228.88 446.28,226.1 447.64,221.43 447.4,221.46 Z"
         fill="#46301a"
         stroke="black"
         stroke-width="0.976271" />
      <path
         id="path2"
         d="M 478.47,210.46 C 474.51,210.46 470.55,210.91 466.68,211.66 462.22,212.54 457.6,213.63 453.64,216.01 450.99,217.6 448.19,219.62 446.83,222.5 446.33,223.55 446.47,225.04 446.71,226.28 446.84,226.98 447.04,227.67 447.29,228.34 L 447.37,228.48 C 447.39,228.54 447.41,228.61 447.43,228.65 447.53,228.77 447.62,228.82 447.73,228.88 447.96,229.02 448.27,229.15 448.67,229.28 449.47,229.56 450.59,229.82 451.83,229.99 454.31,230.34 457.26,230.33 458.92,228.84 458.99,228.77 459.04,228.75 459.05,228.75 L 459.16,228.87 C 459.33,229.09 459.55,229.6 459.83,230.22 460.51,231.89 461.73,233.29 463.3,234.18 467.65,236.48 471.01,240.09 475.39,241.24 480.18,242.5 484.6,244.04 490.25,243.4 493.83,243 497.44,243.39 502.06,240.75 505.65,238.7 508.07,234.98 509.43,233.2 510.85,233.1 512.12,233.92 513.51,235.18 514.95,236.49 516.47,238.24 518.34,239.7 521.45,242.12 522.43,246.63 523.79,250.54 524.87,253.65 524.11,257.01 522.76,261.44 521.49,265.63 519.41,269.96 519.8,274.49 520.51,282.72 519.17,290.96 518.67,297.11 518.43,297.24 518.65,297.38 518.67,297.11 518.25,298.79 519.49,299.45 520.32,298.07 520.99,296.97 523.55,292.06 523.48,288.86 523.46,287.19 525.47,282.58 526.78,281.12 527.48,280.34 528.35,279.62 528.74,278.55 530.99,272.39 532.59,266.02 533.52,259.54 534.07,255 534.05,250.17 532.6,245.79 531,240.93 527.66,236.79 524.37,232.97 520.74,228.89 516.6,225.29 512.06,222.25 507.16,218.89 501.88,216.11 496.34,213.95 491.88,212.17 487.19,211.05 482.42,210.62 481.1,210.51 479.79,210.46 478.47,210.46 Z"
         fill="#46301a" />
      <path
         id="path3"
         d="M 518.67,297.11 C 519.17,290.96 520.52,282.72 519.8,274.49 519.41,269.96 521.49,265.63 522.76,261.44 524.11,257.02 524.87,253.65 523.79,250.54 522.43,246.63 521.45,242.12 518.35,239.7 516.47,238.24 514.95,236.49 513.51,235.18 512.12,233.92 510.84,233.1 509.44,233.2 508.07,234.98 505.64,238.7 502.06,240.75 497.44,243.39 493.83,243 490.25,243.4 484.61,244.04 480.18,242.5 475.39,241.24 471.01,240.09 467.65,236.47 463.3,234.18 461.73,233.29 460.51,231.89 459.83,230.22 459.55,229.6 459.33,229.09 459.16,228.87 459.1,228.78 459.05,228.76 459.05,228.76 459.04,228.76 458.99,228.77 458.92,228.85 457.26,230.32 454.31,230.34 451.83,229.99 450.76,229.85 449.7,229.61 448.67,229.28 448.34,229.18 448.03,229.05 447.73,228.88 447.62,228.83 447.52,228.75 447.43,228.65 447.41,228.61 447.39,228.54 447.37,228.48 L 447.28,228.34 447.1,227.86 C 446.97,227.46 446.82,226.9 446.71,226.28 446.47,225.04 446.33,223.55 446.83,222.5 448.19,219.62 450.99,217.6 453.64,216.01 457.6,213.63 462.21,212.54 466.68,211.66 470.54,210.91 474.51,210.46 478.46,210.46 479.79,210.46 481.11,210.52 482.42,210.63 487.2,211.06 491.89,212.17 496.34,213.95 501.88,216.11 507.16,218.89 512.06,222.25 516.6,225.29 520.74,228.89 524.37,232.97 527.66,236.79 531,240.93 532.6,245.79 534.05,250.17 534.07,255 533.52,259.54 532.59,266.02 530.99,272.39 528.73,278.55 528.35,279.62 527.49,280.34 526.78,281.12 525.47,282.58 523.46,287.19 523.48,288.86 523.55,292.06 520.99,296.97 520.32,298.07 519.49,299.45 518.25,298.79 518.67,297.11 Z M 518.67,297.11 C 518.43,297.24 518.65,297.38 518.67,297.11 Z"
         stroke="black"
         stroke-width="0.976271" />
    </g>
    <g
       id="oreille_droite">
      <path
         id="path4"
         fill-rule="evenodd"
         clip-rule="evenodd"
         d="M 430.76,280.97 427.98,279.62 C 427.31,279.52 426.62,279.58 425.98,279.79 425.33,279.99 424.74,280.34 424.24,280.81 422.73,282.68 422.18,283.94 422.22,285.81 421.82,289.4 422.16,293.03 423.21,296.48 423.81,300.11 425.39,303.79 427.95,307.53 429.21,309.21 431.07,310.34 433.14,310.68 435.37,310.55 436.84,309.94 437.56,308.87 L 435.92,293.87 C 433.52,284.93 434.05,286.25 434.06,286.96 434.77,287.45 433.03,283.62 430.76,280.97 Z"
         fill="#dd9974"
         stroke="black"
         stroke-width="0.976271"
         stroke-miterlimit="3.2"
         stroke-linecap="round"
         stroke-linejoin="round" />
      <path
         id="path5"
         d="M 425.21,285.74 C 425.4,284.63 425.8,284.15 426.41,284.27 428.21,284.07 429.97,286.53 431.68,291.67 430.11,292.59 429.37,294.32 429.25,295.24 429.16,299.09 430.18,300.65 432.57,301.52"
         stroke="#4c3b2a"
         stroke-width="1.63019"
         stroke-miterlimit="3.2"
         stroke-linecap="round"
         stroke-linejoin="round" />
    </g>
    <g
       id="oreille_gauche">
      <path
         id="path6"
         fill-rule="evenodd"
         clip-rule="evenodd"
         d="M 527.94,279.93 C 530.37,278.68 532.45,279.01 533.56,280.89 534.42,282.37 536.05,284.15 535.36,290 535.28,296.18 533.29,302.17 529.65,307.16 529,308.17 528.12,309.01 527.1,309.62 526.07,310.23 524.91,310.6 523.71,310.69 523,310.77 522.28,310.68 521.6,310.44 520.92,310.2 520.31,309.82 519.8,309.31 L 520.32,298.07 523.15,291.33 523.78,287.25 526,282.21 Z"
         fill="#dd9974"
         stroke="black"
         stroke-width="0.976271"
         stroke-miterlimit="3.2"
         stroke-linecap="round"
         stroke-linejoin="round" />
      <path
         id="path7"
         d="M 524.33,301.77 C 525.59,301.87 526.77,300.74 527.87,298.37 528.15,297.49 528.26,296.57 528.17,295.65 528.09,294.73 527.81,293.84 527.37,293.03 L 525.82,291.74 C 526.56,288 528.22,285.42 530.78,283.99 531.98,284.57 532.43,285.15 532.14,285.73"
         stroke="#4c3b2a"
         stroke-width="1.63019"
         stroke-miterlimit="3.2"
         stroke-linecap="round"
         stroke-linejoin="round" />
    </g>
    <g
       id="face">
      <path
         id="path10"
         fill-rule="evenodd"
         clip-rule="evenodd"
         d="M 436.71,296.57 C 437.17,301.41 437.34,304.58 437.81,312.93 437.72,318.08 439.07,323.14 441.85,328.08 445.41,332.62 450.06,336.83 455.82,340.7 458.79,342.75 461.48,345.2 463.79,347.97 468.25,350.52 473.3,351.85 478.43,351.81 484.04,352 488.22,351.42 490.96,350.06 491.25,349.76 494.79,348.22 498.05,344.46 498.92,343.46 499.44,343.03 501.76,341.26 506.71,337.59 510.58,334.37 513.33,331.59 516.27,328.54 518.18,324.65 518.81,320.47 519.68,311.72 520.1,306.61 520.32,298.08 L 520.35,293.36 C 520.2,285.1 519.23,275.1 521.14,266.28 521.86,262.97 523.8,259.9 524.04,256.44 524.18,254.48 524.2,252.47 523.79,250.55 523.15,247.4 521.94,244.4 520.2,241.71 518.46,239.13 513.51,235.19 513.51,235.19 512.03,233.78 510.67,233.12 509.44,233.21 509.44,233.21 506.53,237.7 504.35,239.13 500.24,241.81 495.14,243 490.25,243.41 485.88,243.78 481.37,243.06 477.19,241.73 473.1,240.35 469.25,238.32 465.81,235.7 463.2,233.78 461.92,230.06 458.92,228.85 456.18,227.74 451.09,227.3 447.73,228.9 441.87,231.66 438.23,238.06 435.34,243.86 433.49,247.46 432.54,251.47 432.58,255.52 432.71,259.32 435.11,262.7 435.91,266.42 436.85,270.76 437.65,279.65 437.65,279.65 437.56,279.65 437.86,286.93 438.12,290.56 438.25,292.62 436.71,296.58 436.71,296.58 Z"
         fill="#dd9974"
         stroke="black"
         stroke-width="0.976271"
         stroke-miterlimit="3.2"
         stroke-linecap="round"
         stroke-linejoin="round" />
      <path
         id="path11"
         d="M 473.56,278.26 C 475.03,280.03 474.59,280.99 474.35,282.35 473.43,287.43 474.57,294.12 473.03,298.07 472.29,299.98 469.12,299.88 468.71,301.91 468.43,303.36 468.03,305.2 469.16,305.92 470.67,306.87 472.63,306.69 473.67,307.62 475.16,308.98 476.93,310.53 478.94,310.57 480.03,310.54 481.09,310.27 482.07,309.79 483.04,309.31 483.9,308.62 484.59,307.78 485.58,306.25 488.29,306.52 489.31,305.02 490.21,303.7 489.01,302.21 488.5,300.78 488.04,299.47 486.27,298.46 486,298.07"
         stroke="black"
         stroke-width="0.976271"
         stroke-miterlimit="3.2"
         stroke-linecap="round"
         stroke-linejoin="round" />
    </g>
    <g
       id="bouche">
      <path
         id="path14"
         fill-rule="evenodd"
         clip-rule="evenodd"
         d="M 479.78,320.65 C 488.3,320.73 497.83,321.27 497.83,323.89 497.83,326.76 488.37,333.69 479.38,333.69 470.38,333.69 460.5,327.07 460.5,324.2 460.5,320.23 476.5,320.62 479.78,320.65 Z"
         fill="#52110f" />
      <path
         id="path15"
         fill-rule="evenodd"
         clip-rule="evenodd"
         d="M 489.5,331.19 C 486.34,332.74 482.89,333.59 479.38,333.68 475.64,333.68 471.75,332.55 468.48,331.01 470.97,330.21 474.62,329.72 478.71,329.72 483.12,329.72 487.02,330.29 489.5,331.19 Z"
         fill="white" />
      <path
         id="path16"
         fill-rule="evenodd"
         clip-rule="evenodd"
         d="M 479.78,320.65 C 484.2,320.69 488.9,320.86 492.4,321.37 491.45,323.2 485.89,324.61 479.17,324.61 472.36,324.61 466.75,323.16 465.91,321.29 470.88,320.48 477.75,320.64 479.78,320.65 Z"
         fill="white" />
      <path
         id="path17"
         fill-rule="evenodd"
         clip-rule="evenodd"
         d="M 473.42,328.04 H 484.93 C 485.22,328.04 485.51,328.11 485.78,328.24 486.04,328.37 486.27,328.56 486.46,328.79 486.64,329.02 486.76,329.29 486.82,329.58 486.88,329.87 486.88,330.17 486.81,330.45 484.55,329.99 481.74,329.72 478.71,329.72 476.06,329.72 473.59,329.92 471.5,330.29 L 471.47,329.99 C 471.47,328.92 472.35,328.04 473.41,328.04 Z"
         fill="#e8645f" />
      <path
         id="path18"
         fill-rule="evenodd"
         clip-rule="evenodd"
         d="M 488.56,335.81 C 481.97,338.85 475.53,339.12 469.27,335.9 475.66,336.91 482.18,336.88 488.56,335.81 Z"
         fill="#dbac93" />
    </g>
    <g
       id="oeil_gauche">
      <path
         id="path12"
         d="M 512.14,278.56 C 512.9,277.06 511.3,274.99 510.44,273.58 509.03,271.24 506.56,269.46 504,268.54 501.54,267.63 498.75,267.97 496.15,268.26 494.44,268.43 492.74,268.83 491.17,269.51 489.88,270.06 488.54,270.69 487.64,271.76 486.92,272.61 485.93,274.49 486.44,275.48 486.84,276.28 488.13,275.85 488.95,275.48 490.12,274.95 495.35,272.72 496.85,273.16 499.14,272.84 501.46,272.93 503.72,273.43 503.72,273.43 507.15,274.85 508.62,275.96 509.49,276.62 509.89,277.85 510.87,278.34 511.34,278.59 511.88,279.03 512.13,278.56 Z"
         fill="#4c3b2a"
         stroke="#503c2c"
         stroke-width="0.110521"
         stroke-miterlimit="3.2"
         stroke-linecap="round"
         stroke-linejoin="round" />
      <path
         id="path19"
         d="M 505.9,284.14 C 505.86,285.35 504.75,286.35 503.83,287.13 502.53,288.25 500.94,288.99 499.25,289.28 497.09,289.6 494.65,289.42 492.74,288.36 491.08,287.42 489.31,285.82 489.09,283.92 488.91,282.31 490.04,280.65 491.24,279.56 492.9,278.06 495.07,277.24 497.32,277.27 499.61,277.37 501.84,278.66 503.54,280.2 504.68,281.23 505.95,282.6 505.9,284.14 Z"
         fill="#f4e3d7"
         fill-opacity="0.91"
         stroke="black"
         stroke-width="0.976271"
         stroke-miterlimit="3.2"
         stroke-linecap="round"
         stroke-linejoin="round" />
      <path
         id="path20"
         d="M 497.14,287.46 C 496.59,287.49 496.04,287.4 495.52,287.21 495,287.02 494.53,286.72 494.13,286.34 493.73,285.96 493.42,285.5 493.2,284.99 492.98,284.49 492.87,283.94 492.87,283.39 492.87,282.83 492.98,282.29 493.2,281.78 493.42,281.27 493.73,280.81 494.13,280.43 494.53,280.05 495,279.76 495.52,279.56 496.04,279.37 496.59,279.28 497.14,279.31 498.19,279.36 499.18,279.81 499.9,280.57 500.62,281.33 501.03,282.34 501.03,283.39 501.03,284.43 500.62,285.44 499.9,286.2 499.18,286.96 498.19,287.41 497.14,287.46 Z"
         fill="#6c6753"
         fill-opacity="0.91"
         stroke="black"
         stroke-width="0.994691"
         stroke-miterlimit="3.2"
         stroke-linecap="round"
         stroke-linejoin="round" />
      <path
         id="path21"
         d="M 497.2,285.02 C 497.63,285.02 498.04,284.85 498.35,284.54 498.66,284.24 498.83,283.82 498.83,283.39 498.83,282.96 498.66,282.54 498.35,282.24 498.04,281.93 497.63,281.76 497.2,281.76 496.76,281.76 496.35,281.93 496.05,282.24 495.74,282.54 495.57,282.96 495.57,283.39 495.57,283.82 495.74,284.24 496.05,284.54 496.35,284.85 496.76,285.02 497.2,285.02 Z"
         fill="#241c1c"
         fill-opacity="0.91"
         stroke="black"
         stroke-width="0.976271"
         stroke-miterlimit="3.2"
         stroke-linecap="round"
         stroke-linejoin="round" />
      <path
         id="path22"
         d="M 506.8,284.2 C 506.77,283.57 506.1,282.64 505.68,281.9 505.39,281.41 505.07,280.95 504.73,280.5 504.39,280.04 504.06,279.58 503.65,279.18 503.13,278.69 502.55,278.25 501.92,277.89 500.59,277.14 499.14,276.61 497.63,276.35 496.35,276.2 495.06,276.36 493.85,276.81 493.31,276.99 492.76,277.17 492.27,277.47 491.61,277.87 491.04,278.44 490.48,279.01 489.96,279.5 489.49,280.06 489.1,280.67 488.6,281.45 488.25,282.32 488.1,283.24"
         stroke="#503c2c"
         stroke-width="1.63019"
         stroke-miterlimit="3.2"
         stroke-linecap="round"
         stroke-linejoin="round" />
    </g>
    <g
       id="oeil_droite">
      <path
         id="path26"
         d="M 450.96,283.64 C 451,283.06 451.66,282.18 452.09,281.5 452.36,281.04 452.69,280.62 453.04,280.2 453.38,279.78 453.71,279.34 454.11,278.98 454.64,278.52 455.23,278.11 455.84,277.78 457.19,277.07 458.64,276.59 460.14,276.35 461.41,276.21 462.7,276.35 463.91,276.77 464.46,276.93 465.01,277.1 465.5,277.39 466.16,277.76 466.73,278.29 467.28,278.81 467.81,279.27 468.27,279.78 468.67,280.35 469.12,281.09 469.64,282.1 469.67,282.75"
         stroke="#503c2c"
         stroke-width="1.63019"
         stroke-miterlimit="3.2"
         stroke-linecap="round"
         stroke-linejoin="round" />
      <path
         id="path13"
         d="M 445.99,278.56 C 445.23,277.06 446.82,274.99 447.68,273.58 449.21,271.23 451.47,269.46 454.12,268.54 456.59,267.63 459.37,267.97 461.98,268.26 463.68,268.43 465.39,268.83 466.95,269.51 468.24,270.06 469.59,270.69 470.48,271.76 471.21,272.61 472.19,274.49 471.68,275.48 471.29,276.28 469.99,275.85 469.17,275.48 468,274.95 462.77,272.72 461.28,273.16 458.99,272.84 456.66,272.93 454.41,273.43 454.41,273.43 450.97,274.85 449.5,275.96 448.63,276.62 448.23,277.85 447.26,278.34 446.77,278.59 446.25,279.03 445.99,278.56 Z"
         fill="#4c3b2a"
         stroke="#503c2c"
         stroke-width="0.110521"
         stroke-miterlimit="3.2"
         stroke-linecap="round"
         stroke-linejoin="round" />
      <path
         id="path23"
         fill-rule="evenodd"
         clip-rule="evenodd"
         d="M 451.86,284.13 C 451.89,285.34 453.01,286.35 453.93,287.13 455.23,288.25 456.81,288.99 458.51,289.28 460.67,289.6 463.11,289.42 465.02,288.36 466.68,287.42 468.44,285.81 468.67,283.92 468.85,282.3 467.72,280.65 466.52,279.55 464.85,278.05 462.68,277.23 460.44,277.27 458.15,277.36 455.92,278.66 454.21,280.19 453.08,281.23 451.81,282.6 451.86,284.13 Z"
         fill="#f4e3d7"
         fill-opacity="0.91"
         stroke="black"
         stroke-width="0.976271"
         stroke-miterlimit="3.2"
         stroke-linecap="round"
         stroke-linejoin="round" />
      <path
         id="path24"
         d="M 460.62,287.47 C 461.7,287.47 462.74,287.04 463.5,286.28 464.26,285.51 464.69,284.47 464.69,283.39 464.69,282.31 464.26,281.27 463.5,280.51 462.74,279.74 461.7,279.31 460.62,279.31 459.53,279.31 458.5,279.74 457.73,280.51 456.96,281.27 456.54,282.31 456.54,283.39 456.54,284.47 456.96,285.51 457.73,286.28 458.5,287.04 459.53,287.47 460.62,287.47 Z"
         fill="#6c6753"
         stroke="black"
         stroke-width="0.994691"
         stroke-miterlimit="3.2"
         stroke-linecap="round"
         stroke-linejoin="round" />
      <path
         id="path25"
         d="M 460.62,285.02 C 461.05,285.02 461.46,284.85 461.77,284.54 462.07,284.24 462.25,283.82 462.25,283.39 462.25,282.96 462.07,282.54 461.77,282.24 461.46,281.93 461.05,281.76 460.62,281.76 460.18,281.76 459.77,281.93 459.46,282.24 459.16,282.54 458.99,282.96 458.99,283.39 458.99,283.82 459.16,284.24 459.46,284.54 459.77,284.85 460.18,285.02 460.62,285.02 Z"
         fill="#241c1c"
         fill-opacity="0.91"
         stroke="black"
         stroke-width="0.976271"
         stroke-miterlimit="3.2"
         stroke-linecap="round"
         stroke-linejoin="round" />
    </g>
  </g>
  <g
     id="cou"
     transform="translate(-254.73,-209.98)">
    <path
       id="Ellipse 2"
       d="M 479,347.5 C 479.28,347.5 479.5,347.28 479.5,347 479.5,346.72 479.28,346.5 479,346.5 478.72,346.5 478.5,346.72 478.5,347 478.5,347.28 478.72,347.5 479,347.5 Z"
       fill="#dd9974" />
  </g>
  <g
     id="avant_bras_gauche"
     transform="translate(-254.73,-209.98)"
>
    <path
       id="path99"
       d="M 646.14,346.88 649,341.93 672.53,355.56 669.67,360.51 Z"
       fill="white" />
    <path
       id="path100"
       d="M 613.2,430.58 C 606.3,426.55 603.95,417.7 607.96,410.79 607.97,410.78 607.97,410.76 607.98,410.75 L 645.21,346.44 670.3,360.97 633.06,425.31 C 633.05,425.32 633.04,425.34 633.03,425.35 629,432.27 620.12,434.61 613.2,430.58 Z"
       fill="#262626" />
  </g>
  <g
     id="main_gauche"
     transform="translate(-254.73,-209.98)">
    <path
       id="path96"
       d="M 681.07,291.08 C 680.23,291.1 679.71,291.28 679.25,291.57 678.76,291.9 678.35,292.35 677.69,293 676.72,294.42 675.8,295.89 674.95,297.39 L 674.18,298.69 671.76,302.81 C 670.45,305.03 669.13,307.24 667.83,309.45 666.76,311.25 665.69,313.03 664.57,314.8 664.09,315.57 663.87,315.95 663.73,316.31 663.59,316.64 663.52,316.98 663.37,317.69 L 663.32,317.99 663.04,317.87 C 662.46,317.64 662.15,317.53 661.85,317.33 661.46,317.05 661.11,316.74 660.78,316.4 L 660.72,316.34 660.7,316.24 C 660.52,315.25 660.49,314.25 660.62,313.26 L 660.67,312.64 C 660.79,309.65 660.63,307.67 659.04,305.17 657.39,303.64 655.57,303.18 653.31,303.06 652.77,303.33 652.54,303.46 652.35,303.63 652.15,303.8 652.01,304.02 651.68,304.53 651.1,306.68 651.18,308.4 651.49,310.65 651.98,314.98 652.18,319.33 652.13,323.68 652.18,327.23 652.36,330.86 654.45,333.77 L 654.46,333.78 C 655.27,335.11 654.88,336.19 654.58,337.5 V 337.51 C 654.28,338.49 653.93,339.42 653.56,340.35 L 653.18,341.3 652.64,342.65 652.31,343.48 C 658.06,346.8 663.79,350.12 669.52,353.48 L 669.93,352.43 C 670.42,351.14 670.66,350.44 671.08,349.88 671.48,349.31 672.02,348.86 673.04,348.04 L 673.1,347.98 H 673.17 L 673.7,347.92 C 674.05,347.88 674.39,347.86 674.75,347.84 L 675.28,347.8 C 677.92,347.61 679.66,345.94 681.49,344.07 683.72,341.47 685.4,338.61 687.15,335.63 690.13,330.52 693.67,325.76 697.71,321.43 L 698.12,321.01 698.91,320.16 700.03,318.99 700.42,318.6 C 701.13,317.9 701.71,317.09 702.12,316.19 702.49,315.37 702.69,314.47 702.8,313.33 702.72,313.02 702.61,312.73 702.44,312.46 702.25,312.21 702.02,311.99 701.77,311.79 701.39,311.59 701,311.43 700.58,311.32 700.26,311.25 699.9,311.26 699.13,311.27 696,313.11 693.59,315.89 691.17,318.64 L 689.18,320.88 688.31,321.87 C 687.93,322.29 687.74,322.53 687.48,322.74 687.22,322.95 686.93,323.14 686.36,323.49 L 686.03,323.11 690.28,318.07 691.73,316.37 693.13,314.72 694.5,313.1 C 695.48,311.94 696.44,310.81 697.44,309.67 L 698.33,308.67 699.05,307.85 C 699.89,306.72 700.31,305.35 700.24,303.95 699.98,303.41 699.86,303.2 699.69,303.01 699.42,302.74 699.1,302.5 698.77,302.31 698.28,302.15 697.77,302.03 697.25,301.97 696.86,301.95 696.44,302.01 695.56,302.12 692.16,304.82 689.46,308.59 686.63,311.94 684.73,314.2 682.68,316.34 680.5,318.32 L 680.14,317.98 681.02,316.87 C 682.52,314.97 683.99,313.06 685.46,311.14 L 686.5,309.78 C 687.63,308.3 688.73,306.82 689.83,305.34 L 690.95,303.9 C 692.84,301.35 694.13,299.44 694.36,296.32 694.08,295.65 693.96,295.35 693.79,295.09 693.62,294.85 693.42,294.65 692.97,294.22 692.38,294.06 691.77,294.05 691.17,294.17 690.65,294.29 690.14,294.55 689.41,294.95 687.78,296.25 686.37,297.81 685.23,299.57 L 684.45,300.62 C 681,305.38 677.64,310.21 674.27,315.04 L 673.84,314.8 C 674.91,312.23 676.12,309.73 677.41,307.26 L 677.9,306.33 C 678.55,305.04 679.23,303.75 679.91,302.47 L 681.38,299.62 682.26,297.93 C 682.92,296.46 683.33,295.23 683.51,293.65 683.28,293.08 682.98,292.54 682.58,292.07 682.22,291.7 681.78,291.39 681.07,291.08 Z"
       fill="#dd9974"
       stroke="#000000"
       stroke-width="0.4" />
    <path
       id="path97"
       d="M 660.93,317.41 660.73,318.39 C 661.31,319.06 661.31,319.06 662.16,319.84 L 663.08,320.73 665.01,322.53 C 667.08,324.54 667.91,326.03 668.06,328.94 668.04,330.5 667.91,332.07 667.67,333.61 L 667.44,335.29 667.24,336.55 668.32,336.26 C 668.7,334.59 669.07,332.9 669.43,331.22 L 669.77,329.78 670.07,328.39 670.36,327.12 C 670.42,325.72 670.13,325.25 669.24,324.2 668.39,323.43 667.41,322.63 667.29,322.53 666.65,321.89 664.94,320.27 665.04,319.78 662.58,317.75 662.58,317.75 660.93,317.41 Z"
       fill="#b67255" />
    <path
       id="path98"
       d="M 669.25,314.23 C 671.02,315.63 674.12,318.04 675.98,319.33 678.3,320.95 680.41,322.79 682.54,324.64 683.79,325.59 685.54,326.98 687.02,327.28 683.69,323.55 679.92,320.73 676.27,317.44 675.84,317.01 674.19,316.34 673.76,315.9 672.18,315.09 671.02,314.09 669.26,314.23 Z"
       fill="#bb7859" />
  </g>
  <g
     id="coude_gauche"
     transform="translate(-254.73,-209.98)">
    <path
       id="circle100"
       d="M 621.5,418.26 C 621.38,418.8 620.84,419.13 620.3,419.01 619.77,418.89 619.43,418.35 619.55,417.81 619.67,417.28 620.21,416.94 620.75,417.06 621.29,417.18 621.62,417.72 621.5,418.26 Z"
       fill="#262626" />
  </g>
  <g
     id="haut_bras_gauche"
     transform="translate(-254.73,-209.98)"
>
    <path
       id="path101"
       d="M 534.81,375.75 C 538.38,368.61 547.46,365.85 555.12,369.64 L 555.16,369.66 626.4,404.76 613.57,430.76 542.28,395.64 542.24,395.63 C 534.57,391.82 531.25,382.92 534.81,375.75 Z"
       fill="#262626" />
  </g>
  <g
     id="epaule_gauche"
     transform="translate(-254.73,-209.98)">
    <path
       id="circle101"
       d="M 547.99,383.21 C 547.44,383.31 546.92,382.94 546.83,382.39 546.74,381.85 547.1,381.33 547.65,381.24 548.19,381.15 548.71,381.51 548.8,382.06 548.89,382.6 548.53,383.12 547.99,383.21 Z"
       fill="#262626" />
  </g>
  <g
     id="avant_bras_droite"
     transform="translate(-254.73,-209.98)"
>
    <path
       id="path34"
       d="M 311.65,346.89 308.79,341.94 285.26,355.56 288.12,360.52 Z"
       fill="white" />
    <path
       id="os_avant_bras_droite"
       d="M 344.59,430.58 C 351.49,426.56 353.84,417.71 349.83,410.79 349.82,410.78 349.82,410.76 349.81,410.75 L 312.58,346.45 287.49,360.98 324.73,425.32 C 324.74,425.33 324.75,425.35 324.76,425.36 328.79,432.28 337.67,434.62 344.59,430.58 Z"
       fill="#262626" />
  </g>
  <g
     id="main_droite"
     transform="translate(-254.73,-209.98)">
    <path
       id="Vector"
       d="M 276.72,291.08 C 277.56,291.1 278.08,291.28 278.54,291.58 279.03,291.9 279.44,292.36 280.1,293.01 281.07,294.43 281.99,295.89 282.84,297.39 L 283.61,298.69 286.03,302.81 C 287.34,305.03 288.66,307.24 289.96,309.46 291.03,311.25 292.1,313.04 293.22,314.8 293.7,315.58 293.92,315.96 294.06,316.31 294.2,316.65 294.27,316.98 294.42,317.7 L 294.48,317.99 294.75,317.88 C 295.33,317.65 295.64,317.53 295.94,317.34 296.33,317.06 296.68,316.75 297.01,316.4 L 297.08,316.35 297.09,316.24 C 297.27,315.26 297.31,314.25 297.18,313.26 L 297.12,312.64 C 297,309.66 297.16,307.68 298.75,305.17 300.4,303.64 302.22,303.19 304.48,303.07 305.01,303.34 305.25,303.47 305.44,303.64 305.64,303.81 305.78,304.02 306.11,304.54 306.69,306.68 306.61,308.4 306.3,310.66 305.81,314.98 305.61,319.33 305.66,323.68 305.61,327.24 305.43,330.86 303.34,333.78 L 303.33,333.79 C 302.52,335.11 302.91,336.19 303.21,337.5 V 337.52 C 303.51,338.49 303.86,339.43 304.23,340.36 L 304.61,341.3 305.15,342.66 305.48,343.48 C 299.73,346.81 294,350.13 288.27,353.49 L 287.86,352.43 C 287.37,351.15 287.13,350.45 286.71,349.88 286.31,349.32 285.76,348.87 284.75,348.04 L 284.69,347.99 H 284.62 L 284.09,347.93 C 283.74,347.89 283.4,347.86 283.04,347.84 L 282.51,347.8 C 279.87,347.61 278.13,345.95 276.3,344.07 274.07,341.48 272.39,338.62 270.64,335.64 267.66,330.53 264.12,325.76 260.08,321.44 L 259.68,321.01 258.88,320.17 257.76,318.99 257.37,318.61 C 256.66,317.91 256.08,317.09 255.66,316.19 255.31,315.38 255.1,314.48 254.99,313.33 255.07,313.03 255.18,312.74 255.35,312.46 255.54,312.21 255.77,311.99 256.02,311.8 256.4,311.59 256.79,311.43 257.21,311.32 257.53,311.26 257.89,311.26 258.66,311.27 261.79,313.12 264.2,315.89 266.62,318.65 L 268.61,320.89 269.48,321.87 C 269.86,322.3 270.06,322.54 270.31,322.75 270.57,322.96 270.87,323.15 271.43,323.49 L 271.76,323.11 267.51,318.08 266.06,316.37 264.66,314.73 263.29,313.1 C 262.31,311.95 261.35,310.81 260.35,309.67 L 259.47,308.67 258.74,307.85 C 257.9,306.73 257.48,305.35 257.55,303.95 257.81,303.42 257.93,303.2 258.1,303.01 258.37,302.74 258.69,302.51 259.02,302.32 259.51,302.15 260.02,302.04 260.54,301.98 260.93,301.96 261.35,302.01 262.23,302.13 265.63,304.83 268.33,308.59 271.16,311.94 273.06,314.21 275.11,316.34 277.29,318.32 L 277.65,317.98 276.77,316.88 C 275.27,314.98 273.8,313.07 272.33,311.15 L 271.29,309.78 C 270.16,308.31 269.06,306.82 267.96,305.35 L 266.85,303.91 C 264.95,301.35 263.67,299.45 263.43,296.33 263.71,295.66 263.83,295.35 264,295.1 264.18,294.86 264.37,294.65 264.82,294.23 265.41,294.07 266.02,294.05 266.62,294.17 267.14,294.29 267.65,294.56 268.38,294.95 270.01,296.26 271.43,297.82 272.56,299.57 L 273.34,300.63 C 276.8,305.38 280.15,310.22 283.52,315.05 L 283.95,314.8 C 282.88,312.23 281.67,309.74 280.38,307.26 L 279.89,306.33 C 279.24,305.04 278.56,303.75 277.88,302.47 L 276.41,299.63 275.53,297.94 C 274.87,296.47 274.46,295.24 274.28,293.66 274.51,293.08 274.81,292.55 275.21,292.08 275.57,291.7 276.01,291.4 276.72,291.08 Z"
       fill="#dd9974"
       stroke="#000000"
       stroke-width="0.4" />
    <path
       id="path48"
       d="M 296.86,317.41 297.06,318.39 C 296.48,319.07 296.48,319.07 295.63,319.85 L 294.71,320.74 292.78,322.53 C 290.71,324.55 289.88,326.04 289.73,328.95 289.75,330.5 289.88,332.07 290.12,333.61 L 290.35,335.3 290.56,336.55 289.47,336.26 C 289.09,334.6 288.72,332.91 288.36,331.23 L 288.02,329.79 287.72,328.39 287.43,327.12 C 287.37,325.73 287.66,325.26 288.55,324.2 289.4,323.43 290.37,322.63 290.5,322.54 291.14,321.89 292.85,320.28 292.75,319.79 295.21,317.75 295.21,317.75 296.86,317.41 Z"
       fill="#b67255" />
    <path
       id="path49"
       d="M 288.54,314.23 C 286.76,315.64 283.67,318.05 281.81,319.33 279.49,320.95 277.38,322.79 275.25,324.64 274,325.6 272.25,326.98 270.77,327.28 274.1,323.55 277.87,320.74 281.52,317.44 281.95,317.02 283.6,316.35 284.03,315.91 285.61,315.09 286.77,314.1 288.53,314.24 Z"
       fill="#bb7859" />
  </g>
  <g
     id="haut_bras_droite"
     transform="translate(-255,-210)"
     style="mix-blend-mode:lighten;stroke:black;stroke-width:0.4">
    <path
       id="path94"
       d="M 423,376 C 419,369 410,366 403,370 V 370 L 331,405 344,431 416,396 V 396 C 423,392 427,383 423,376 Z"
       fill="#262626" />
  </g>
  <g
     id="coude_droite"
     transform="translate(-254.73,-209.98)">
    <path
       id="rot_coude_droite"
       d="M 336.29,418.26 C 336.41,418.8 336.95,419.14 337.49,419.02 338.02,418.89 338.36,418.36 338.24,417.82 338.12,417.28 337.58,416.94 337.04,417.07 336.5,417.19 336.17,417.73 336.29,418.26 Z"
       fill="#262626" />
  </g>
  <g
     id="epaule_droite"
     transform="translate(-254.73,-209.98)">
    <path
       id="circle94"
       d="M 409.81,383.22 C 410.35,383.31 410.87,382.94 410.96,382.4 411.05,381.86 410.69,381.34 410.14,381.25 409.6,381.15 409.08,381.52 408.99,382.06 408.9,382.61 409.26,383.12 409.81,383.22 Z"
       fill="#262626" />
  </g>
  <g
     id="cuisse_droite"
     transform="translate(-254.73,-209.98)">
    <path
       id="path36"
       d="M 431.84,523.08 V 635.93 H 467.84 V 523.08 Z"
       fill="#262626"
/>
  </g>
  <g
     id="tibia_droite"
     transform="translate(-254.73,-209.98)"
>

    <path
       id="os_tibia_droite"
       d="M 450,618 C 459.94,618 468,626.06 468,636 468,636.82 467.94,637.62 467.84,638.4 V 734.18 H 431.84 V 635.73 H 432 C 432.15,625.91 440.15,618 450,618 Z"
       fill="#262626"
/>
    <path
       id="chaussette_droite"
       d="M 465.09,734.38 H 435.39 V 745.38 H 465.09 Z"
       fill="white" />
  </g>
  <g
     id="genou_droite"
     transform="translate(-254.73,-209.98)">
    <path
       id="Ellipse 1"
       d="M 450,636.5 C 450.28,636.5 450.5,636.28 450.5,636 450.5,635.72 450.28,635.5 450,635.5 449.72,635.5 449.5,635.72 449.5,636 449.5,636.28 449.72,636.5 450,636.5 Z"
       fill="#262626" />
  </g>
  <g
     id="hanche_droite"
     transform="translate(-254.73,-209.98)">
    <path
       id="path37"
       d="M 438.68,542.8 C 439.29,544.28 440.19,545.62 441.32,546.75 442.46,547.88 443.8,548.77 445.28,549.37 446.76,549.98 448.35,550.29 449.94,550.28 451.54,550.27 453.12,549.95 454.6,549.32 456.07,548.7 457.41,547.79 458.53,546.65 459.65,545.51 460.53,544.16 461.13,542.68 461.72,541.19 462.02,539.61 462,538.01 461.98,536.41 461.64,534.83 461.01,533.36 459.74,530.42 457.36,528.11 454.39,526.92 451.42,525.73 448.1,525.76 445.16,527 442.21,528.25 439.87,530.61 438.66,533.57 437.45,536.53 437.46,539.85 438.68,542.81 Z"
       fill="#262626" />
  </g>
  <g
     id="cuisse_gauche"
     transform="translate(-254.73,-209.98)"
     >
    <path
       id="path39"
       d="M 489.5,635.93 V 523.08 H 507.5 525.5 V 635.93 Z"
       fill="#262626" />
  </g>
  <g
     id="tibia_gauche"
     transform="translate(-254.73,-209.98)"
>
    <path
       id="os_tibia_gauche"
       d="M 507.58,618 C 517.52,618 525.58,626.06 525.58,636 525.58,636.82 525.52,637.62 525.42,638.4 V 734.18 H 489.42 V 635.73 H 489.58 C 489.73,625.91 497.73,618 507.58,618 Z"
       fill="#262626" />
    <path
       id="chaussette_gauche"
       d="M 523,734 H 493 V 746 H 523 Z"
       fill="white"
       style="stroke-width:0.402393" />
  </g>
  <g
     id="hanche_gauche"
     transform="translate(-254.73,-209.98)">
    <path
       id="path40"
       d="M 496.67,542.81 C 497.28,544.29 498.17,545.64 499.31,546.78 500.44,547.92 501.79,548.82 503.27,549.43 504.75,550.04 506.34,550.35 507.95,550.35 509.55,550.34 511.14,550.01 512.62,549.39 514.09,548.76 515.43,547.85 516.55,546.7 517.67,545.55 518.56,544.2 519.15,542.71 519.74,541.21 520.03,539.62 520.01,538.02 519.98,536.41 519.63,534.83 518.99,533.36 517.71,530.44 515.33,528.14 512.37,526.96 509.41,525.78 506.1,525.82 503.16,527.06 500.23,528.31 497.9,530.66 496.68,533.6 495.47,536.55 495.46,539.86 496.67,542.81 Z"
       fill="#262626" />
  </g>
  <g
     id="genou_gauche"
     transform="translate(-254.73,-209.98)">
    <path
       id="Ellipse 1_2"
       d="M 508,636.5 C 508.28,636.5 508.5,636.28 508.5,636 508.5,635.72 508.28,635.5 508,635.5 507.72,635.5 507.5,635.72 507.5,636 507.5,636.28 507.72,636.5 508,636.5 Z"
       fill="#262626" />
  </g>
  <g
     id="pied_droite"
     transform="translate(-254.73,-209.98)">
    <path
       id="path1-5"
       d="M 469.93,761.09 469.86,769.33 444.16,769.28 V 764.71 C 436.26,765.73 428.13,768.43 420.23,769.33 415.06,769.95 409.12,770.27 397.1,768.15 393.48,767.57 390,766.78 386.67,765.79 380.32,763.85 374.12,761.9 371.82,759.96 372.08,758.86 372.16,757.37 372.69,756.78 375.6,758.38 379.07,759.86 383.35,761.19 389.66,763.4 396.31,764.98 403.45,765.68 410.48,766.8 416.83,766.61 422.77,765.68 437.54,762.46 442.5,761.61 444.65,761.5 453.15,760.89 461.54,761.18 469.93,761.09 Z"
       fill="black" />
    <path
       id="path2-3"
       d="M 469.56,761.09 C 469.82,758.91 470.12,756.04 470.09,754.03 470.09,751.87 469.59,749.5 469.03,746.76 468.46,744.02 467.82,740.99 466.53,737.64 L 462.64,738.96 C 458.86,740.36 455.08,741.81 451.34,742.16 448.96,742.41 446.5,742.09 444.05,741.19 442.38,740.59 440.72,739.71 439.13,738.56 438.56,735.79 437.13,733.44 434.86,731.51 L 431.31,733.69 C 430.85,733.54 429.91,733.62 428.51,733.94 L 414.41,743.62 413.09,745.01 C 410.86,746.46 408.56,747.7 406.25,748.7 402.55,750.31 398.8,751.18 395.06,751.33 391.32,751.35 387.88,750.2 383.95,750.19 381.04,750.32 378.74,750.88 377.07,751.86 375.79,752.63 374.88,753.49 374.35,754.41 373.86,755.24 373.41,756.12 373.33,757.12 375.07,758.11 376.81,758.81 378.51,759.5 380.78,760.37 383.27,761.2 385.69,761.97 386.82,762.36 389.85,763.34 394.42,764.29 395.37,764.6 401.87,765.62 405.42,765.97 408.21,766.33 411.05,766.48 413.81,766.45 417.78,766.59 421.63,765.85 424.58,765.39 429.34,764.34 434.07,763.39 438.9,762.33 444.27,761.45 449.79,761.03 455.42,761.24 460.15,761.2 464.83,761.11 469.56,761.09 Z"
       fill="#1f1a1a"
       stroke="black"
       stroke-width="0.399984" />
    <path
       id="path7-5"
       d="M 444.08,761.54 C 443.4,760.05 441.78,757.9 439.66,756.37 438.41,755.47 436.94,754.8 435.24,754.36 433.16,753.86 431.08,753.78 429.19,753.81 428.59,753.75 426.89,753.93 424.09,754.35 M 424.09,754.35 416.57,755.17 C 416.49,754.2 416.19,753.3 415.74,752.47 L 414.19,749.12 C 413.66,748.1 413.28,746.93 413.7,745.78 413.92,745.13 416.42,742.92 417.13,742.43 L 427.19,735.58 C 427.42,735.43 428.47,734.84 429.34,734.71 430.44,734.51 431.46,734.65 432.44,735.11 434.37,735.88 435.65,737.33 437.17,738.57 438.94,739.99 441.13,741.25 443.82,742.35 446.35,743.54 449.83,743.73 454.25,742.95 457.5,742.18 461.2,740.91 465.36,739.15 M 424.09,754.35 423.3,752.28 C 422.65,750.79 422.31,749.31 422.24,747.83 422.46,746.39 423.03,745.21 423.98,744.29 425.45,742.97 427.04,741.83 428.74,740.84 L 433.01,738.46 M 465.36,739.15 466.87,738.48 M 465.36,739.15 C 465.66,739.53 465.93,740.17 466.23,741.08 M 433.01,738.46 435.73,737.31 M 433.01,738.46 437.96,741.84 C 439.66,742.92 441.74,743.86 444.2,744.64 446.12,745.25 448.24,745.54 450.55,745.51 452.43,745.43 454.21,745.17 455.95,744.75 L 461.96,742.88 466.23,741.08 M 466.23,741.08 467.59,740.45 M 466.23,741.08 C 466.83,743.65 466.65,745.35 465.74,746.17 464.04,747.7 464,747.21 459.35,749.7 456.93,750.99 455.69,753.67 455.19,755.75 454.89,757.37 455,759.57 455.42,761.24"
       stroke="#fdfbfe"
       stroke-opacity="0.95724"
       stroke-width="0.099998" />
    <path
       id="path22-2"
       d="M 416.38,745.79 414.41,743.62 M 421.03,743.28 419.21,740.32 M 424.54,740.38 422.69,737.94 M 427.07,738.53 425.3,736.15 M 430.36,737.05 428.17,734.17"
       stroke="#fdfbfe"
       stroke-opacity="0.95724"
       stroke-width="0.49999" />
  </g>
  <g
     id="pied_gauche"
     transform="translate(-254.73,-209.98)">
    <path
       id="path75"
       d="M 488.18,761.09 488.25,769.33 513.95,769.28 V 764.71 C 521.85,765.73 529.98,768.43 537.88,769.33 543.05,769.95 548.99,770.27 561.01,768.15 564.63,767.57 568.11,766.78 571.44,765.79 577.79,763.85 583.99,761.9 586.29,759.96 586.03,758.86 585.95,757.37 585.42,756.78 582.51,758.38 579.03,759.86 574.76,761.19 568.45,763.4 561.8,764.98 554.66,765.68 547.63,766.8 541.28,766.61 535.34,765.68 520.57,762.46 515.62,761.61 513.46,761.5 504.96,760.89 496.57,761.18 488.18,761.09 Z"
       fill="black" />
    <path
       id="path76"
       d="M 488.55,761.09 C 488.29,758.91 487.99,756.04 488.02,754.03 488.02,751.87 488.52,749.5 489.08,746.76 489.65,744.02 490.29,740.99 491.58,737.64 L 495.47,738.96 C 499.25,740.36 503.03,741.81 506.77,742.16 509.15,742.41 511.61,742.09 514.07,741.19 515.73,740.59 517.39,739.71 518.98,738.56 519.54,735.79 520.98,733.44 523.25,731.51 L 526.8,733.69 C 527.26,733.54 528.2,733.62 529.6,733.94 L 543.7,743.62 545.02,745.01 C 547.25,746.46 549.55,747.7 551.86,748.7 555.56,750.31 559.31,751.18 563.05,751.33 566.79,751.35 570.23,750.2 574.16,750.19 577.07,750.32 579.37,750.88 581.04,751.86 582.32,752.63 583.23,753.49 583.76,754.41 584.25,755.24 584.7,756.12 584.78,757.12 583.04,758.11 581.3,758.81 579.6,759.5 577.33,760.37 574.84,761.2 572.42,761.97 571.29,762.36 568.26,763.34 563.69,764.29 562.75,764.6 556.24,765.62 552.69,765.97 549.89,766.33 547.06,766.48 544.3,766.45 540.33,766.59 536.48,765.85 533.53,765.39 528.77,764.34 524.04,763.39 519.21,762.33 513.84,761.45 508.32,761.03 502.69,761.24 497.96,761.2 493.28,761.11 488.55,761.09 Z"
       fill="#1f1a1a"
       stroke="black"
       stroke-width="0.399984" />
    <path
       id="path77"
       d="M 514.03,761.54 C 514.71,760.05 516.33,757.9 518.45,756.37 519.7,755.47 521.17,754.8 522.87,754.36 524.95,753.86 527.03,753.78 528.92,753.81 529.52,753.75 531.22,753.93 534.02,754.35 M 534.02,754.35 541.54,755.17 C 541.62,754.2 541.92,753.3 542.37,752.47 L 543.92,749.12 C 544.45,748.1 544.83,746.93 544.41,745.78 544.19,745.13 541.69,742.92 540.98,742.43 L 530.92,735.58 C 530.7,735.43 529.64,734.84 528.77,734.71 527.67,734.51 526.65,734.65 525.67,735.11 523.74,735.88 522.46,737.33 520.94,738.57 519.17,739.99 516.98,741.25 514.29,742.35 511.76,743.54 508.28,743.73 503.86,742.95 500.61,742.18 496.91,740.91 492.75,739.15 M 534.02,754.35 534.81,752.28 C 535.46,750.79 535.8,749.31 535.87,747.83 535.65,746.39 535.08,745.21 534.13,744.29 532.66,742.97 531.07,741.83 529.37,740.84 L 525.1,738.46 M 492.75,739.15 491.24,738.48 M 492.75,739.15 C 492.45,739.53 492.18,740.17 491.88,741.08 M 525.1,738.46 522.38,737.31 M 525.1,738.46 520.15,741.84 C 518.45,742.92 516.37,743.86 513.91,744.64 511.99,745.25 509.87,745.54 507.56,745.51 505.68,745.43 503.9,745.17 502.16,744.75 L 496.15,742.88 491.88,741.08 M 491.88,741.08 490.52,740.45 M 491.88,741.08 C 491.27,743.65 491.46,745.35 492.37,746.17 494.07,747.7 494.11,747.21 498.76,749.7 501.18,750.99 502.42,753.67 502.92,755.75 503.22,757.37 503.1,759.57 502.69,761.24"
       stroke="#fdfbfe"
       stroke-opacity="0.95724"
       stroke-width="0.099998" />
    <path
       id="path78"
       d="M 541.73,745.79 543.7,743.62 M 537.08,743.28 538.9,740.32 M 533.57,740.38 535.42,737.94 M 531.03,738.53 532.81,736.15 M 527.75,737.05 529.94,734.17"
       stroke="#fdfbfe"
       stroke-opacity="0.95724"
       stroke-width="0.49999" />
  </g>
  <g
     id="torse"
     transform="translate(-254.73,-209.98)">
    <path
       id="path55"
       d="M 502.4,529.21 507.83,465.72 H 449.84 L 454.14,528.96 C 454.14,528.96 472.26,538.11 478.84,538.09 485.14,538.07 502.41,529.21 502.41,529.21 Z"
       fill="#332e2e"
       stroke="#00000f"
       stroke-width="0.405" />
    <path
       id="path56"
       d="M 551.63,367.82 539.86,363.64 521.87,355.97 501.9,346.67 476.33,472.12 478.87,505.7 C 478.87,505.7 480.72,521.35 484.38,536.95 487,548.09 492.08,556.48 499.22,558.45 505.51,560.17 514.94,558.3 522.11,556.78 530.51,555 538.07,551.9 538.07,551.9 L 535.11,498.18 538.07,437.47 Z"
       fill="#262626"
       stroke="#00000f"
       stroke-width="0.405" />
    <path
       id="path57"
       d="M 405.93,367.82 417.7,363.64 435.69,355.97 455.66,346.67 481.23,472.14 478.84,485.58 C 480.11,494.58 479.08,499.18 478.7,505.72 478.7,505.72 476.85,521.38 473.18,536.98 470.56,548.12 465.48,556.51 458.34,558.48 452.05,560.2 442.62,558.33 435.45,556.81 430.01,555.61 424.67,553.98 419.49,551.93 L 422.45,498.2 419.49,437.48 Z"
       fill="#262626"
       stroke="#00000f"
       stroke-width="0.405" />
    <path
       id="path58"
       d="M 503.28,415.63 H 454.4 V 363.96 H 503.28 Z"
       fill="white"
       stroke="#00000f"
       stroke-width="0.405" />
    <path
       id="path59"
       d="M 502.83,344.53 C 502.83,344.53 498.46,350.86 491.91,356.21 487.85,359.44 483.47,362.24 478.84,364.56 477.61,363.96 471.33,360.76 465.76,356.21 459.22,350.86 454.85,344.53 454.85,344.53 454.85,344.53 453.25,355.95 454.85,367.89 456.12,377.35 460.28,391.26 460.28,391.26 L 478.84,364.99 497.39,391.26 C 497.39,391.26 501.56,377.36 502.83,367.89 504.43,355.95 502.83,344.53 502.83,344.53 Z"
       fill="#a7a9ac"
       stroke="#00000f"
       stroke-width="0.405" />
    <path
       id="path60"
       d="M 485.14,363.96 H 472.54 L 468.26,371.91 474.86,384.72 H 482.81 L 489.41,371.92 Z"
       fill="#090a47"
       stroke="#00000f"
       stroke-width="0.405" />
    <path
       id="path61"
       d="M 487.15,376.3 489.41,371.91 485.14,363.96 H 479.15 L 478.84,364.12 478.52,363.96 H 472.53 L 468.27,371.91 470.52,376.31 478.84,364.53 Z"
       fill="#03466b"
       stroke="#00000f"
       stroke-width="0.405" />
    <path
       id="path62"
       d="M 482.81,384.72 H 474.86 L 468.26,432.85 H 489.41 Z"
       fill="#090a47"
       stroke="#00000f"
       stroke-width="0.405" />
    <path
       id="path63"
       d="M 502.4,428.97 507.83,365.48 478.83,424.61 449.84,365.48 454.14,428.72 478.84,485.58 Z"
       fill="#332e2e"
       stroke="#00000f"
       stroke-width="0.405" />
    <path
       id="path64"
       d="M 478.98,485.58 503.56,356.95 524.13,377.13 516.37,381.01 526.85,392.27 Z"
       fill="#414042"
       stroke="#00000f"
       stroke-width="0.405" />
    <path
       id="path65"
       d="M 478.84,485.58 454.1,356.95 433.53,377.13 441.3,381.01 430.82,392.27 Z"
       fill="#414042"
       stroke="#00000f"
       stroke-width="0.405" />
    <path
       id="path66"
       d="M 481.75,438.47 C 481.77,438.87 481.71,439.26 481.58,439.64 481.44,440.01 481.23,440.36 480.96,440.64 480.69,440.93 480.36,441.16 479.99,441.32 479.63,441.48 479.23,441.56 478.83,441.56 478.44,441.56 478.04,441.48 477.68,441.32 477.31,441.16 476.98,440.93 476.71,440.64 476.44,440.36 476.23,440.01 476.09,439.64 475.95,439.26 475.9,438.87 475.92,438.47 475.96,437.73 476.29,437.03 476.83,436.52 477.37,436 478.09,435.72 478.83,435.72 479.58,435.72 480.3,436 480.84,436.52 481.38,437.03 481.71,437.73 481.75,438.47 Z"
       fill="#231f20"
       stroke="#00000f"
       stroke-width="0.405" />
    <path
       id="path67"
       d="M 481.75,459.41 C 481.75,459.79 481.67,460.17 481.53,460.53 481.38,460.88 481.17,461.2 480.89,461.48 480.62,461.75 480.3,461.96 479.95,462.11 479.59,462.25 479.21,462.33 478.83,462.33 478.45,462.33 478.07,462.25 477.71,462.11 477.36,461.96 477.04,461.75 476.76,461.48 476.49,461.2 476.28,460.88 476.13,460.53 475.99,460.17 475.91,459.79 475.91,459.41 475.91,458.64 476.22,457.89 476.76,457.35 477.31,456.8 478.06,456.49 478.83,456.49 479.6,456.49 480.35,456.8 480.89,457.35 481.44,457.89 481.75,458.64 481.75,459.41 Z"
       fill="#231f20"
       stroke="#00000f"
       stroke-width="0.405" />
    <path
       id="path68"
       d="M 502.83,344.53 C 502.83,344.53 498.46,350.63 491.91,355.79 487.84,358.91 483.46,361.61 478.84,363.84 474.22,361.61 469.83,358.91 465.76,355.79 459.22,350.63 454.85,344.53 454.85,344.53 454.85,344.53 453.25,355.53 454.85,367.04 456.12,376.16 460.28,389.55 460.28,389.55 L 478.84,364.24 497.39,389.55 C 497.39,389.55 501.56,376.16 502.83,367.05 504.43,355.53 502.83,344.53 502.83,344.53 Z"
       fill="white"
       stroke="#00000f"
       stroke-width="0.405" />
    <path
       id="path69"
       d="M 510.32,428.88 H 533.18 V 435.03 H 510.32 Z"
       fill="#414042"
       stroke="#00000f"
       stroke-width="0.405" />
    <path
       id="path70"
       d="M 481.9,497.1 C 481.9,497.48 481.82,497.86 481.68,498.22 481.53,498.57 481.32,498.89 481.05,499.17 480.77,499.44 480.45,499.65 480.1,499.8 479.74,499.94 479.36,500.02 478.98,500.02 478.6,500.02 478.22,499.94 477.86,499.8 477.51,499.65 477.19,499.44 476.92,499.17 476.64,498.89 476.43,498.57 476.28,498.22 476.14,497.86 476.06,497.48 476.06,497.1 476.1,496.36 476.43,495.66 476.97,495.15 477.51,494.63 478.23,494.35 478.98,494.35 479.72,494.35 480.44,494.63 480.98,495.15 481.52,495.66 481.85,496.36 481.89,497.1 Z"
       fill="#231f20"
       stroke="#00000f"
       stroke-width="0.405" />
  </g>
  <g
     id="cheville_gauche">
    <circle
       id="path9"
       cx="253"
       cy="524"
       r="0.6" />
  </g>
  <g
     id="cheville_droite">
    <circle
       id="path27"
       cx="195"
       cy="524"
       r="0.6" />
  </g>
  <g
     id="poignet_gauche">
    <circle
       id="path28"
       cx="406"
       cy="139"
       r="0.6" />
  </g>
  <g
     id="poignet_droite">
    <circle
       id="path29"
       cx="42.3"
       cy="139"
       r="0.6" />
  </g>
</svg>
