<svg width="571" height="561" viewBox="0 0 571 561" fill="none" xmlns="http://www.w3.org/2000/svg">
<g id="Group 1">
<g id="torse">
<path id="path55" d="M308.679 325.833L314.11 254.897H256L260.309 325.581C260.309 325.581 278.467 334.795 285.06 334.775C291.373 334.755 308.679 325.833 308.679 325.833Z" fill="#262626"/>
<path id="path8" fill-rule="evenodd" clip-rule="evenodd" d="M272 112L262 123V144.757C262 144.757 262 152.991 272 152.991H298.5C308 152.991 308 145.134 308 145.134L307.5 123L298.5 112" fill="#DD9974"/>
<path id="path56" d="M356 157.31L346.206 152.101L328.179 144.377L308.168 135.012L282.545 261.342L285.09 295.158C285.09 295.158 286.944 310.918 290.612 326.627C293.237 337.845 298.327 346.294 305.482 348.278C311.785 350.01 321.234 348.127 328.419 346.596C336.837 344.804 344.412 341.682 344.412 341.682L341.446 287.585L344.412 226.449L356 157.31Z" fill="#262626" stroke="black" stroke-width="0.4"/>
<path id="path57" d="M213 157.31L223.794 152.101L241.821 144.377L261.832 135.012L287.455 261.362L285.06 274.897C286.333 283.96 285.301 288.592 284.92 295.178C284.92 295.178 283.066 310.948 279.388 326.657C276.763 337.875 271.673 346.324 264.518 348.308C258.215 350.04 248.766 348.157 241.581 346.626C236.13 345.418 230.779 343.777 225.588 341.712L228.554 287.605L225.588 226.459L213 157.31Z" fill="#262626" stroke="black" stroke-width="0.4"/>
<path id="path58" d="M309.55 204.456H260.57V152.423H309.55V204.456Z" fill="white"/>
<path id="path59" d="M309.099 132.857C309.099 132.857 304.721 139.231 298.157 144.619C294.089 147.872 289.7 150.691 285.06 153.027C283.828 152.423 277.535 149.201 271.953 144.619C265.4 139.231 261.021 132.857 261.021 132.857C261.021 132.857 259.417 144.357 261.021 156.381C262.293 165.907 266.462 179.915 266.462 179.915L285.06 153.46L303.648 179.915C303.648 179.915 307.827 165.917 309.099 156.381C310.703 144.357 309.099 132.857 309.099 132.857Z" fill="#A7A9AC"/>
<path id="path60" d="M291.373 152.423H278.747L274.458 160.429L281.072 173.329H289.038L295.652 160.439L291.373 152.423Z" fill="#090A47"/>
<path id="path61" d="M293.387 164.85L295.652 160.429L291.373 152.423H285.371L285.06 152.584L284.739 152.423H278.737L274.468 160.429L276.723 164.86L285.06 152.997L293.387 164.85Z" fill="#03466B"/>
<path id="path62" d="M289.038 173.329H281.072L274.458 221.797H295.652L289.038 173.329Z" fill="#090A47"/>
<path id="path63" d="M308.669 217.889L314.11 153.954L285.05 213.499L256 153.954L260.309 217.638L285.06 274.897L308.669 217.889Z" fill="#332E2E"/>
<path id="path64" d="M285.2 274.897L309.831 145.364L330.443 165.686L322.667 169.593L333.169 180.932L285.2 274.897Z" fill="#414042"/>
<path id="path65" d="M285.06 274.897L260.269 145.364L239.657 165.686L247.443 169.593L236.941 180.932L285.06 274.897Z" fill="#414042"/>
<path id="path66" d="M287.976 227.456C287.996 227.859 287.936 228.252 287.806 228.634C287.665 229.007 287.455 229.359 287.184 229.641C286.914 229.933 286.583 230.165 286.212 230.326C285.852 230.487 285.451 230.568 285.05 230.568C284.659 230.568 284.258 230.487 283.898 230.326C283.527 230.165 283.196 229.933 282.926 229.641C282.655 229.359 282.445 229.007 282.304 228.634C282.164 228.252 282.114 227.859 282.134 227.456C282.174 226.711 282.505 226.006 283.046 225.492C283.587 224.969 284.309 224.687 285.05 224.687C285.802 224.687 286.523 224.969 287.064 225.492C287.605 226.006 287.936 226.711 287.976 227.456Z" fill="#231F20"/>
<path id="path67" d="M287.976 248.543C287.976 248.926 287.896 249.308 287.756 249.671C287.605 250.023 287.395 250.346 287.114 250.628C286.844 250.899 286.523 251.111 286.172 251.262C285.812 251.403 285.431 251.484 285.05 251.484C284.669 251.484 284.289 251.403 283.928 251.262C283.577 251.111 283.256 250.899 282.976 250.628C282.705 250.346 282.495 250.023 282.345 249.671C282.204 249.308 282.124 248.926 282.124 248.543C282.124 247.768 282.435 247.012 282.976 246.469C283.527 245.915 284.278 245.603 285.05 245.603C285.822 245.603 286.573 245.915 287.114 246.469C287.665 247.012 287.976 247.768 287.976 248.543Z" fill="#231F20"/>
<path id="path68" d="M309.099 132.857C309.099 132.857 304.721 139 298.157 144.196C294.079 147.338 289.69 150.057 285.06 152.302C280.431 150.057 276.032 147.338 271.953 144.196C265.4 139 261.021 132.857 261.021 132.857C261.021 132.857 259.417 143.934 261.021 155.525C262.293 164.709 266.462 178.193 266.462 178.193L285.06 152.705L303.648 178.193C303.648 178.193 307.827 164.709 309.099 155.535C310.703 143.934 309.099 132.857 309.099 132.857Z" fill="white"/>
<path id="path69" d="M316.605 217.799H339.512V223.992H316.605V217.799Z" fill="#414042"/>
<path id="path70" d="M288.126 286.497C288.126 286.88 288.046 287.263 287.906 287.625C287.756 287.978 287.545 288.3 287.275 288.582C286.994 288.854 286.673 289.065 286.323 289.216C285.962 289.357 285.581 289.438 285.2 289.438C284.82 289.438 284.439 289.357 284.078 289.216C283.727 289.065 283.407 288.854 283.136 288.582C282.856 288.3 282.645 287.978 282.495 287.625C282.355 287.263 282.274 286.88 282.274 286.497C282.314 285.752 282.645 285.047 283.186 284.534C283.727 284.01 284.449 283.728 285.2 283.728C285.942 283.728 286.663 284.01 287.205 284.534C287.746 285.047 288.076 285.752 288.116 286.497H288.126Z" fill="#231F20"/>
</g>
<g id="Group 2">
<g id="poignet_gauche">
<path id="path28" d="M505 167.048C505 166.496 504.552 166.048 504 166.048C503.448 166.048 503 166.496 503 167.048C503 167.6 503.448 168.048 504 168.048C504.552 168.048 505 167.6 505 167.048Z" fill="white"/>
</g>
<g id="coude_gauche">
<path id="path29" d="M428 167.048C428 166.496 427.552 166.048 427 166.048C426.448 166.048 426 166.496 426 167.048C426 167.6 426.448 168.048 427 168.048C427.552 168.048 428 167.6 428 167.048Z" fill="#262626"/>
</g>
<g id="avant_bras_gauche">
<path id="path100" d="M412 167.048C412 175.048 419 182.048 427 182.048H501V152.048L427 152.048C419 152.048 412 159.048 412 167.048Z" fill="#262626"/>
<path id="path99" d="M506.959 180.548L501 180.546L501.041 153.548L507 153.55L506.959 180.548Z" fill="white"/>
</g>
<g id="haut_bras_gauche">
<path id="path100_2" d="M332 167.048C332 175.048 339 182.048 347 182.048H427V152.048L347 152.048C339 152.048 332 159.048 332 167.048Z" fill="#262626"/>
</g>
<g id="main_gauche">
<g id="Vector">
<path d="M566.815 155.727C566.378 155.01 565.962 154.65 565.481 154.396C564.95 154.137 564.355 154.007 563.462 153.76C561.748 153.63 560.014 153.569 558.29 153.582L556.78 153.566L552.002 153.53C549.424 153.505 546.85 153.467 544.286 153.446C542.192 153.42 540.116 153.383 538.023 153.298C537.116 153.267 536.677 153.267 536.295 153.326C535.939 153.369 535.61 153.479 534.92 153.704L534.635 153.811L534.599 153.508C534.508 152.891 534.449 152.567 534.472 152.207C534.519 151.73 534.613 151.272 534.742 150.816L534.764 150.734L534.841 150.667C535.608 150.016 536.459 149.49 537.382 149.107L537.943 148.841C540.593 147.449 542.228 146.321 543.598 143.694C544.098 141.5 543.586 139.694 542.56 137.677C542.056 137.344 541.829 137.21 541.586 137.13C541.339 137.042 541.079 137.031 540.472 137C538.32 137.573 536.87 138.502 535.077 139.895C531.572 142.485 527.905 144.833 524.113 146.965C521.063 148.783 518.01 150.754 516.534 154.019L516.531 154.033C515.784 155.399 514.654 155.601 513.369 155.996L513.36 156.001C512.362 156.232 511.381 156.394 510.391 156.538L507.939 156.891H501C501 163.531 501.045 170.113 501 176.755H508.114C509.477 176.534 510.203 176.392 510.898 176.476C511.591 176.537 512.251 176.78 513.471 177.253L513.553 177.275L513.588 177.336L513.905 177.765C514.115 178.048 514.302 178.332 514.499 178.634L514.799 179.073C516.284 181.265 518.6 181.936 521.134 182.586C524.501 183.217 527.818 183.242 531.274 183.268C537.189 183.294 543.081 183.979 548.851 185.313L549.42 185.458L550.551 185.717L552.124 186.102L552.657 186.245C553.618 186.51 554.61 186.607 555.594 186.512C556.489 186.423 557.369 186.146 558.411 185.671C558.639 185.447 558.836 185.207 558.984 184.924C559.106 184.635 559.181 184.326 559.23 184.009C559.213 183.58 559.156 183.162 559.042 182.744C558.942 182.432 558.754 182.125 558.36 181.463C555.201 179.672 551.589 178.975 547.997 178.254L545.062 177.651L543.77 177.393C543.216 177.273 542.914 177.229 542.602 177.109C542.29 176.989 541.98 176.832 541.392 176.514L541.556 176.038L548.046 177.199L550.243 177.604L552.372 177.992L554.46 178.368C555.955 178.637 557.413 178.903 558.901 179.199L560.212 179.47L561.282 179.684C562.68 179.846 564.077 179.525 565.254 178.764C565.592 178.269 565.714 178.06 565.793 177.818C565.892 177.449 565.94 177.052 565.94 176.671C565.833 176.167 565.682 175.665 565.474 175.185C565.296 174.837 565.034 174.503 564.499 173.796C560.461 172.202 555.846 171.748 551.53 170.973C548.623 170.457 545.744 169.752 542.939 168.854L543.054 168.372L544.455 168.579C546.851 168.928 549.24 169.246 551.638 169.559L553.335 169.78C555.182 170.019 557.014 170.231 558.846 170.444L560.653 170.694C563.806 171.056 566.105 171.218 568.922 169.857C569.362 169.279 569.562 169.026 569.702 168.748C569.825 168.481 569.898 168.208 570.046 167.603C569.889 167.012 569.593 166.479 569.189 166.019C568.825 165.629 568.345 165.317 567.633 164.885C565.693 164.124 563.637 163.682 561.542 163.575L560.243 163.425C554.396 162.817 548.533 162.322 542.665 161.819L542.658 161.326C545.419 160.968 548.189 160.766 550.973 160.648L552.023 160.607C553.465 160.525 554.922 160.469 556.371 160.418L559.574 160.266L561.478 160.183C563.081 160.02 564.351 159.76 565.809 159.126C566.188 158.641 566.506 158.112 566.713 157.53C566.853 157.033 566.902 156.497 566.815 155.727Z" fill="#DD9974"/>
<path d="M533.943 151.451L532.994 151.768C532.704 152.605 532.704 152.605 532.453 153.731L532.142 154.973L531.549 157.544C530.843 160.342 529.967 161.806 527.522 163.391C526.161 164.153 524.737 164.826 523.283 165.388L521.713 166.029L520.522 166.485L521.313 167.276C522.949 166.77 524.598 166.245 526.233 165.717L527.65 165.291L529.004 164.856L530.248 164.472C531.491 163.824 531.753 163.338 532.217 162.042C532.459 160.921 532.662 159.673 532.689 159.519C532.923 158.644 533.471 156.353 533.945 156.195C534.473 153.05 534.473 153.05 533.943 151.451Z" fill="#B67255"/>
<path d="M540.857 157.066C540.529 159.299 539.992 163.189 539.805 165.444C539.562 168.264 539.023 171.011 538.486 173.781C538.288 175.338 537.96 177.549 538.44 178.98C540.005 174.232 540.562 169.557 541.587 164.751C541.744 164.163 541.499 162.399 541.665 161.807C541.577 160.034 541.863 158.529 540.862 157.075L540.857 157.066Z" fill="#BB7859"/>
</g>
</g>
<g id="epaule_gauche">
<circle id="Ellipse 2" cx="347" cy="167.048" r="1" transform="rotate(-90 347 167.048)" fill="#262626"/>
</g>
</g>
<g id="Group 3">
<g id="poignet_droite">
<path id="path28_2" d="M65.0456 167.048C65.0456 166.496 65.4934 166.048 66.0456 166.048C66.5979 166.048 67.0456 166.496 67.0456 167.048C67.0456 167.6 66.5979 168.048 66.0456 168.048C65.4934 168.048 65.0456 167.6 65.0456 167.048Z" fill="white"/>
</g>
<g id="coude_droite">
<path id="path29_2" d="M142.046 167.048C142.046 166.496 142.493 166.048 143.046 166.048C143.598 166.048 144.046 166.496 144.046 167.048C144.046 167.6 143.598 168.048 143.046 168.048C142.493 168.048 142.046 167.6 142.046 167.048Z" fill="#262626"/>
</g>
<g id="avant_bras_droite">
<path id="path100_3" d="M158.046 167.048C158.046 175.048 151.046 182.048 143.046 182.048H69.0457V152.048L143.046 152.048C151.046 152.048 158.046 159.048 158.046 167.048Z" fill="#262626"/>
<path id="path99_2" d="M63.0862 180.548L69.0456 180.546L69.0051 153.548L63.0456 153.55L63.0862 180.548Z" fill="white"/>
</g>
<g id="haut_bras_droite">
<path id="path100_4" d="M238.046 167.048C238.046 175.048 231.046 182.048 223.046 182.048H143.046V152.048L223.046 152.048C231.046 152.048 238.046 159.048 238.046 167.048Z" fill="#262626"/>
</g>
<g id="main_droite">
<g id="Vector_2">
<path d="M3.23064 155.727C3.66796 155.01 4.08387 154.65 4.56502 154.396C5.09581 154.137 5.69051 154.007 6.58343 153.76C8.29818 153.63 10.0312 153.569 11.7553 153.582L13.2661 153.566L18.0441 153.53C20.6217 153.505 23.1956 153.467 25.7595 153.446C27.8534 153.42 29.9299 153.383 32.0228 153.298C32.9296 153.267 33.3687 153.267 33.7505 153.326C34.1063 153.369 34.4357 153.479 35.1256 153.704L35.4104 153.811L35.4465 153.508C35.5373 152.891 35.597 152.567 35.5738 152.207C35.5263 151.73 35.4328 151.272 35.3034 150.816L35.2815 150.734L35.2048 150.667C34.4375 150.016 33.5865 149.49 32.6641 149.107L32.1022 148.841C29.4528 147.449 27.818 146.321 26.448 143.694C25.948 141.5 26.4596 139.694 27.4856 137.677C27.9895 137.344 28.2171 137.21 28.4593 137.13C28.7065 137.042 28.967 137.031 29.5737 137C31.7257 137.573 33.1752 138.502 34.9688 139.895C38.4737 142.485 42.1409 144.833 45.9331 146.965C48.9825 148.783 52.0361 150.754 53.5113 154.019L53.5149 154.033C54.2617 155.399 55.392 155.601 56.6765 155.996L56.6852 156.001C57.6839 156.232 58.6643 156.394 59.6547 156.538L62.1066 156.891H69C69.0002 163.531 68.9552 170.113 69 176.755H61.9313C60.5691 176.534 59.8429 176.392 59.1479 176.476C58.4543 176.537 57.7946 176.78 56.5745 177.253L56.4925 177.275L56.4575 177.336L56.1405 177.765C55.9309 178.048 55.7436 178.332 55.5463 178.634L55.2466 179.073C53.762 181.265 51.4458 181.936 48.9114 182.586C45.5447 183.217 42.2278 183.242 38.7721 183.268C32.8567 183.294 26.9644 183.979 21.1945 185.313L20.6258 185.458L19.4947 185.717L17.9214 186.102L17.3887 186.245C16.4275 186.51 15.436 186.607 14.4516 186.512C13.5564 186.423 12.677 186.146 11.6347 185.671C11.4063 185.447 11.2101 185.207 11.0613 184.924C10.9398 184.635 10.8642 184.326 10.816 184.009C10.8328 183.58 10.8893 183.162 11.004 182.744C11.1034 182.432 11.292 182.125 11.6857 181.463C14.8442 179.672 18.4568 178.975 22.0483 178.254L24.9832 177.651L26.2756 177.393C26.8293 177.273 27.1322 177.229 27.444 177.109C27.7559 176.989 28.0654 176.832 28.6535 176.514L28.4894 176.038L21.9997 177.199L19.8024 177.604L17.6735 177.992L15.5855 178.368C14.091 178.637 12.6323 178.903 11.1451 179.199L9.83405 179.47L8.76392 179.684C7.36531 179.846 5.96886 179.525 4.79142 178.764C4.45377 178.269 4.3319 178.06 4.25235 177.818C4.15352 177.449 4.10565 177.052 4.10611 176.671C4.21255 176.167 4.36364 175.665 4.57168 175.185C4.74936 174.837 5.01131 174.503 5.54658 173.796C9.58485 172.202 14.1998 171.748 18.5159 170.973C21.4232 170.457 24.3015 169.752 27.1062 168.854L26.9917 168.372L25.5904 168.579C23.195 168.928 20.8059 169.246 18.4081 169.559L16.7103 169.78C14.8636 170.019 13.0319 170.231 11.2002 170.444L9.39309 170.694C6.23973 171.056 3.94064 171.218 1.12364 169.857C0.683404 169.279 0.483597 169.026 0.34343 168.748C0.220583 168.481 0.147383 168.208 -7.62939e-06 167.603C0.156428 167.012 0.452775 166.479 0.856697 166.019C1.22062 165.629 1.70079 165.317 2.4122 164.885C4.35303 164.123 6.40903 163.682 8.50323 163.575L9.80253 163.425C15.6498 162.817 21.5127 162.322 27.3806 161.819L27.3878 161.326C24.6271 160.968 21.8571 160.766 19.073 160.648L18.0225 160.607C16.5803 160.525 15.1232 160.469 13.6747 160.418L10.4715 160.266L8.56792 160.183C6.96486 160.02 5.69466 159.76 4.23634 159.126C3.8577 158.641 3.54006 158.112 3.33302 157.53C3.19259 157.033 3.14411 156.497 3.23064 155.727Z" fill="#DD9974"/>
<path d="M36.1031 151.451L37.0518 151.768C37.3421 152.605 37.3421 152.605 37.5926 153.731L37.9033 154.973L38.4971 157.544C39.2029 160.342 40.0782 161.806 42.5234 163.391C43.8844 164.153 45.309 164.826 46.7627 165.388L48.3326 166.029L49.5238 166.485L48.7327 167.276C47.0964 166.77 45.4478 166.245 43.8129 165.717L42.3958 165.291L41.0421 164.856L39.7972 164.472C38.5548 163.824 38.2928 163.338 37.8284 162.042C37.5866 160.921 37.3838 159.673 37.3572 159.519C37.1229 158.644 36.5749 156.353 36.1006 156.195C35.5726 153.05 35.5726 153.05 36.1031 151.451Z" fill="#B67255"/>
<path d="M29.1892 157.066C29.5166 159.299 30.0537 163.189 30.2409 165.444C30.4838 168.264 31.0223 171.011 31.5595 173.781C31.7572 175.338 32.086 177.549 31.6058 178.98C30.0405 174.232 29.4833 169.557 28.4591 164.751C28.3017 164.163 28.5464 162.399 28.3804 161.807C28.4689 160.034 28.1829 158.529 29.1841 157.075L29.1892 157.066Z" fill="#BB7859"/>
</g>
</g>
<g id="epaule_droite">
<circle id="Ellipse 2_2" cx="1" cy="1" r="1" transform="matrix(0 -1 -1 0 224.046 168.048)" fill="#262626"/>
</g>
</g>
<g id="Group 4">
<g id="genou_gauche">
<path id="Ellipse 1" d="M313 426C313.56 426 314 425.56 314 425C314 424.44 313.56 424 313 424C312.44 424 312 424.44 312 425C312 425.56 312.44 426 313 426Z" fill="#262626"/>
</g>
<g id="cuisse_gauche">
<path id="path39" d="M295 425V313H313H331V425H295Z" fill="#262626"/>
</g>
<g id="tibia_gauche">
<path id="os_tibia_gauche" d="M313.08 407C322.976 407 331 414.775 331 424.7V523H295V424.703C295.149 414.898 303.273 407 313.08 407Z" fill="#262626"/>
<path id="chaussette_gauche" d="M298 523H328V539H298V523Z" fill="white"/>
</g>
<g id="pied_gauche">
<path id="path1-5" d="M293.162 552.361L293.231 560.539L318.86 560.49V555.954C326.738 556.966 334.846 559.646 342.724 560.539C347.88 561.155 353.803 561.473 365.79 559.368C369.4 558.793 372.87 558.008 376.191 557.026C382.524 555.1 388.706 553.165 391 551.239C390.741 550.147 390.661 548.668 390.132 548.083C387.23 549.671 383.77 551.14 379.502 552.46C373.209 554.653 366.578 556.222 359.458 556.917C352.447 558.028 346.115 557.84 340.191 556.917C325.462 553.72 320.516 552.877 318.372 552.768C309.895 552.162 301.528 552.45 293.162 552.361Z" fill="black"/>
<path id="path2-3" d="M293.531 552.361C293.271 550.197 292.972 547.348 293.002 545.353C293.002 543.209 293.501 540.857 294.059 538.137C294.628 535.417 295.266 532.41 296.552 529.085L300.431 530.395C304.201 531.784 307.971 533.224 311.7 533.571C314.074 533.819 316.527 533.502 318.97 532.608C320.635 532.013 322.291 531.139 323.876 529.998C324.445 527.248 325.871 524.916 328.135 523L331.675 525.164C332.133 525.015 333.071 525.094 334.467 525.412L348.528 535.02L349.844 536.4C352.068 537.839 354.362 539.07 356.665 540.062C360.355 541.661 364.095 542.524 367.824 542.673C371.554 542.693 374.984 541.551 378.904 541.541C381.806 541.67 384.099 542.226 385.765 543.199C387.041 543.963 387.948 544.817 388.477 545.73C388.966 546.554 389.414 547.427 389.494 548.42C387.759 549.403 386.024 550.097 384.329 550.782C382.065 551.646 379.582 552.47 377.168 553.234C376.042 553.621 373.02 554.594 368.463 555.537C367.515 555.845 361.033 556.857 357.493 557.204C354.711 557.562 351.879 557.711 349.126 557.681C345.167 557.82 341.328 557.085 338.386 556.629C333.639 555.586 328.922 554.644 324.106 553.591C318.751 552.718 313.246 552.301 307.631 552.509C302.915 552.47 298.248 552.38 293.531 552.361Z" fill="#1F1A1A" stroke="black" stroke-width="0.399984"/>
<path id="path7-5" d="M318.94 552.807C319.618 551.328 321.234 549.194 323.348 547.676C324.594 546.782 326.06 546.117 327.756 545.681C329.83 545.184 331.904 545.105 333.789 545.135C334.387 545.075 336.082 545.254 338.875 545.671M338.875 545.671L346.374 546.485C346.454 545.522 346.753 544.628 347.202 543.805L348.747 540.479C349.276 539.467 349.655 538.306 349.236 537.164C349.017 536.519 346.523 534.325 345.815 533.839L335.783 527.04C335.554 526.891 334.507 526.305 333.639 526.176C332.542 525.978 331.525 526.117 330.548 526.573C328.623 527.338 327.347 528.777 325.831 530.008C324.066 531.417 321.882 532.668 319.199 533.76C316.676 534.941 313.206 535.129 308.798 534.355C305.557 533.591 301.867 532.33 297.719 530.583M338.875 545.671L339.663 543.616C340.311 542.137 340.65 540.668 340.72 539.199C340.5 537.77 339.932 536.598 338.984 535.685C337.518 534.375 335.933 533.243 334.238 532.261L329.979 529.898M297.719 530.583L296.213 529.918M297.719 530.583C297.42 530.961 297.151 531.596 296.851 532.499M329.979 529.898L327.267 528.757M329.979 529.898L325.043 533.253C323.348 534.325 321.274 535.258 318.82 536.033C316.906 536.638 314.792 536.926 312.488 536.896C310.613 536.817 308.838 536.559 307.103 536.142L301.11 534.286L296.851 532.499M296.851 532.499L295.495 531.874M296.851 532.499C296.253 535.05 296.433 536.737 297.34 537.551C299.035 539.07 299.075 538.584 303.712 541.055C306.126 542.336 307.362 544.996 307.861 547.06C308.16 548.668 308.05 550.852 307.631 552.509" stroke="#FDFBFE" stroke-opacity="0.95724" stroke-width="0.099998"/>
<path id="path22-2" d="M346.563 537.174L348.528 535.02M341.926 534.683L343.741 531.745M338.426 531.804L340.271 529.382M335.903 529.968L337.668 527.606M332.622 528.499L334.806 525.64" stroke="#FDFBFE" stroke-opacity="0.95724" stroke-width="0.49999"/>
</g>
<g id="cheville_gauche">
<path id="path9" d="M313 532C313.552 532 314 531.552 314 531C314 530.448 313.552 530 313 530C312.448 530 312 530.448 312 531C312 531.552 312.448 532 313 532Z" fill="white"/>
</g>
<g id="hanche_gauche">
<path id="path27" d="M313 314C313.552 314 314 313.552 314 313C314 312.448 313.552 312 313 312C312.448 312 312 312.448 312 313C312 313.552 312.448 314 313 314Z" fill="#262626"/>
</g>
</g>
<g id="Group 5">
<g id="genou_droite">
<path id="Ellipse 1_2" d="M256 426C256.56 426 257 425.56 257 425C257 424.44 256.56 424 256 424C255.44 424 255 424.44 255 425C255 425.56 255.44 426 256 426Z" fill="#262626"/>
</g>
<g id="cuisse_droite">
<path id="path39_2" d="M238 425V313H256H274V425H238Z" fill="#262626"/>
</g>
<g id="tibia_droite">
<path id="os_tibia_gauche_2" d="M256.08 407C265.976 407 274 414.775 274 424.7V523H238V424.703C238.149 414.898 246.273 407 256.08 407Z" fill="#262626"/>
<path id="chaussette_droite" d="M271 523H241V539H271V523Z" fill="white"/>
</g>
<g id="cheville_droite">
<path id="path9_2" d="M256 532C256.552 532 257 531.552 257 531C257 530.448 256.552 530 256 530C255.448 530 255 530.448 255 531C255 531.552 255.448 532 256 532Z" fill="white"/>
</g>
<g id="hanche_droite">
<path id="path27_2" d="M256 314C256.552 314 257 313.552 257 313C257 312.448 256.552 312 256 312C255.448 312 255 312.448 255 313C255 313.552 255.448 314 256 314Z" fill="#262626"/>
</g>
<g id="pied_droite">
<path id="path1-5_2" d="M275.838 552.361L275.769 560.539L250.14 560.49V555.954C242.262 556.966 234.154 559.646 226.276 560.539C221.12 561.155 215.197 561.473 203.21 559.368C199.6 558.793 196.13 558.008 192.809 557.026C186.476 555.1 180.294 553.165 178 551.239C178.259 550.147 178.339 548.668 178.868 548.083C181.77 549.671 185.23 551.14 189.498 552.46C195.791 554.653 202.422 556.222 209.542 556.917C216.553 558.028 222.885 557.84 228.809 556.917C243.538 553.72 248.484 552.877 250.628 552.768C259.105 552.162 267.472 552.45 275.838 552.361Z" fill="black"/>
<path id="path2-3_2" d="M275.469 552.361C275.729 550.197 276.028 547.348 275.998 545.353C275.998 543.209 275.499 540.857 274.941 538.137C274.372 535.417 273.734 532.41 272.448 529.085L268.569 530.395C264.799 531.784 261.029 533.224 257.3 533.571C254.926 533.819 252.473 533.502 250.03 532.608C248.365 532.013 246.709 531.139 245.124 529.998C244.555 527.248 243.129 524.916 240.865 523L237.325 525.164C236.867 525.015 235.929 525.094 234.533 525.412L220.472 535.02L219.156 536.4C216.932 537.839 214.638 539.07 212.335 540.062C208.645 541.661 204.905 542.524 201.176 542.673C197.446 542.693 194.016 541.551 190.096 541.541C187.194 541.67 184.901 542.226 183.235 543.199C181.959 543.963 181.052 544.817 180.523 545.73C180.034 546.554 179.586 547.427 179.506 548.42C181.241 549.403 182.976 550.097 184.671 550.782C186.935 551.646 189.418 552.47 191.832 553.234C192.958 553.621 195.98 554.594 200.537 555.537C201.485 555.845 207.967 556.857 211.507 557.204C214.289 557.562 217.121 557.711 219.874 557.681C223.833 557.82 227.672 557.085 230.614 556.629C235.361 555.586 240.078 554.644 244.894 553.591C250.249 552.718 255.754 552.301 261.369 552.509C266.085 552.47 270.752 552.38 275.469 552.361Z" fill="#1F1A1A" stroke="black" stroke-width="0.399984"/>
<path id="path7-5_2" d="M250.06 552.807C249.382 551.328 247.766 549.194 245.652 547.676C244.406 546.782 242.94 546.117 241.244 545.681C239.17 545.184 237.096 545.105 235.211 545.135C234.613 545.075 232.918 545.254 230.125 545.671M230.125 545.671L222.626 546.485C222.546 545.522 222.247 544.628 221.798 543.805L220.253 540.479C219.724 539.467 219.345 538.306 219.764 537.164C219.983 536.519 222.477 534.325 223.185 533.839L233.217 527.04C233.446 526.891 234.493 526.305 235.361 526.176C236.458 525.978 237.475 526.117 238.452 526.573C240.377 527.338 241.653 528.777 243.169 530.008C244.934 531.417 247.118 532.668 249.801 533.76C252.324 534.941 255.794 535.129 260.202 534.355C263.443 533.591 267.133 532.33 271.281 530.583M230.125 545.671L229.337 543.616C228.689 542.137 228.35 540.668 228.28 539.199C228.5 537.77 229.068 536.598 230.016 535.685C231.482 534.375 233.067 533.243 234.762 532.261L239.021 529.898M271.281 530.583L272.787 529.918M271.281 530.583C271.58 530.961 271.849 531.596 272.149 532.499M239.021 529.898L241.733 528.757M239.021 529.898L243.957 533.253C245.652 534.325 247.726 535.258 250.18 536.033C252.094 536.638 254.208 536.926 256.512 536.896C258.387 536.817 260.162 536.559 261.897 536.142L267.89 534.286L272.149 532.499M272.149 532.499L273.505 531.874M272.149 532.499C272.747 535.05 272.567 536.737 271.66 537.551C269.965 539.07 269.925 538.584 265.288 541.055C262.874 542.336 261.638 544.996 261.139 547.06C260.84 548.668 260.95 550.852 261.369 552.509" stroke="#FDFBFE" stroke-opacity="0.95724" stroke-width="0.099998"/>
<path id="path22-2_2" d="M222.437 537.174L220.472 535.02M227.074 534.683L225.259 531.745M230.574 531.804L228.729 529.382M233.097 529.968L231.332 527.606M236.378 528.499L234.194 525.64" stroke="#FDFBFE" stroke-opacity="0.95724" stroke-width="0.49999"/>
</g>
</g>
<g id="cou">
<circle id="Ellipse 3" cx="285" cy="143" r="1" fill="#DD9974"/>
</g>
<g id="tete">
<g id="criniere">
<path id="path1" d="M253.451 12.0479C248.699 12.6103 244.841 16.5473 241.928 18.9276C235.387 24.5018 233.177 30.1462 231.61 32.9986C229.59 36.7147 228.535 41.3648 229.389 47.7424C229.851 51.2275 230.464 56.0283 231.549 60.0457C232.383 63.129 233.297 66.2425 234.855 69.0346C236.794 72.5097 238.07 72.7005 239.094 75.0808C240.853 79.1785 240.993 84.1099 243.636 88.5491C244.67 90.2766 244.359 84.0396 244.138 81.4483C243.937 78.827 243.816 76.2157 243.786 73.5943C243.706 69.4665 243.324 65.3587 242.651 61.2911C241.817 56.5104 241.325 52.8847 239.064 48.5861C238.07 46.7079 238.361 39.1753 241.335 34.5252C244.871 28.6899 248.739 23.8389 253.793 19.5001C252.336 16.708 253.703 12.0177 253.461 12.0479H253.451Z" fill="#46301A" stroke="black" stroke-width="0.4"/>
<path id="path2" d="M284.677 1C280.698 1 276.72 1.45195 272.832 2.20522C268.351 3.08904 263.709 4.18377 259.731 6.57412C257.068 8.17104 254.255 10.1998 252.889 13.0924C252.386 14.1469 252.527 15.6434 252.768 16.8888C252.899 17.5918 253.1 18.2848 253.351 18.9577L253.431 19.0984C253.451 19.1586 253.471 19.2289 253.492 19.2691C253.592 19.3896 253.682 19.4398 253.793 19.5001C254.024 19.6407 254.335 19.7713 254.737 19.9018C255.541 20.1831 256.666 20.4442 257.912 20.6149C260.404 20.9665 263.368 20.9564 265.035 19.4599C265.106 19.3896 265.156 19.3695 265.166 19.3695L265.276 19.49C265.447 19.711 265.668 20.2232 265.95 20.8459C266.633 22.5232 267.858 23.9293 269.436 24.8231C273.806 27.1331 277.182 30.7589 281.582 31.9139C286.395 33.1793 290.836 34.726 296.512 34.0832C300.109 33.6815 303.736 34.0732 308.377 31.4217C311.984 29.3628 314.415 25.6266 315.782 23.8389C317.208 23.7384 318.484 24.562 319.881 25.8275C321.328 27.1432 322.855 28.9008 324.734 30.3671C327.858 32.7977 328.843 37.3273 330.209 41.2543C331.294 44.3778 330.531 47.7524 329.174 52.2017C327.898 56.4099 325.809 60.7587 326.2 65.3084C326.914 73.5742 325.567 81.8501 325.065 88.0268C325.045 88.298 324.824 88.1574 325.065 88.0268C324.643 89.7141 325.889 90.377 326.723 88.991C327.396 87.8862 329.968 82.9548 329.898 79.7409C329.878 78.0637 331.897 73.4336 333.213 71.9673C333.916 71.1839 334.79 70.4607 335.182 69.3861C337.443 63.1993 339.05 56.8016 339.985 50.2934C340.537 45.7337 340.517 40.8827 339.06 36.4836C337.453 31.6025 334.097 27.4445 330.792 23.6079C327.145 19.5101 322.985 15.8945 318.424 12.8413C313.501 9.46665 308.196 6.67456 302.631 4.50517C298.15 2.71743 293.438 1.59255 288.645 1.16068C287.319 1.05021 286.003 1 284.677 1Z" fill="#46301A"/>
<path id="path3" d="M325.065 88.0268C325.567 81.8501 326.924 73.5742 326.2 65.3084C325.809 60.7587 327.898 56.4099 329.174 52.2017C330.531 47.7625 331.294 44.3778 330.209 41.2543C328.843 37.3273 327.858 32.7977 324.744 30.3671C322.855 28.9008 321.328 27.1432 319.881 25.8275C318.484 24.562 317.198 23.7384 315.792 23.8389C314.415 25.6266 311.974 29.3628 308.377 31.4217C303.736 34.0732 300.109 33.6815 296.512 34.0832C290.846 34.726 286.395 33.1793 281.582 31.9139C277.182 30.7589 273.806 27.1231 269.436 24.8231C267.858 23.9293 266.633 22.5232 265.95 20.8459C265.668 20.2232 265.447 19.711 265.276 19.49C265.216 19.3997 265.166 19.3796 265.166 19.3796C265.156 19.3796 265.106 19.3896 265.035 19.47C263.368 20.9464 260.404 20.9665 257.912 20.6149C256.837 20.4743 255.772 20.2333 254.737 19.9018C254.406 19.8014 254.094 19.6708 253.793 19.5001C253.682 19.4499 253.582 19.3695 253.492 19.2691C253.471 19.2289 253.451 19.1586 253.431 19.0984L253.341 18.9577L253.16 18.4757C253.029 18.0739 252.879 17.5115 252.768 16.8888C252.527 15.6434 252.386 14.1469 252.889 13.0924C254.255 10.1998 257.068 8.17104 259.731 6.57412C263.709 4.18377 268.341 3.08904 272.832 2.20522C276.71 1.45195 280.698 1 284.667 1C286.003 1 287.329 1.06026 288.645 1.17074C293.448 1.60261 298.16 2.71743 302.631 4.50517C308.196 6.67456 313.501 9.46665 318.424 12.8413C322.985 15.8945 327.145 19.5101 330.792 23.6079C334.097 27.4445 337.453 31.6025 339.06 36.4836C340.517 40.8827 340.537 45.7337 339.985 50.2934C339.05 56.8016 337.443 63.1993 335.172 69.3861C334.79 70.4607 333.926 71.1839 333.213 71.9673C331.897 73.4336 329.878 78.0637 329.898 79.7409C329.968 82.9548 327.396 87.8862 326.723 88.991C325.889 90.377 324.643 89.7141 325.065 88.0268ZM325.065 88.0268C324.824 88.1574 325.045 88.298 325.065 88.0268Z" stroke="black" stroke-width="0.4"/>
</g>
<g id="oreille_droite">
<path id="path4" fill-rule="evenodd" clip-rule="evenodd" d="M236.744 71.8166L233.951 70.4607C233.277 70.3603 232.584 70.4206 231.941 70.6315C231.288 70.8324 230.695 71.1839 230.193 71.6559C228.676 73.534 228.123 74.7995 228.164 76.6777C227.762 80.2833 228.103 83.9291 229.158 87.3941C229.761 91.0399 231.348 94.7359 233.92 98.4921C235.186 100.179 237.055 101.314 239.135 101.656C241.375 101.525 242.852 100.913 243.575 99.8379L241.928 84.7727C239.516 75.7938 240.049 77.1196 240.059 77.8327C240.772 78.3248 239.024 74.4781 236.744 71.8166Z" fill="#DD9974" stroke="black" stroke-width="0.4" stroke-miterlimit="3.2"/>
<path id="path5" d="M231.168 76.6074C231.358 75.4925 231.76 75.0104 232.373 75.131C234.182 74.9301 235.95 77.4008 237.668 82.5632C236.09 83.4872 235.347 85.2247 235.226 86.1487C235.136 90.0154 236.161 91.5822 238.562 92.456" stroke="#4C3B2A" stroke-width="1.63019" stroke-miterlimit="3.2"/>
</g>
<g id="oreille_gauche">
<path id="path6" fill-rule="evenodd" clip-rule="evenodd" d="M334.378 70.7721C336.82 69.5167 338.91 69.8481 340.025 71.7363C340.889 73.2227 342.526 75.0105 341.833 80.8859C341.753 87.0928 339.754 93.1088 336.097 98.1205C335.443 99.1349 334.559 99.9786 333.535 100.591C332.5 101.204 331.334 101.575 330.129 101.666C329.415 101.746 328.692 101.656 328.009 101.415C327.326 101.174 326.713 100.792 326.2 100.28L326.723 88.991L329.566 82.2217L330.199 78.1239L332.429 73.062L334.378 70.7721Z" fill="#DD9974" stroke="black" stroke-width="0.4" stroke-miterlimit="3.2"/>
<path id="path7" d="M330.752 92.7071C332.018 92.8075 333.203 91.6726 334.308 89.2923C334.589 88.4085 334.7 87.4845 334.61 86.5605C334.529 85.6365 334.248 84.7426 333.806 83.9291L332.249 82.6335C332.992 78.8772 334.66 76.286 337.232 74.8498C338.437 75.4323 338.89 76.0148 338.598 76.5974" stroke="#4C3B2A" stroke-width="1.63019" stroke-miterlimit="3.2"/>
</g>
<g id="face">
<path id="path10" fill-rule="evenodd" clip-rule="evenodd" d="M242.721 87.4845C243.183 92.3455 243.354 95.5293 243.826 103.916C243.736 109.088 244.822 113.799 247.885 119.131C251.565 125.535 256.244 127.082 261.921 131.806C266.515 135.63 268.424 139.054 274 141.207C277.928 142.724 279.483 143.005 284.637 142.965C290.273 143.156 295.694 142.047 297.225 141.207C298.756 140.368 301.073 139.359 304.349 135.583C305.223 134.578 305.745 134.147 308.076 132.369C313.049 128.683 316.937 125.449 319.7 122.657C322.654 119.594 324.573 115.687 325.206 111.488C326.08 102.7 326.502 97.5681 326.723 89.001L326.753 84.2605C326.602 75.9646 325.628 65.9211 327.547 57.0628C328.27 53.7384 330.219 50.655 330.46 47.18C330.601 45.2114 330.621 43.1927 330.209 41.2644C329.566 38.1007 328.35 35.0876 326.602 32.3859C324.854 29.7947 319.881 25.8376 319.881 25.8376C318.394 24.4214 317.028 23.7586 315.792 23.8489C315.792 23.8489 312.868 28.3585 310.678 29.7947C306.549 32.4863 301.425 33.6815 296.512 34.0933C292.122 34.4649 287.59 33.7418 283.391 32.406C279.282 31.02 275.414 28.9812 271.958 26.3498C269.335 24.4214 268.049 20.6852 265.035 19.47C262.283 18.3552 257.169 17.9132 253.793 19.5202C247.906 22.2922 244.248 28.72 241.345 34.5453C239.486 38.1609 238.532 42.1884 238.572 46.256C238.703 50.0725 241.114 53.4672 241.918 57.2034C242.862 61.5623 243.666 70.4909 243.666 70.4909C243.575 70.4909 243.877 77.8026 244.138 81.4483C244.269 83.5173 242.721 87.4945 242.721 87.4945V87.4845Z" fill="#DD9974" stroke="black" stroke-width="0.4" stroke-miterlimit="3.2"/>
<path id="path11" d="M279.744 69.0949C281.221 70.8726 280.779 71.8368 280.538 73.2027C279.613 78.3048 280.759 85.0239 279.211 88.9911C278.468 90.9094 275.283 90.8089 274.871 92.8478C274.59 94.3041 274.188 96.1521 275.323 96.8752C276.84 97.8293 278.81 97.6485 279.854 98.5826C281.351 99.9485 283.13 101.505 285.149 101.545C286.244 101.515 287.309 101.244 288.294 100.762C289.268 100.28 290.132 99.5869 290.826 98.7433C291.82 97.2066 294.543 97.4778 295.568 95.9713C296.472 94.6455 295.266 93.1491 294.754 91.7128C294.292 90.3971 292.513 89.3828 292.242 88.9911" stroke="black" stroke-width="0.976271" stroke-miterlimit="3.2"/>
</g>
<g id="bouche">
<path id="path14" fill-rule="evenodd" clip-rule="evenodd" d="M285.993 111.669C294.553 111.75 304.128 112.292 304.128 114.923C304.128 117.806 294.623 124.766 285.591 124.766C276.549 124.766 266.623 118.117 266.623 115.235C266.623 111.247 282.698 111.639 285.993 111.669Z" fill="#52110F" stroke="black" stroke-width="0.4"/>
<path id="path15" fill-rule="evenodd" clip-rule="evenodd" d="M295.759 122.255C292.584 123.812 289.118 124.665 285.591 124.756C281.834 124.756 277.925 123.621 274.64 122.074C277.142 121.271 280.809 120.779 284.918 120.779C289.349 120.779 293.267 121.351 295.759 122.255Z" fill="white"/>
<path id="path16" fill-rule="evenodd" clip-rule="evenodd" d="M285.993 111.669C290.434 111.709 295.156 111.88 298.672 112.392C297.718 114.23 292.132 115.646 285.38 115.646C278.538 115.646 272.902 114.19 272.058 112.312C277.051 111.498 283.954 111.659 285.993 111.669Z" fill="white"/>
<path id="path17" fill-rule="evenodd" clip-rule="evenodd" d="M279.603 119.091H291.167C291.458 119.091 291.75 119.162 292.021 119.292C292.282 119.423 292.513 119.614 292.704 119.845C292.885 120.076 293.006 120.347 293.066 120.638C293.126 120.929 293.126 121.231 293.056 121.512C290.785 121.05 287.962 120.779 284.918 120.779C282.256 120.779 279.774 120.98 277.674 121.351L277.644 121.05C277.644 119.975 278.528 119.091 279.593 119.091H279.603Z" fill="#E8645F"/>
<path id="path18" fill-rule="evenodd" clip-rule="evenodd" d="M294.814 126.895C288.193 129.948 281.723 130.22 275.434 126.986C281.854 128 288.404 127.97 294.814 126.895Z" fill="#DBAC93"/>
</g>
<g id="oeil_gauche">
<path id="path12" d="M318.505 69.3962C319.268 67.8896 317.661 65.8106 316.797 64.3945C315.38 62.0443 312.898 60.2566 310.326 59.3326C307.855 58.4186 305.052 58.7601 302.44 59.0514C300.722 59.2221 299.014 59.6239 297.436 60.3068C296.14 60.8592 294.794 61.492 293.89 62.5666C293.166 63.4203 292.172 65.3085 292.684 66.3028C293.086 67.1063 294.382 66.6744 295.206 66.3028C296.381 65.7705 301.636 63.5308 303.143 63.9727C305.444 63.6513 307.775 63.7417 310.045 64.2439C310.045 64.2439 313.491 65.67 314.968 66.7849C315.842 67.4477 316.244 68.6831 317.229 69.1752C317.701 69.4263 318.243 69.8682 318.494 69.3962H318.505Z" fill="#4C3B2A" stroke="#503C2C" stroke-width="0.110521" stroke-miterlimit="3.2"/>
<path id="path19" d="M312.235 75.0005C312.195 76.2157 311.08 77.2201 310.156 78.0034C308.85 79.1283 307.252 79.8715 305.554 80.1628C303.384 80.4842 300.933 80.3034 299.014 79.2388C297.346 78.2947 295.568 76.6878 295.347 74.7795C295.166 73.1625 296.301 71.4953 297.507 70.4005C299.174 68.894 301.355 68.0704 303.615 68.1006C305.916 68.201 308.156 69.4966 309.864 71.0433C311.01 72.0778 312.286 73.4538 312.235 75.0005Z" fill="#F4E3D7" fill-opacity="0.91" stroke="black" stroke-width="0.4" stroke-miterlimit="3.2"/>
<path id="path20" d="M303.434 78.3349C302.882 78.365 302.329 78.2746 301.807 78.0838C301.284 77.893 300.812 77.5917 300.41 77.21C300.008 76.8284 299.697 76.3664 299.476 75.8541C299.255 75.352 299.144 74.7996 299.144 74.2472C299.144 73.6848 299.255 73.1424 299.476 72.6302C299.697 72.118 300.008 71.656 300.41 71.2743C300.812 70.8927 301.284 70.6014 301.807 70.4005C302.329 70.2097 302.882 70.1193 303.434 70.1495C304.489 70.1997 305.484 70.6516 306.207 71.4149C306.931 72.1782 307.343 73.1926 307.343 74.2472C307.343 75.2917 306.931 76.3061 306.207 77.0694C305.484 77.8327 304.489 78.2847 303.434 78.3349Z" fill="#6C6753" fill-opacity="0.91" stroke="black" stroke-width="0.994691" stroke-miterlimit="3.2"/>
<path id="path21" d="M303.495 75.8843C303.927 75.8843 304.339 75.7136 304.65 75.4022C304.961 75.1009 305.132 74.6791 305.132 74.2472C305.132 73.8154 304.961 73.3935 304.65 73.0922C304.339 72.7808 303.927 72.6101 303.495 72.6101C303.053 72.6101 302.641 72.7808 302.339 73.0922C302.028 73.3935 301.857 73.8154 301.857 74.2472C301.857 74.6791 302.028 75.1009 302.339 75.4022C302.641 75.7136 303.053 75.8843 303.495 75.8843Z" fill="#241C1C" fill-opacity="0.91" stroke="black" stroke-width="0.976271" stroke-miterlimit="3.2"/>
<path id="path22" d="M313.14 75.0607C313.109 74.428 312.436 73.4939 312.014 72.7507C311.723 72.2586 311.401 71.7966 311.06 71.3446C310.718 70.8826 310.387 70.4206 309.975 70.0189C309.452 69.5268 308.87 69.0849 308.237 68.7233C306.9 67.97 305.444 67.4377 303.927 67.1766C302.641 67.026 301.345 67.1866 300.129 67.6386C299.586 67.8194 299.034 68.0002 298.541 68.3015C297.878 68.7032 297.306 69.2757 296.743 69.8482C296.221 70.3403 295.748 70.9027 295.357 71.5154C294.854 72.2988 294.503 73.1726 294.352 74.0966" stroke="#503C2C" stroke-width="1.63019" stroke-miterlimit="3.2"/>
</g>
<g id="oeil_droite">
<path id="path26" d="M257.038 74.4983C257.078 73.9158 257.741 73.0319 258.173 72.349C258.445 71.887 258.776 71.4652 259.128 71.0433C259.469 70.6215 259.801 70.1796 260.203 69.818C260.735 69.356 261.328 68.9442 261.941 68.6128C263.297 67.8997 264.754 67.4176 266.261 67.1766C267.537 67.036 268.833 67.1766 270.049 67.5984C270.601 67.7591 271.154 67.9298 271.646 68.2211C272.309 68.5927 272.882 69.125 273.434 69.6473C273.967 70.1093 274.429 70.6215 274.831 71.194C275.283 71.9372 275.806 72.9516 275.836 73.6044" stroke="#503C2C" stroke-width="1.63019" stroke-miterlimit="3.2"/>
<path id="path13" d="M252.045 69.3962C251.281 67.8896 252.879 65.8106 253.743 64.3945C255.28 62.0343 257.55 60.2566 260.213 59.3326C262.694 58.4186 265.487 58.7601 268.11 59.0514C269.818 59.2221 271.536 59.6239 273.103 60.3068C274.399 60.8592 275.755 61.492 276.649 62.5666C277.383 63.4203 278.367 65.3085 277.855 66.3028C277.463 67.1063 276.157 66.6744 275.333 66.3028C274.158 65.7705 268.903 63.5308 267.406 63.9727C265.106 63.6513 262.765 63.7417 260.504 64.2439C260.504 64.2439 257.048 65.67 255.571 66.7849C254.697 67.4477 254.295 68.6831 253.321 69.1752C252.828 69.4263 252.306 69.8682 252.045 69.3962Z" fill="#4C3B2A" stroke="#503C2C" stroke-width="0.110521" stroke-miterlimit="3.2"/>
<path id="path23" fill-rule="evenodd" clip-rule="evenodd" d="M257.942 74.9904C257.972 76.2057 259.098 77.2201 260.022 78.0034C261.328 79.1283 262.915 79.8715 264.623 80.1628C266.794 80.4842 269.245 80.3034 271.164 79.2388C272.832 78.2947 274.6 76.6777 274.831 74.7795C275.012 73.1524 273.877 71.4952 272.671 70.3905C270.993 68.8839 268.813 68.0604 266.562 68.1005C264.262 68.1909 262.021 69.4966 260.303 71.0333C259.168 72.0778 257.892 73.4537 257.942 74.9904Z" fill="#F4E3D7" fill-opacity="0.91" stroke="black" stroke-width="0.4" stroke-miterlimit="3.2"/>
<path id="path24" d="M266.743 78.3449C267.828 78.3449 268.873 77.913 269.637 77.1497C270.4 76.3764 270.832 75.3319 270.832 74.2472C270.832 73.1625 270.4 72.1179 269.637 71.3546C268.873 70.5813 267.828 70.1494 266.743 70.1494C265.648 70.1494 264.613 70.5813 263.84 71.3546C263.066 72.1179 262.644 73.1625 262.644 74.2472C262.644 75.3319 263.066 76.3764 263.84 77.1497C264.613 77.913 265.648 78.3449 266.743 78.3449Z" fill="#6C6753" stroke="black" stroke-width="0.994691" stroke-miterlimit="3.2"/>
<path id="path25" d="M266.743 75.8843C267.175 75.8843 267.587 75.7136 267.899 75.4022C268.2 75.1009 268.381 74.6791 268.381 74.2472C268.381 73.8154 268.2 73.3935 267.899 73.0922C267.587 72.7808 267.175 72.6101 266.743 72.6101C266.301 72.6101 265.889 72.7808 265.578 73.0922C265.276 73.3935 265.106 73.8154 265.106 74.2472C265.106 74.6791 265.276 75.1009 265.578 75.4022C265.889 75.7136 266.301 75.8843 266.743 75.8843Z" fill="#241C1C" fill-opacity="0.91" stroke="black" stroke-width="0.976271" stroke-miterlimit="3.2"/>
</g>
</g>
</g>
</svg>
