<svg width="450" height="561" viewBox="0 0 450 561" fill="none" xmlns="http://www.w3.org/2000/svg">
<g id="tete">
<path id="path8" fill-rule="evenodd" clip-rule="evenodd" d="M201.816 131.696L201.697 146.543C201.752 149.729 203.143 152.99 208.825 154.841C208.825 154.841 239.053 154.859 239.357 154.841C246.541 154.454 247.287 148.007 247.416 146.92C247.738 144.056 247.738 132.562 247.416 131.696" fill="#DD9974"/>
<g id="criniere">
<path id="path1" d="M193.389 12.4621C188.664 13.0239 184.824 16.9382 181.923 19.3144C175.411 24.8589 173.21 30.4771 171.653 33.323C169.636 37.0162 168.586 41.6489 169.443 48.0039C169.903 51.4669 170.511 56.2469 171.589 60.2533C172.418 63.3203 173.33 66.4241 174.877 69.2055C176.811 72.6593 178.082 72.8527 179.104 75.2197C180.854 79.2998 180.992 84.2088 183.617 88.6296C184.649 90.3519 184.336 84.1443 184.115 81.5563C183.918 78.9541 183.804 76.3463 183.774 73.7369C183.686 69.6321 183.307 65.5387 182.641 61.4875C181.812 56.7258 181.324 53.1247 179.068 48.842C178.082 46.9723 178.368 39.4661 181.333 34.8426C184.851 29.0311 188.701 24.1958 193.73 19.8854C192.284 17.104 193.638 12.4345 193.398 12.4621H193.389Z" fill="#46301A" stroke="black" stroke-width="0.976271"/>
<path id="path2" d="M224.473 1.46519C220.513 1.45599 216.553 1.90729 212.684 2.66249C208.218 3.53749 203.603 4.63349 199.643 7.00969C196.99 8.60309 194.191 10.6201 192.827 13.5028C192.33 14.5528 192.468 16.0356 192.708 17.279C192.844 17.9815 193.038 18.6716 193.288 19.342L193.371 19.4802C193.389 19.5447 193.408 19.6091 193.435 19.646C193.527 19.7657 193.619 19.821 193.73 19.8854C193.96 20.0236 194.273 20.1525 194.669 20.2815C195.471 20.5578 196.594 20.8249 197.829 20.9906C200.315 21.3406 203.262 21.3314 204.92 19.8394C204.994 19.7657 205.04 19.7473 205.049 19.7473L205.16 19.867C205.326 20.0881 205.547 20.6038 205.832 21.2209C206.508 22.8931 207.728 24.2885 209.295 25.1812C213.651 27.4838 217.013 31.0849 221.388 32.2362C226.177 33.498 230.598 35.036 236.253 34.4006C239.827 33.9953 243.437 34.3913 248.06 31.748C251.652 29.7034 254.075 25.9825 255.428 24.1958C256.847 24.1037 258.118 24.9234 259.509 26.1851C260.945 27.493 262.465 29.2429 264.344 30.6981C267.448 33.1203 268.433 37.6333 269.787 41.5384C270.865 44.6514 270.109 48.0131 268.765 52.4431C267.485 56.6337 265.412 60.9625 265.799 65.4939C266.508 73.7185 265.173 81.9615 264.666 88.1046C264.427 88.2428 264.648 88.381 264.666 88.1046C264.252 89.7901 265.486 90.4532 266.324 89.0717C266.987 87.9665 269.548 83.0575 269.483 79.8616C269.455 78.1946 271.472 73.5803 272.78 72.1251C273.48 71.3423 274.346 70.6239 274.742 69.5463C276.991 63.3929 278.593 57.022 279.522 50.5366C280.065 45.9961 280.047 41.17 278.601 36.786C276.999 31.9322 273.664 27.7877 270.367 23.9747C266.739 19.8913 262.604 16.2886 258.063 13.2542C253.156 9.89439 247.881 7.10709 242.341 4.94669C237.884 3.17009 233.194 2.05009 228.415 1.62179C227.104 1.51309 225.789 1.45779 224.473 1.45599V1.46519Z" fill="#46301A"/>
<path id="path3" d="M264.675 88.1046C265.173 81.9615 266.517 73.7185 265.799 65.4938C265.412 60.9625 267.485 56.6337 268.765 52.4431C270.109 48.0223 270.865 44.6514 269.787 41.5384C268.433 37.6333 267.448 33.1203 264.353 30.6981C262.465 29.2429 260.945 27.493 259.509 26.1851C258.118 24.9234 256.838 24.1037 255.438 24.1958C254.075 25.9825 251.643 29.7034 248.06 31.748C243.437 34.3913 239.827 33.9953 236.253 34.4005C230.607 35.036 226.177 33.498 221.388 32.2362C217.013 31.0849 213.651 27.4745 209.295 25.1812C207.728 24.2885 206.508 22.8931 205.832 21.2209C205.547 20.6038 205.326 20.088 205.16 19.867C205.095 19.7749 205.049 19.7565 205.049 19.7565C205.04 19.7565 204.994 19.7657 204.92 19.8486C203.262 21.3222 200.315 21.3406 197.829 20.9906C196.757 20.8481 195.699 20.6108 194.669 20.2815C194.344 20.1805 194.029 20.0478 193.73 19.8854C193.616 19.8272 193.516 19.7456 193.435 19.646C193.408 19.6091 193.389 19.5447 193.371 19.4802L193.279 19.342L193.095 18.8631C192.966 18.4579 192.818 17.896 192.708 17.279C192.468 16.0356 192.33 14.5528 192.827 13.5028C194.191 10.6201 196.99 8.6031 199.643 7.0097C203.603 4.6335 208.208 3.5375 212.675 2.6625C216.543 1.9073 220.513 1.456 224.464 1.4652C225.79 1.4652 227.107 1.52049 228.424 1.63099C233.199 2.05719 237.887 3.17409 242.341 4.94659C247.881 7.1071 253.156 9.8944 258.063 13.2542C262.604 16.2886 266.739 19.8913 270.367 23.9747C273.664 27.7877 276.999 31.9322 278.601 36.786C280.047 41.17 280.066 45.9961 279.522 50.5366C278.59 57.0223 276.985 63.3933 274.733 69.5463C274.346 70.6239 273.489 71.3423 272.78 72.1251C271.472 73.5803 269.455 78.1946 269.483 79.8616C269.548 83.0575 266.987 87.9665 266.324 89.0717C265.486 90.4532 264.252 89.7901 264.666 88.1046H264.675ZM264.675 88.1046C264.427 88.2428 264.648 88.3809 264.675 88.1046Z" stroke="black" stroke-width="0.976271"/>
</g>
<g id="oreille_droite">
<path id="path4" fill-rule="evenodd" clip-rule="evenodd" d="M176.765 71.9685L173.984 70.6147C173.31 70.5197 172.624 70.578 171.977 70.7854C171.329 70.9927 170.737 71.3436 170.244 71.812C168.734 73.6816 168.181 74.9434 168.218 76.8131C167.819 80.3988 168.158 84.0282 169.213 87.4784C169.811 91.107 171.386 94.791 173.947 98.53C175.208 100.21 177.069 101.338 179.141 101.68C181.37 101.551 182.844 100.944 183.562 99.875L181.923 84.8719C179.519 75.9289 180.053 77.2551 180.062 77.9643C180.771 78.4525 179.031 74.6211 176.765 71.9685Z" fill="#DD9974" stroke="black" stroke-width="0.976271" stroke-miterlimit="3.2" stroke-linecap="round" stroke-linejoin="round"/>
<path id="path5" d="M171.211 76.7394C171.396 75.6342 171.801 75.146 172.409 75.275C174.214 75.0723 175.973 77.5314 177.677 82.6707C176.111 83.5917 175.374 85.3232 175.255 86.2442C175.162 90.094 176.185 91.651 178.57 92.516" stroke="#4C3B2A" stroke-width="1.63019" stroke-miterlimit="3.2" stroke-linecap="round" stroke-linejoin="round"/>
</g>
<g id="oreille_gauche">
<path id="path6" fill-rule="evenodd" clip-rule="evenodd" d="M273.941 70.9278C276.372 69.6844 278.454 70.0068 279.559 71.8949C280.425 73.3685 282.055 75.1552 281.364 81.0036C281.283 87.1764 279.288 93.172 275.654 98.162C275.001 99.166 274.125 100.007 273.095 100.618C272.065 101.23 270.908 101.597 269.713 101.69C268.999 101.766 268.277 101.682 267.599 101.443C266.922 101.204 266.307 100.816 265.799 100.308L266.315 89.0717L269.152 82.3299L269.778 78.2498L271.997 73.2119L273.941 70.9278Z" fill="#DD9974" stroke="black" stroke-width="0.976271" stroke-miterlimit="3.2" stroke-linecap="round" stroke-linejoin="round"/>
<path id="path7" d="M270.33 92.774C271.592 92.866 272.771 91.743 273.867 89.3664C274.154 88.4909 274.258 87.5658 274.172 86.6484C274.087 85.7311 273.814 84.8411 273.37 84.0338L271.822 82.7443C272.559 78.9958 274.217 76.417 276.777 74.9894C277.975 75.5697 278.435 76.1499 278.141 76.7301" stroke="#4C3B2A" stroke-width="1.63019" stroke-miterlimit="3.2" stroke-linecap="round" stroke-linejoin="round"/>
</g>
<g id="face">
<path id="path10" fill-rule="evenodd" clip-rule="evenodd" d="M182.706 87.5704C183.166 92.406 183.341 95.583 183.811 103.928C183.719 109.085 185.073 114.142 187.854 119.078C191.409 123.619 196.06 127.828 201.816 131.696C204.792 133.749 207.475 136.197 209.792 138.972C214.245 141.524 219.295 142.849 224.427 142.813C230.036 142.997 234.218 142.417 236.962 141.063C237.248 140.759 240.794 139.221 244.054 135.463C244.92 134.459 245.436 134.026 247.756 132.258C252.711 128.592 256.58 125.369 259.334 122.587C262.266 119.538 264.181 115.654 264.814 111.471C265.679 102.721 266.103 97.609 266.324 89.0809L266.352 84.3561C266.195 76.0947 265.228 66.1017 267.144 57.2784C267.862 53.972 269.805 50.9051 270.045 47.4421C270.183 45.4803 270.201 43.4725 269.787 41.5476C269.154 38.4013 267.936 35.402 266.195 32.7059C264.464 30.1271 259.509 26.1944 259.509 26.1944C258.026 24.7852 256.672 24.1221 255.438 24.205C255.438 24.205 252.527 28.6995 250.354 30.1271C246.237 32.8072 241.144 33.9953 236.253 34.4098C231.878 34.7782 227.375 34.0598 223.193 32.7335C219.096 31.3537 215.252 29.3162 211.809 26.7009C209.203 24.776 207.923 21.0643 204.92 19.8486C202.176 18.7434 197.092 18.3013 193.73 19.8946C187.872 22.6577 184.225 29.0587 181.342 34.8611C179.485 38.4644 178.536 42.4673 178.579 46.521C178.708 50.3156 181.112 53.7049 181.913 57.4166C182.853 61.7638 183.654 70.6515 183.654 70.6515C183.562 70.6515 183.857 77.9275 184.115 81.5655C184.253 83.6193 182.706 87.5797 182.706 87.5797V87.5704Z" fill="#DD9974" stroke="black" stroke-width="0.976271" stroke-miterlimit="3.2" stroke-linecap="round" stroke-linejoin="round"/>
<path id="path11" d="M219.555 69.2608C221.029 71.0291 220.587 71.987 220.347 73.3501C219.426 78.434 220.568 85.1206 219.03 89.0717C218.293 90.9782 215.125 90.8769 214.711 92.912C214.425 94.358 214.029 96.2 215.162 96.919C216.672 97.867 218.634 97.692 219.666 98.623C221.158 99.976 222.926 101.533 224.943 101.57C226.029 101.535 227.094 101.267 228.068 100.786C229.042 100.305 229.902 99.62 230.589 98.779C231.584 97.25 234.291 97.517 235.314 96.016C236.207 94.699 235.01 93.207 234.503 91.779C234.043 90.4716 232.274 89.4585 231.998 89.0717" stroke="black" stroke-width="0.976271" stroke-miterlimit="3.2" stroke-linecap="round" stroke-linejoin="round"/>
</g>
<g id="bouche">
<path id="path14" fill-rule="evenodd" clip-rule="evenodd" d="M225.781 111.646C234.3 111.729 243.833 112.272 243.833 114.888C243.833 117.761 234.374 124.687 225.376 124.687C216.378 124.687 206.504 118.074 206.504 115.201C206.504 111.231 222.502 111.618 225.781 111.646Z" fill="#52110F"/>
<path id="path15" fill-rule="evenodd" clip-rule="evenodd" d="M235.498 122.191C232.344 123.744 228.89 124.592 225.376 124.678C221.637 124.678 217.75 123.545 214.48 122.007C216.967 121.215 220.624 120.718 224.713 120.718C229.115 120.718 233.02 121.289 235.498 122.191Z" fill="white"/>
<path id="path16" fill-rule="evenodd" clip-rule="evenodd" d="M225.781 111.646C230.202 111.692 234.899 111.857 238.399 112.373C237.45 114.197 231.887 115.606 225.173 115.606C218.358 115.606 212.749 114.16 211.911 112.29C216.884 111.48 223.755 111.636 225.781 111.646Z" fill="white"/>
<path id="path17" fill-rule="evenodd" clip-rule="evenodd" d="M219.417 119.041H230.93C231.224 119.042 231.515 119.11 231.779 119.24C232.044 119.37 232.275 119.558 232.456 119.791C232.637 120.023 232.763 120.294 232.824 120.582C232.885 120.87 232.88 121.169 232.808 121.454C230.552 120.994 227.743 120.718 224.713 120.718C222.06 120.718 219.592 120.92 217.501 121.289L217.474 120.985C217.474 119.916 218.349 119.041 219.408 119.041H219.417Z" fill="#E8645F"/>
<path id="path18" fill-rule="evenodd" clip-rule="evenodd" d="M234.558 126.805C227.973 129.845 221.526 130.121 215.272 126.898C221.664 127.909 228.177 127.878 234.558 126.805Z" fill="#DBAC93"/>
</g>
<g id="oeil_gauche">
<path id="path12" d="M258.136 69.5555C258.901 68.0635 257.298 65.9912 256.442 64.582C255.032 62.2427 252.555 60.4651 249.995 59.5349C247.535 58.6323 244.745 58.9731 242.148 59.2586C240.444 59.4336 238.74 59.8296 237.174 60.5112C235.885 61.0638 234.54 61.6901 233.637 62.7584C232.919 63.6058 231.934 65.4846 232.44 66.4793C232.836 67.2806 234.135 66.8477 234.954 66.4793C236.124 65.9544 241.346 63.7163 242.848 64.1584C245.136 63.8374 247.463 63.9309 249.718 64.4347C249.718 64.4347 253.154 65.853 254.618 66.9583C255.493 67.6214 255.889 68.8463 256.865 69.3437C257.344 69.5923 257.878 70.0344 258.127 69.5555H258.136Z" fill="#4C3B2A" stroke="#503C2C" stroke-width="0.110521" stroke-miterlimit="3.2" stroke-linecap="round" stroke-linejoin="round"/>
<path id="path19" d="M251.901 75.1368C251.864 76.3525 250.75 77.3472 249.829 78.1301C248.527 79.2494 246.944 79.9915 245.251 80.2761C243.087 80.5984 240.646 80.4234 238.74 79.355C237.082 78.4156 235.314 76.8223 235.093 74.9158C234.908 73.3132 236.041 71.6462 237.239 70.5594C238.904 69.0586 241.075 68.2427 243.317 68.2753C245.611 68.3674 247.839 69.6568 249.543 71.2041C250.676 72.2264 251.947 73.5987 251.901 75.1368Z" fill="#F4E3D7" fill-opacity="0.91" stroke="black" stroke-width="0.976271" stroke-miterlimit="3.2" stroke-linecap="round" stroke-linejoin="round"/>
<path id="path20" d="M243.142 78.4617C242.591 78.4879 242.04 78.4019 241.522 78.2089C241.005 78.016 240.532 77.72 240.133 77.339C239.733 76.9579 239.415 76.4998 239.198 75.9922C238.98 75.4847 238.868 74.9383 238.868 74.3862C238.868 73.8341 238.98 73.2877 239.198 72.7802C239.415 72.2726 239.733 71.8144 240.133 71.4334C240.532 71.0524 241.005 70.7564 241.522 70.5635C242.04 70.3705 242.591 70.2845 243.142 70.3107C244.19 70.3605 245.178 70.8117 245.901 71.5705C246.625 72.3293 247.028 73.3376 247.028 74.3862C247.028 75.4348 246.625 76.4431 245.901 77.2019C245.178 77.9607 244.19 78.4119 243.142 78.4617Z" fill="#6C6753" fill-opacity="0.91" stroke="black" stroke-width="0.994691" stroke-miterlimit="3.2" stroke-linecap="round" stroke-linejoin="round"/>
<path id="path21" d="M243.197 76.021C243.63 76.021 244.044 75.8492 244.35 75.5435C244.656 75.2378 244.828 74.8232 244.828 74.3908C244.828 73.9585 244.656 73.5438 244.35 73.2381C244.044 72.9324 243.63 72.7606 243.197 72.7606C242.765 72.7606 242.35 72.9324 242.045 73.2381C241.739 73.5438 241.567 73.9585 241.567 74.3908C241.567 74.8232 241.739 75.2378 242.045 75.5435C242.35 75.8492 242.765 76.021 243.197 76.021Z" fill="#241C1C" fill-opacity="0.91" stroke="black" stroke-width="0.976271" stroke-miterlimit="3.2" stroke-linecap="round" stroke-linejoin="round"/>
<path id="path22" d="M252.804 75.2013C252.767 74.5658 252.104 73.6356 251.68 72.8988C251.392 72.4139 251.075 71.9465 250.731 71.4988C250.391 71.0383 250.059 70.5778 249.654 70.1818C249.129 69.6862 248.548 69.2535 247.922 68.8924C246.59 68.1362 245.139 67.613 243.63 67.3451C242.353 67.199 241.059 67.3567 239.854 67.8056C239.311 67.9898 238.758 68.1648 238.27 68.4687C237.607 68.874 237.036 69.445 236.483 70.0068C235.956 70.5003 235.492 71.0572 235.102 71.6646C234.596 72.4474 234.254 73.3247 234.098 74.2435" stroke="#503C2C" stroke-width="1.63019" stroke-miterlimit="3.2" stroke-linecap="round" stroke-linejoin="round"/>
</g>
<g id="oeil_droite">
<path id="path26" d="M196.963 74.6395C197 74.0593 197.663 73.1843 198.086 72.5028C198.363 72.0422 198.694 71.6186 199.035 71.2041C199.376 70.7805 199.707 70.3384 200.113 69.9792C200.638 69.5187 201.227 69.1134 201.844 68.7819C203.187 68.0732 204.637 67.5879 206.136 67.3451C207.411 67.2092 208.699 67.3538 209.912 67.7688C210.456 67.9345 211.008 68.1003 211.496 68.3858C212.159 68.7635 212.73 69.2884 213.283 69.8134C213.806 70.2664 214.27 70.7831 214.665 71.3515C215.125 72.0883 215.641 73.1014 215.668 73.7553" stroke="#503C2C" stroke-width="1.63019" stroke-miterlimit="3.2" stroke-linecap="round" stroke-linejoin="round"/>
<path id="path13" d="M191.989 69.5555C191.225 68.0635 192.818 65.9912 193.675 64.582C195.206 62.2322 197.473 60.457 200.122 59.5349C202.59 58.6323 205.372 58.9731 207.978 59.2586C209.682 59.4336 211.386 59.8296 212.952 60.5112C214.241 61.0638 215.586 61.6901 216.479 62.7584C217.207 63.6058 218.192 65.4846 217.685 66.4793C217.289 67.2806 215.991 66.8477 215.171 66.4793C214.001 65.9544 208.77 63.7163 207.278 64.1584C204.99 63.8363 202.662 63.9299 200.407 64.4347C200.407 64.4347 196.972 65.853 195.498 66.9583C194.633 67.6214 194.227 68.8463 193.26 69.3437C192.772 69.5923 192.247 70.0344 191.989 69.5555Z" fill="#4C3B2A" stroke="#503C2C" stroke-width="0.110521" stroke-miterlimit="3.2" stroke-linecap="round" stroke-linejoin="round"/>
<path id="path23" fill-rule="evenodd" clip-rule="evenodd" d="M197.856 75.1276C197.893 76.3434 199.007 77.3473 199.928 78.1301C201.23 79.2495 202.813 79.9916 204.506 80.2761C206.67 80.5984 209.111 80.4234 211.017 79.3551C212.675 78.4156 214.444 76.8131 214.665 74.9158C214.849 73.304 213.716 71.6462 212.519 70.5502C210.854 69.0486 208.682 68.2326 206.44 68.2661C204.147 68.3582 201.918 69.6568 200.214 71.1949C199.081 72.2264 197.81 73.5988 197.856 75.1276Z" fill="#F4E3D7" fill-opacity="0.91" stroke="black" stroke-width="0.976271" stroke-miterlimit="3.2" stroke-linecap="round" stroke-linejoin="round"/>
<path id="path24" d="M206.615 78.4709C207.697 78.4709 208.735 78.041 209.5 77.2759C210.265 76.5107 210.695 75.4729 210.695 74.3908C210.695 73.3087 210.265 72.2709 209.5 71.5058C208.735 70.7406 207.697 70.3107 206.615 70.3107C205.533 70.3107 204.495 70.7406 203.73 71.5058C202.965 72.2709 202.535 73.3087 202.535 74.3908C202.535 75.4729 202.965 76.5107 203.73 77.2759C204.495 78.041 205.533 78.4709 206.615 78.4709Z" fill="#6C6753" stroke="black" stroke-width="0.994691" stroke-miterlimit="3.2" stroke-linecap="round" stroke-linejoin="round"/>
<path id="path25" d="M206.615 76.021C207.047 76.021 207.462 75.8492 207.768 75.5435C208.073 75.2378 208.245 74.8232 208.245 74.3908C208.245 73.9585 208.073 73.5438 207.768 73.2381C207.462 72.9324 207.047 72.7606 206.615 72.7606C206.183 72.7606 205.768 72.9324 205.462 73.2381C205.157 73.5438 204.985 73.9585 204.985 74.3908C204.985 74.8232 205.157 75.2378 205.462 75.5435C205.768 75.8492 206.183 76.021 206.615 76.021Z" fill="#241C1C" fill-opacity="0.91" stroke="black" stroke-width="0.976271" stroke-miterlimit="3.2" stroke-linecap="round" stroke-linejoin="round"/>
</g>
</g>
<g id="cou">
<path id="Ellipse 2" d="M225 138.5C225.276 138.5 225.5 138.276 225.5 138C225.5 137.724 225.276 137.5 225 137.5C224.724 137.5 224.5 137.724 224.5 138C224.5 138.276 224.724 138.5 225 138.5Z" fill="#DD9974"/>
</g>
<g id="avant_bras_gauche">
<path id="path99" d="M392.137 137.885L395.004 132.933L418.534 146.559L415.667 151.512L392.137 137.885Z" fill="white"/>
<path id="path100" d="M359.201 221.58C352.297 217.552 349.948 208.702 353.957 201.786C353.969 201.778 353.971 201.758 353.982 201.749L391.214 137.444L416.305 151.97L379.058 216.315C379.047 216.324 379.044 216.344 379.033 216.352C375.002 223.275 366.124 225.611 359.201 221.58Z" fill="#262626"/>
</g>
<g id="main_gauche">
<path id="path96" d="M427.07 82.0756C426.231 82.0968 425.706 82.276 425.246 82.5739C424.764 82.8992 424.346 83.3531 423.693 84.0005C422.724 85.4234 421.801 86.8862 420.954 88.388L420.182 89.6864L417.757 93.809C416.45 96.026 415.134 98.238 413.827 100.452C412.763 102.248 411.69 104.034 410.569 105.795C410.092 106.574 409.875 106.951 409.731 107.306C409.589 107.642 409.518 107.976 409.371 108.693L409.315 108.989L409.036 108.875C408.46 108.645 408.152 108.528 407.853 108.332C407.464 108.052 407.109 107.741 406.778 107.398L406.715 107.34L406.697 107.237C406.524 106.255 406.485 105.248 406.616 104.257L406.671 103.64C406.792 100.653 406.63 98.67 405.04 96.165C403.392 94.64 401.574 94.182 399.311 94.065C398.775 94.333 398.537 94.465 398.346 94.634C398.154 94.803 398.007 95.017 397.683 95.532C397.1 97.678 397.183 99.4 397.493 101.653C397.975 105.978 398.182 110.327 398.127 114.678C398.179 118.23 398.363 121.856 400.447 124.773L400.456 124.784C401.272 126.109 400.878 127.19 400.579 128.495L400.577 128.515C400.277 129.486 399.932 130.422 399.557 131.353L399.18 132.296L398.643 133.652L398.311 134.479C404.062 137.801 409.793 141.125 415.52 144.481L415.93 143.43C416.419 142.14 416.665 141.443 417.076 140.878C417.477 140.311 418.025 139.863 419.042 139.037L419.099 138.983L419.17 138.981L419.701 138.924C420.048 138.884 420.394 138.855 420.749 138.837L421.277 138.799C423.92 138.609 425.663 136.943 427.493 135.066C429.722 132.471 431.399 129.609 433.151 126.635C436.129 121.522 439.67 116.757 443.711 112.432L444.115 112.006L444.912 111.164L446.032 109.989L446.422 109.602C447.131 108.904 447.714 108.088 448.125 107.186C448.486 106.373 448.687 105.47 448.805 104.326C448.721 104.023 448.605 103.732 448.437 103.457C448.246 103.207 448.021 102.985 447.772 102.794C447.395 102.588 447.001 102.429 446.581 102.32C446.257 102.251 445.903 102.26 445.127 102.268C442.001 104.112 439.589 106.887 437.17 109.641L435.185 111.882L434.31 112.865C433.935 113.294 433.735 113.533 433.478 113.743C433.22 113.955 432.926 114.141 432.36 114.487L432.034 114.106L436.282 109.071L437.727 107.37L439.126 105.724L440.503 104.095C441.479 102.942 442.442 101.808 443.437 100.667L444.325 99.666L445.049 98.845C445.89 97.722 446.309 96.346 446.237 94.948C445.98 94.414 445.855 94.197 445.687 94.006C445.417 93.738 445.103 93.503 444.774 93.313C444.28 93.147 443.771 93.031 443.254 92.972C442.863 92.955 442.444 93.006 441.563 93.124C438.163 95.821 435.459 99.588 432.635 102.939C430.728 105.203 428.685 107.337 426.5 109.32L426.139 108.975L427.019 107.871C428.519 105.973 429.99 104.063 431.462 102.145L432.504 100.778C433.631 99.3 434.727 97.82 435.834 96.339L436.945 94.901C438.837 92.346 440.126 90.4449 440.364 87.3211C440.083 86.6531 439.959 86.3464 439.788 86.0944C439.616 85.8524 439.419 85.6478 438.967 85.2215C438.382 85.0647 437.77 85.047 437.17 85.1691C436.652 85.2888 436.137 85.5498 435.414 85.9473C433.784 87.2544 432.366 88.8127 431.226 90.5656L430.453 91.622C426.995 96.377 423.637 101.214 420.27 106.041L419.836 105.798C420.914 103.228 422.124 100.733 423.412 98.257L423.897 97.328C424.548 96.036 425.228 94.747 425.907 93.468L427.381 90.6224L428.261 88.9342C428.924 87.462 429.325 86.2308 429.507 84.6512C429.285 84.0775 428.977 83.5444 428.581 83.0708C428.223 82.6961 427.777 82.3912 427.07 82.0756Z" fill="#DD9974" stroke="#BB7859" stroke-width="0.5"/>
<path id="path97" d="M406.928 108.407L406.728 109.39C407.31 110.065 407.31 110.065 408.163 110.844L409.082 111.731L411.01 113.526C413.082 115.541 413.909 117.032 414.059 119.941C414.041 121.5 413.911 123.066 413.673 124.608L413.438 126.292L413.236 127.547L414.319 127.256C414.702 125.59 415.069 123.902 415.434 122.223L415.77 120.783L416.07 119.389L416.356 118.115C416.424 116.723 416.129 116.254 415.239 115.199C414.386 114.43 413.415 113.627 413.286 113.531C412.649 112.889 410.941 111.272 411.041 110.78C408.578 108.748 408.578 108.748 406.928 108.407Z" fill="#B67255"/>
<path id="path98" d="M415.252 105.228C417.025 106.632 420.117 109.043 421.976 110.326C424.297 111.948 426.411 113.786 428.543 115.637C429.787 116.594 431.543 117.976 433.018 118.276C429.693 114.548 425.925 111.733 422.266 108.438C421.844 108.014 420.193 107.34 419.762 106.904C418.179 106.088 417.021 105.091 415.262 105.23L415.252 105.228Z" fill="#BB7859"/>
</g>
<g id="coude_gauche">
<path id="circle100" d="M367.501 209.259C367.379 209.798 366.843 210.135 366.304 210.012C365.766 209.89 365.429 209.354 365.551 208.815C365.674 208.277 366.21 207.94 366.748 208.062C367.287 208.185 367.624 208.721 367.501 209.259Z" fill="#262626"/>
</g>
<g id="haut_bras_gauche">
<path id="path101" d="M280.813 166.749C284.377 159.605 293.457 156.854 301.117 160.636L301.16 160.66L372.4 195.756L359.567 221.763L288.284 186.644L288.243 186.631C280.57 182.82 277.248 173.923 280.813 166.749Z" fill="#262626"/>
</g>
<g id="epaule_gauche">
<path id="circle101" d="M293.985 174.212C293.44 174.306 292.924 173.94 292.83 173.395C292.737 172.851 293.103 172.334 293.647 172.241C294.192 172.148 294.709 172.514 294.802 173.058C294.895 173.602 294.529 174.119 293.985 174.212Z" fill="#262626"/>
</g>
<g id="avant_bras_droite">
<path id="path34" d="M57.654 137.89L54.787 132.938L31.2567 146.565L34.1237 151.517L57.654 137.89Z" fill="white"/>
<path id="os_avant_bras_droite" d="M90.59 221.585C97.493 217.557 99.843 208.707 95.833 201.791C95.822 201.783 95.819 201.763 95.808 201.754L58.576 137.449L33.4858 151.976L70.733 216.32C70.744 216.329 70.746 216.349 70.758 216.357C74.788 223.28 83.667 225.616 90.59 221.585Z" fill="#262626"/>
</g>
<g id="main_droite">
<path id="Vector" d="M22.7207 82.0807C23.5594 82.1019 24.0849 82.2812 24.5441 82.5791C25.0269 82.9043 25.4447 83.3583 26.0975 84.0057C27.0661 85.4286 27.9893 86.8913 28.8366 88.3932L29.6088 89.6916L32.0336 93.814C33.3404 96.031 34.6568 98.243 35.9633 100.457C37.0277 102.254 38.1009 104.039 39.2214 105.8C39.6988 106.579 39.9158 106.956 40.0597 107.311C40.2013 107.647 40.2721 107.981 40.4196 108.699L40.4757 108.994L40.754 108.881C41.3305 108.65 41.6386 108.533 41.9371 108.337C42.3262 108.057 42.6813 107.746 43.0124 107.403L43.0759 107.345L43.0936 107.243C43.2664 106.261 43.3053 105.253 43.1748 104.262L43.12 103.645C42.9989 100.658 43.1609 98.675 44.7505 96.17C46.399 94.645 48.217 94.187 50.479 94.07C51.015 94.338 51.253 94.47 51.445 94.64C51.636 94.808 51.783 95.022 52.108 95.537C52.691 97.683 52.608 99.405 52.297 101.658C51.815 105.983 51.608 110.332 51.663 114.683C51.611 118.235 51.427 121.861 49.344 124.778L49.335 124.789C48.519 126.114 48.912 127.195 49.212 128.5L49.214 128.52C49.513 129.491 49.859 130.427 50.234 131.358L50.61 132.301L51.148 133.657L51.48 134.484C45.7284 137.806 39.9974 141.13 34.2703 144.486L33.8606 143.435C33.3715 142.146 33.1256 141.448 32.7144 140.883C32.3131 140.316 31.7651 139.868 30.7482 139.042L30.6911 138.988L30.6204 138.986L30.0897 138.929C29.7424 138.889 29.3963 138.86 29.0415 138.842L28.5131 138.804C25.8709 138.614 24.1273 136.948 22.2976 135.071C20.0684 132.476 18.3911 129.615 16.6396 126.64C13.6613 121.527 10.1209 116.762 6.0799 112.437L5.6756 112.011L4.8783 111.169L3.7583 109.994L3.3688 109.607C2.6595 108.91 2.0768 108.093 1.6651 107.191C1.3045 106.378 1.104 105.475 0.985199 104.331C1.0694 104.029 1.1851 103.738 1.3531 103.462C1.5444 103.212 1.7692 102.99 2.018 102.799C2.3959 102.593 2.7897 102.435 3.2096 102.325C3.5337 102.257 3.8872 102.265 4.6639 102.273C7.789 104.117 10.2013 106.892 12.621 109.646L14.6057 111.887L15.4807 112.87C15.8552 113.299 16.0554 113.538 16.3127 113.748C16.5701 113.96 16.8646 114.146 17.4305 114.492L17.7569 114.111L13.5089 109.076L12.0632 107.375L10.6644 105.729L9.2879 104.1C8.3118 102.947 7.348 101.813 6.3531 100.672L5.4659 99.671L4.7417 98.85C3.9002 97.727 3.4811 96.351 3.5531 94.953C3.8106 94.419 3.9353 94.202 4.1036 94.012C4.3732 93.743 4.6872 93.509 5.0167 93.319C5.5102 93.152 6.02 93.036 6.5365 92.977C6.9274 92.96 7.3466 93.011 8.2272 93.129C11.6274 95.827 14.3313 99.593 17.1559 102.944C19.0629 105.208 21.1051 107.342 23.2902 109.325L23.6512 108.98L22.7716 107.876C21.2718 105.978 19.8008 104.068 18.3287 102.15L17.2864 100.783C16.1599 99.305 15.0634 97.825 13.9568 96.345L12.8452 94.906C10.9534 92.352 9.6647 90.4501 9.4262 87.3262C9.7077 86.6583 9.8317 86.3515 10.0025 86.0996C10.1746 85.8576 10.3714 85.653 10.8233 85.2267C11.4086 85.0698 12.021 85.0522 12.6201 85.1743C13.1383 85.294 13.6535 85.555 14.3767 85.9525C16.0062 87.2596 17.4245 88.8178 18.5642 90.5708L19.3372 91.627C22.7958 96.382 26.1536 101.219 29.5203 106.047L29.9542 105.803C28.8763 103.233 27.6667 100.738 26.3787 98.263L25.8931 97.333C25.2426 96.041 24.5622 94.752 23.883 93.474L22.4091 90.6276L21.5291 88.9394C20.8667 87.4672 20.4653 86.2359 20.2835 84.6563C20.506 84.0827 20.8139 83.5496 21.2097 83.076C21.5671 82.7013 22.0136 82.3964 22.7207 82.0807Z" fill="#DD9974" stroke="#BB7859" stroke-width="0.5"/>
<path id="path48" d="M42.8629 108.412L43.0629 109.395C42.4801 110.07 42.4801 110.07 41.6277 110.849L40.708 111.736L38.7805 113.532C36.7083 115.546 35.882 117.037 35.7317 119.946C35.7499 121.505 35.8796 123.071 36.1174 124.614L36.3522 126.298L36.555 127.552L35.4719 127.261C35.0882 125.595 34.722 123.907 34.3569 122.228L34.0208 120.788L33.7206 119.394L33.4347 118.12C33.3664 116.728 33.662 116.259 34.5513 115.204C35.4048 114.435 36.3751 113.632 36.5044 113.536C37.1417 112.895 38.8491 111.277 38.7491 110.785C41.2121 108.753 41.212 108.753 42.8629 108.412Z" fill="#B67255"/>
<path id="path49" d="M34.5389 105.233C32.7653 106.638 29.6734 109.048 27.8146 110.332C25.4932 111.953 23.3794 113.792 21.2471 115.642C20.0034 116.599 18.2472 117.981 16.7726 118.281C20.0973 114.553 23.8654 111.738 27.5247 108.443C27.9466 108.019 29.5974 107.345 30.0281 106.91C31.6111 106.093 32.7694 105.096 34.529 105.235L34.5389 105.233Z" fill="#BB7859"/>
</g>
<g id="haut_bras_droite">
<path id="path94" d="M168.978 166.754C165.414 159.61 156.334 156.859 148.673 160.641L148.63 160.665L77.391 195.761L90.224 221.768L161.506 186.649L161.548 186.636C169.22 182.825 172.543 173.928 168.978 166.754Z" fill="#262626"/>
</g>
<g id="coude_droite">
<path id="rot_coude_droite" d="M82.289 209.264C82.412 209.803 82.948 210.14 83.486 210.017C84.025 209.895 84.362 209.359 84.239 208.82C84.117 208.282 83.581 207.945 83.042 208.067C82.504 208.19 82.167 208.726 82.289 209.264Z" fill="#262626"/>
</g>
<g id="epaule_droite">
<path id="circle94" d="M155.806 174.217C156.35 174.31 156.867 173.945 156.96 173.4C157.053 172.856 156.687 172.339 156.143 172.246C155.599 172.153 155.082 172.519 154.989 173.063C154.896 173.607 155.261 174.124 155.806 174.217Z" fill="#262626"/>
</g>
<g id="cuisse_droite">
<path id="path36" d="M177.84 314.08V426.93H213.84V314.08H177.84Z" fill="#262626"/>
</g>
<g id="tibia_droite">
<path id="os_tibia_droite" d="M196 409C205.941 409 214 417.059 214 427C214 427.815 213.945 428.616 213.84 429.402V525.18H177.84V426.73H178.003C178.147 416.914 186.149 409 196 409Z" fill="#262626"/>
<path id="chaussette_droite" d="M211.09 525.38H181.39V536.38H211.09V525.38Z" fill="white"/>
</g>
<g id="genou_droite">
<path id="Ellipse 1" d="M196 427.5C196.276 427.5 196.5 427.276 196.5 427C196.5 426.724 196.276 426.5 196 426.5C195.724 426.5 195.5 426.724 195.5 427C195.5 427.276 195.724 427.5 196 427.5Z" fill="#262626"/>
</g>
<g id="hanche_droite">
<circle id="Ellipse 4" cx="195.877" cy="329.225" r="0.5" fill="#D9D9D9"/>
</g>
<g id="cuisse_gauche">
<path id="path39" d="M235.5 426.93V314.08H253.5H271.5V426.93H235.5Z" fill="#262626"/>
</g>
<g id="tibia_gauche">
<path id="os_tibia_gauche" d="M253.58 409C263.521 409 271.58 417.059 271.58 427C271.58 427.815 271.525 428.616 271.42 429.402V525.18H235.42V426.73H235.583C235.727 416.914 243.729 409 253.58 409Z" fill="#262626"/>
<path id="chaussette_gauche" d="M268.67 525.38H238.97V536.38H268.67V525.38Z" fill="white"/>
</g>
<g id="genou_gauche">
<path id="Ellipse 1_2" d="M254 427.5C254.276 427.5 254.5 427.276 254.5 427C254.5 426.724 254.276 426.5 254 426.5C253.724 426.5 253.5 426.724 253.5 427C253.5 427.276 253.724 427.5 254 427.5Z" fill="#262626"/>
</g>
<g id="pied_droite">
<path id="path1-5" d="M215.934 552.086L215.859 560.325L190.158 560.276V555.714C182.259 556.734 174.133 559.433 166.234 560.325C161.056 560.949 155.122 561.27 143.103 559.146C139.475 558.571 135.998 557.781 132.672 556.795C126.323 554.848 120.124 552.902 117.819 550.956C118.083 549.856 118.159 548.37 118.688 547.785C121.598 549.383 125.075 550.861 129.346 552.188C135.658 554.399 142.31 555.975 149.453 556.685C156.483 557.804 162.833 557.611 168.766 556.685C183.544 553.458 188.495 552.607 190.65 552.498C199.153 551.893 207.544 552.18 215.934 552.086Z" fill="black"/>
<path id="path2-3" d="M215.557 552.093C215.821 549.909 216.124 547.044 216.086 545.026C216.086 542.867 215.594 540.505 215.027 537.761C214.461 535.017 213.818 531.986 212.533 528.638L208.64 529.957C204.861 531.355 201.081 532.81 197.339 533.158C194.958 533.411 192.502 533.086 190.045 532.187C188.382 531.589 186.719 530.713 185.132 529.556C184.565 526.789 183.128 524.442 180.861 522.515L177.308 524.688C176.854 524.541 175.91 524.624 174.511 524.938L160.414 534.624L159.091 536.008C156.861 537.463 154.555 538.695 152.25 539.696C148.546 541.307 144.804 542.183 141.063 542.327C137.321 542.346 133.882 541.204 129.951 541.186C127.041 541.322 124.735 541.877 123.072 542.856C121.787 543.635 120.88 544.485 120.351 545.407C119.86 546.239 119.406 547.116 119.331 548.125C121.069 549.111 122.808 549.807 124.508 550.502C126.776 551.375 129.271 552.203 131.689 552.974C132.823 553.359 135.847 554.342 140.42 555.291C141.365 555.597 147.866 556.621 151.418 556.965C154.215 557.328 157.05 557.483 159.809 557.449C163.777 557.585 167.633 556.852 170.581 556.394C175.343 555.344 180.067 554.391 184.905 553.325C190.272 552.452 195.79 552.029 201.421 552.237C206.146 552.203 210.832 552.105 215.557 552.093Z" fill="#1F1A1A" stroke="black" stroke-width="0.399984"/>
<path id="path7-5" d="M190.083 552.539C189.402 551.046 187.777 548.9 185.661 547.365C184.413 546.469 182.939 545.8 181.239 545.358C179.16 544.863 177.081 544.784 175.191 544.81C174.587 544.753 172.886 544.931 170.089 545.347M170.089 545.347L162.568 546.175C162.492 545.203 162.19 544.3 161.736 543.465L160.187 540.116C159.658 539.096 159.28 537.935 159.696 536.779C159.922 536.132 162.417 533.918 163.135 533.434L173.188 526.582C173.415 526.43 174.473 525.841 175.343 525.705C176.439 525.512 177.459 525.648 178.442 526.105C180.369 526.88 181.654 528.332 183.166 529.567C184.943 530.985 187.135 532.247 189.818 533.354C192.35 534.537 195.828 534.734 200.25 533.948C203.5 533.184 207.204 531.914 211.361 530.146M170.089 545.347L169.295 543.276C168.653 541.79 168.313 540.309 168.237 538.827C168.464 537.395 169.031 536.212 169.976 535.286C171.45 533.974 173.037 532.825 174.738 531.835L179.009 529.458M211.361 530.146L212.873 529.477M211.361 530.146C211.664 530.527 211.928 531.174 212.231 532.077M179.009 529.458L181.73 528.309M179.009 529.458L183.96 532.837C185.661 533.925 187.739 534.859 190.196 535.637C192.124 536.253 194.24 536.541 196.546 536.507C198.435 536.427 200.212 536.174 201.95 535.747L207.96 533.876L212.231 532.077M212.231 532.077L213.591 531.446M212.231 532.077C212.835 534.651 212.646 536.348 211.739 537.168C210.038 538.695 210.001 538.211 205.352 540.702C202.933 541.994 201.686 544.667 201.194 546.745C200.892 548.374 201.005 550.57 201.421 552.237" stroke="#FDFBFE" stroke-opacity="0.95724" stroke-width="0.099998"/>
<path id="path22-2" d="M162.379 536.786L160.414 534.624M167.028 534.277L165.214 531.321M170.543 531.378L168.691 528.936M173.075 529.526L171.299 527.149M176.363 528.048L174.171 525.168" stroke="#FDFBFE" stroke-opacity="0.95724" stroke-width="0.49999"/>
</g>
<g id="pied_gauche">
<path id="path75" d="M234.175 552.086L234.251 560.325L259.952 560.276V555.714C267.851 556.734 275.977 559.433 283.876 560.325C289.054 560.949 294.988 561.27 307.006 559.146C310.635 558.571 314.112 557.781 317.438 556.795C323.787 554.848 329.986 552.902 332.291 550.956C332.027 549.856 331.951 548.37 331.422 547.785C328.512 549.383 325.035 550.861 320.764 552.188C314.452 554.399 307.8 555.975 300.657 556.685C293.627 557.804 287.277 557.611 281.344 556.685C266.566 553.458 261.615 552.607 259.46 552.498C250.956 551.893 242.566 552.18 234.175 552.086Z" fill="black"/>
<path id="path76" d="M234.553 552.093C234.289 549.909 233.986 547.044 234.024 545.026C234.024 542.867 234.516 540.505 235.083 537.761C235.65 535.017 236.292 531.986 237.577 528.638L241.47 529.957C245.249 531.355 249.029 532.81 252.771 533.158C255.152 533.411 257.608 533.086 260.065 532.187C261.728 531.589 263.391 530.713 264.978 529.556C265.545 526.789 266.982 524.442 269.249 522.515L272.802 524.688C273.256 524.541 274.2 524.624 275.599 524.938L289.696 534.624L291.019 536.008C293.249 537.463 295.555 538.695 297.86 539.696C301.564 541.307 305.306 542.183 309.047 542.327C312.789 542.346 316.228 541.204 320.159 541.186C323.069 541.322 325.375 541.877 327.038 542.856C328.323 543.635 329.23 544.485 329.759 545.407C330.25 546.239 330.704 547.116 330.779 548.125C329.041 549.111 327.302 549.807 325.602 550.502C323.334 551.375 320.839 552.203 318.421 552.974C317.287 553.359 314.263 554.342 309.69 555.291C308.745 555.597 302.244 556.621 298.692 556.965C295.895 557.328 293.06 557.483 290.301 557.449C286.333 557.585 282.477 556.852 279.529 556.394C274.767 555.344 270.043 554.391 265.205 553.325C259.838 552.452 254.32 552.029 248.689 552.237C243.964 552.203 239.278 552.105 234.553 552.093Z" fill="#1F1A1A" stroke="black" stroke-width="0.399984"/>
<path id="path77" d="M260.027 552.539C260.708 551.046 262.333 548.9 264.449 547.365C265.696 546.469 267.17 545.8 268.871 545.358C270.95 544.863 273.029 544.784 274.918 544.81C275.523 544.753 277.224 544.931 280.021 545.347M280.021 545.347L287.542 546.175C287.618 545.203 287.92 544.3 288.373 543.465L289.923 540.116C290.452 539.096 290.83 537.935 290.414 536.779C290.188 536.132 287.693 533.918 286.975 533.434L276.922 526.582C276.695 526.43 275.637 525.841 274.767 525.705C273.671 525.512 272.651 525.648 271.668 526.105C269.741 526.88 268.456 528.332 266.944 529.567C265.167 530.985 262.975 532.247 260.292 533.354C257.76 534.537 254.282 534.734 249.86 533.948C246.61 533.184 242.906 531.914 238.749 530.146M280.021 545.347L280.814 543.276C281.457 541.79 281.797 540.309 281.873 538.827C281.646 537.395 281.079 536.212 280.134 535.286C278.66 533.974 277.073 532.825 275.372 531.835L271.101 529.458M238.749 530.146L237.237 529.477M238.749 530.146C238.446 530.527 238.182 531.174 237.879 532.077M271.101 529.458L268.38 528.309M271.101 529.458L266.15 532.837C264.449 533.925 262.371 534.859 259.914 535.637C257.986 536.253 255.87 536.541 253.564 536.507C251.675 536.427 249.898 536.174 248.16 535.747L242.15 533.876L237.879 532.077M237.879 532.077L236.519 531.446M237.879 532.077C237.275 534.651 237.464 536.348 238.371 537.168C240.071 538.695 240.109 538.211 244.758 540.702C247.177 541.994 248.424 544.667 248.915 546.745C249.218 548.374 249.104 550.57 248.689 552.237" stroke="#FDFBFE" stroke-opacity="0.95724" stroke-width="0.099998"/>
<path id="path78" d="M287.731 536.786L289.696 534.624M283.082 534.277L284.896 531.321M279.567 531.378L281.419 528.936M277.035 529.526L278.811 527.149M273.747 528.048L275.939 525.168" stroke="#FDFBFE" stroke-opacity="0.95724" stroke-width="0.49999"/>
</g>
<g id="torse">
<path id="path55" d="M248.4 320.21L253.83 256.72H195.84L200.14 319.96C200.14 319.96 218.26 329.11 224.84 329.09C231.14 329.07 248.41 320.21 248.41 320.21H248.4Z" fill="#332E2E" stroke="#00000F" stroke-width="0.405"/>
<path id="path56" d="M297.63 158.82L285.86 154.64L267.87 146.97L247.9 137.67L222.33 263.12L224.87 296.7C224.87 296.7 226.72 312.35 230.38 327.95C233 339.09 238.08 347.48 245.22 349.45C251.51 351.17 260.94 349.3 268.11 347.78C276.51 346 284.07 342.9 284.07 342.9L281.11 289.18L284.07 228.47L297.63 158.82Z" fill="#262626" stroke="#00000F" stroke-width="0.405"/>
<path id="path57" d="M151.93 158.82L163.7 154.64L181.69 146.97L201.66 137.67L227.23 263.14L224.84 276.58C226.11 285.58 225.08 290.18 224.7 296.72C224.7 296.72 222.85 312.38 219.18 327.98C216.56 339.12 211.48 347.51 204.34 349.48C198.05 351.2 188.62 349.33 181.45 347.81C176.01 346.61 170.67 344.98 165.49 342.93L168.45 289.2L165.49 228.48L151.93 158.82Z" fill="#262626" stroke="#00000F" stroke-width="0.405"/>
<path id="path58" d="M249.28 206.63H200.4V154.96H249.28V206.63Z" fill="white" stroke="#00000F" stroke-width="0.405"/>
<path id="path59" d="M248.83 135.53C248.83 135.53 244.46 141.86 237.91 147.21C233.854 150.438 229.474 153.236 224.84 155.56C223.61 154.96 217.33 151.76 211.76 147.21C205.22 141.86 200.85 135.53 200.85 135.53C200.85 135.53 199.25 146.95 200.85 158.89C202.12 168.35 206.28 182.26 206.28 182.26L224.84 155.99L243.39 182.26C243.39 182.26 247.56 168.36 248.83 158.89C250.43 146.95 248.83 135.53 248.83 135.53Z" fill="#A7A9AC" stroke="#00000F" stroke-width="0.405"/>
<path id="path60" d="M231.14 154.96H218.54L214.26 162.91L220.86 175.72H228.81L235.41 162.92L231.14 154.96Z" fill="#090A47" stroke="#00000F" stroke-width="0.405"/>
<path id="path61" d="M233.15 167.3L235.41 162.91L231.14 154.96H225.15L224.84 155.12L224.52 154.96H218.53L214.27 162.91L216.52 167.31L224.84 155.53L233.15 167.3Z" fill="#03466B" stroke="#00000F" stroke-width="0.405"/>
<path id="path62" d="M228.81 175.72H220.86L214.26 223.85H235.41L228.81 175.72Z" fill="#090A47" stroke="#00000F" stroke-width="0.405"/>
<path id="path63" d="M248.4 219.97L253.83 156.48L224.83 215.61L195.84 156.48L200.14 219.72L224.84 276.58L248.4 219.97Z" fill="#332E2E" stroke="#00000F" stroke-width="0.405"/>
<path id="path64" d="M224.98 276.58L249.56 147.95L270.13 168.13L262.37 172.01L272.85 183.27L224.98 276.58Z" fill="#414042" stroke="#00000F" stroke-width="0.405"/>
<path id="path65" d="M224.84 276.58L200.1 147.95L179.53 168.13L187.3 172.01L176.82 183.27L224.84 276.58Z" fill="#414042" stroke="#00000F" stroke-width="0.405"/>
<path id="path66" d="M227.75 229.47C227.773 229.867 227.715 230.265 227.579 230.639C227.443 231.013 227.232 231.355 226.959 231.644C226.686 231.934 226.357 232.164 225.992 232.322C225.626 232.48 225.233 232.561 224.835 232.561C224.437 232.561 224.044 232.48 223.678 232.322C223.313 232.164 222.984 231.934 222.711 231.644C222.438 231.355 222.227 231.013 222.091 230.639C221.955 230.265 221.897 229.867 221.92 229.47C221.964 228.726 222.29 228.028 222.832 227.517C223.373 227.005 224.09 226.721 224.835 226.721C225.58 226.721 226.297 227.005 226.838 227.517C227.38 228.028 227.706 228.726 227.75 229.47Z" fill="#231F20" stroke="#00000F" stroke-width="0.405"/>
<path id="path67" d="M227.75 250.41C227.75 250.793 227.674 251.173 227.528 251.527C227.381 251.882 227.166 252.204 226.895 252.475C226.624 252.746 226.302 252.961 225.947 253.108C225.593 253.254 225.213 253.33 224.83 253.33C224.447 253.33 224.067 253.254 223.713 253.108C223.358 252.961 223.036 252.746 222.765 252.475C222.494 252.204 222.279 251.882 222.132 251.527C221.986 251.173 221.91 250.793 221.91 250.41C221.91 249.636 222.218 248.893 222.765 248.345C223.313 247.798 224.056 247.49 224.83 247.49C225.604 247.49 226.347 247.798 226.895 248.345C227.442 248.893 227.75 249.636 227.75 250.41Z" fill="#231F20" stroke="#00000F" stroke-width="0.405"/>
<path id="path68" d="M248.83 135.53C248.83 135.53 244.46 141.63 237.91 146.79C233.837 149.909 229.458 152.606 224.84 154.84C220.218 152.608 215.835 149.91 211.76 146.79C205.22 141.63 200.85 135.53 200.85 135.53C200.85 135.53 199.25 146.53 200.85 158.04C202.12 167.16 206.28 180.55 206.28 180.55L224.84 155.24L243.39 180.55C243.39 180.55 247.56 167.16 248.83 158.05C250.43 146.53 248.83 135.53 248.83 135.53Z" fill="white" stroke="#00000F" stroke-width="0.405"/>
<path id="path69" d="M256.32 219.88H279.18V226.03H256.32V219.88Z" fill="#414042" stroke="#00000F" stroke-width="0.405"/>
<path id="path70" d="M227.9 288.1C227.9 288.483 227.824 288.863 227.678 289.217C227.531 289.572 227.316 289.894 227.045 290.165C226.774 290.436 226.452 290.651 226.097 290.798C225.743 290.944 225.363 291.02 224.98 291.02C224.597 291.02 224.217 290.944 223.863 290.798C223.508 290.651 223.186 290.436 222.915 290.165C222.644 289.894 222.429 289.572 222.282 289.217C222.136 288.863 222.06 288.483 222.06 288.1C222.104 287.356 222.43 286.658 222.972 286.147C223.513 285.635 224.23 285.351 224.975 285.351C225.72 285.351 226.437 285.635 226.978 286.147C227.52 286.658 227.846 287.356 227.89 288.1H227.9Z" fill="#231F20" stroke="#00000F" stroke-width="0.405"/>
</g>
<defs>
<clipPath id="clip0_12_2">
<rect width="450" height="561" fill="white"/>
</clipPath>
</defs>
</svg>
